<svg xmlns="http://www.w3.org/2000/svg" xmlns:xlink="http://www.w3.org/1999/xlink" fill="none" version="1.1" width="290" height="50" viewBox="0 0 290 50"><g style="mix-blend-mode:passthrough"><g style="mix-blend-mode:passthrough"><path d="M59.11247634887695,38.820494473266606L59.11247634887695,11.267694473266602L72.84777634887695,11.267694473266602Q75.69317634887696,11.267694473266602,77.85327634887696,12.265344473266602Q80.01337634887696,13.2556544732666,81.24237634887695,15.023554473266602Q82.47147634887696,16.7914544732666,82.47147634887696,19.0948444732666Q82.47147634887696,20.804054473266604,81.65957634887695,22.293194473266603Q80.84767634887694,23.782294473266603,79.46217634887695,24.8166944732666Q81.50307634887696,25.7922944732666,82.70237634887695,27.3547944732666Q83.90157634887696,28.9099944732666,83.90157634887696,30.7805944732666Q83.90157634887696,33.1646944732666,82.64277634887695,34.9765944732666Q81.39137634887695,36.7884944732666,79.11957634887696,37.80809447326661Q76.84767634887694,38.820494473266606,73.86077634887695,38.820494473266606L59.11247634887695,38.820494473266606ZM65.78646634887696,22.3885944732666L72.46047634887695,22.3885944732666Q74.00227634887695,22.3885944732666,74.89617634887695,21.6182944732666Q75.79747634887696,20.8407344732666,75.79747634887696,19.5716644732666Q75.79747634887696,18.2659144732666,74.89617634887695,17.510344473266603Q74.00227634887695,16.7547744732666,72.46047634887695,16.7547744732666L65.78646634887696,16.7547744732666L65.78646634887696,22.3885944732666ZM65.78646634887696,33.3333944732666L73.16807634887695,33.3333944732666Q74.82167634887695,33.3333944732666,75.78257634887696,32.5557944732666Q76.75087634887696,31.7708944732666,76.75087634887696,30.4430944732666Q76.75087634887696,29.1153944732666,75.78257634887696,28.3377944732666Q74.82167634887695,27.5528944732666,73.16807634887695,27.5528944732666L65.78646634887696,27.5528944732666L65.78646634887696,33.3333944732666ZM88.91657634887696,38.820494473266606L88.91657634887696,11.5904634732666L95.24047634887695,11.5904634732666L108.33527634887696,27.3841944732666L108.33527634887696,11.5904634732666L114.65917634887695,11.5904634732666L114.65917634887695,38.820494473266606L108.72257634887696,38.820494473266606L95.24047634887695,22.403194473266602L95.24047634887695,38.820494473266606L88.91657634887696,38.820494473266606ZM120.62757634887694,38.820494473266606L120.62757634887694,11.267694473266602L134.36287634887697,11.267694473266602Q137.20827634887695,11.267694473266602,139.36837634887695,12.265344473266602Q141.52847634887695,13.2556544732666,142.75757634887697,15.023554473266602Q143.98657634887695,16.7914544732666,143.98657634887695,19.0948444732666Q143.98657634887695,20.804054473266604,143.17467634887697,22.293194473266603Q142.36277634887693,23.782294473266603,140.97727634887696,24.8166944732666Q143.01817634887695,25.7922944732666,144.21747634887697,27.3547944732666Q145.41667634887693,28.9099944732666,145.41667634887693,30.7805944732666Q145.41667634887693,33.1646944732666,144.15787634887695,34.9765944732666Q142.90647634887694,36.7884944732666,140.63467634887695,37.80809447326661Q138.36287634887697,38.820494473266606,135.37587634887694,38.820494473266606L120.62757634887694,38.820494473266606ZM127.30157634887695,22.3885944732666L133.97557634887696,22.3885944732666Q135.51747634887695,22.3885944732666,136.41127634887695,21.6182944732666Q137.31257634887697,20.8407344732666,137.31257634887697,19.5716644732666Q137.31257634887697,18.2659144732666,136.41127634887695,17.510344473266603Q135.51747634887695,16.7547744732666,133.97557634887696,16.7547744732666L127.30157634887695,16.7547744732666L127.30157634887695,22.3885944732666ZM127.30157634887695,33.3333944732666L134.68317634887694,33.3333944732666Q136.33677634887695,33.3333944732666,137.29767634887696,32.5557944732666Q138.26597634887696,31.7708944732666,138.26597634887696,30.4430944732666Q138.26597634887696,29.1153944732666,137.29767634887696,28.3377944732666Q136.33677634887695,27.5528944732666,134.68317634887694,27.5528944732666L127.30157634887695,27.5528944732666L127.30157634887695,33.3333944732666Z" fill="#F0B90B" fill-opacity="1"/></g><g style="mix-blend-mode:passthrough"><g style="mix-blend-mode:passthrough"><path d="M0,12.676032766723633L0,18.30981276672363L5.00549,21.126732766723634L5.00549,15.492922766723634L9.77263,12.676032766723633L5.00549,9.859132766723633L0,12.676032766723633Z" fill="#F0B90B" fill-opacity="1"/></g><g style="mix-blend-mode:passthrough"><path d="M0,37.55856006469727L13.5863,45.305060064697265L13.5863,39.43656006469726L4.76714,34.741660064697264L5.00549,25.117310064697264L0.238357,22.535160064697266L0,37.55856006469727Z" fill="#F0B90B" fill-opacity="1"/></g><g style="mix-blend-mode:passthrough"><path d="M8.580842971801758,27.229984283447266L8.580842971801758,32.86377428344726L13.586332971801758,35.68067428344727L13.586332971801758,29.812134283447264L8.580842971801758,27.229984283447266Z" fill="#F0B90B" fill-opacity="1"/></g><g style="mix-blend-mode:passthrough"><path d="M8.580842971801758,23.239388892822266L16.923332971801756,27.699458892822264L16.923332971801756,37.55855889282226L22.16714297180176,40.375458892822266L26.934342971801758,37.55855889282226L26.934342971801758,27.934258892822264L35.51514297180176,23.239388892822266L35.51514297180176,17.370858892822266L30.74804297180176,14.553958892822266L22.16714297180176,19.483528892822264L13.586332971801758,14.553958892822266L8.580842971801758,17.370858892822266L8.580842971801758,23.239388892822266Z" fill="#F0B90B" fill-opacity="1"/></g><g style="mix-blend-mode:passthrough"><path d="M8.342486381530762,7.74646L13.347976381530762,10.7981L21.928786381530763,5.63379L30.74798638153076,10.7981L35.51518638153076,7.74646L22.16718638153076,0L8.342486381530762,7.74646Z" fill="#F0B90B" fill-opacity="1"/></g><g style="mix-blend-mode:passthrough"><path d="M17.161685943603516,12.676032766723633L22.167175943603517,15.727662766723633L26.934315943603515,12.676032766723633L22.167175943603517,9.859132766723633L17.161685943603516,12.676032766723633Z" fill="#F0B90B" fill-opacity="1"/></g><g style="mix-blend-mode:passthrough"><path d="M34.32337188720703,12.676022766723634L39.32886188720703,15.492922766723634L39.32886188720703,21.36143276672363L44.33437188720703,18.309822766723634L44.33437188720703,12.676022766723634L39.32886188720703,9.859132766723633L34.32337188720703,12.676022766723634Z" fill="#F0B90B" fill-opacity="1"/></g><g style="mix-blend-mode:passthrough"><path d="M17.161685943603516,47.18310640625L21.928825943603517,50.00000640625L27.172685943603515,47.18310640625L27.172685943603515,41.54931640625L21.928825943603517,44.36621640625L17.161685943603516,41.54931640625L17.161685943603516,47.18310640625Z" fill="#F0B90B" fill-opacity="1"/></g><g style="mix-blend-mode:passthrough"><path d="M30.509666442871094,39.4365207611084L30.509666442871094,45.305020761108395L44.334366442871094,37.5586207611084L44.334366442871094,22.3004207611084L39.328866442871096,25.1173107611084L39.328866442871096,34.7417207611084L30.509666442871094,39.4365207611084Z" fill="#F0B90B" fill-opacity="1"/></g><g style="mix-blend-mode:passthrough"><path d="M30.509666442871094,29.8121449798584L30.509666442871094,35.680674979858395L35.515156442871096,32.629034979858396L35.515156442871096,26.9952449798584L30.509666442871094,29.8121449798584Z" fill="#F0B90B" fill-opacity="1"/></g></g><g style="mix-blend-mode:passthrough"><path d="M171.8552451171875,39.436612051391606Q168.7118451171875,39.436612051391606,165.9633351171875,38.3436120513916Q163.2147851171875,37.2506120513916,161.1738551171875,35.3067120513916Q159.1403751171875,33.3554120513916,157.9858351171875,30.7585120513916Q156.8387451171875,28.154412051391603,156.8387451171875,25.139412051391602Q156.8387451171875,22.0805120513916,157.9858351171875,19.4836420513916Q159.1403751171875,16.8794820513916,161.1962051171875,14.935522051391601Q163.2520351171875,12.984242051391602,165.9782351171875,11.891222051391601Q168.7118451171875,10.798212051391602,171.8552451171875,10.798212051391602Q174.2015451171875,10.798212051391602,176.3840451171875,11.421744051391602Q178.5664451171875,12.045272051391601,180.4435451171875,13.167632051391601Q182.3205451171875,14.289992051391602,183.6538451171875,15.881832051391601L179.7284451171875,19.7917320513916Q178.2089451171875,17.899132051391604,176.2275451171875,16.9308320513916Q174.2462451171875,15.962522051391602,171.9595451171875,15.962522051391602Q170.0824451171875,15.962522051391602,168.4362451171875,16.6740820513916Q166.7975851171875,17.3783020513916,165.5909051171875,18.610692051391602Q164.3916751171875,19.8357520513916,163.7138451171875,21.508312051391602Q163.0360251171875,23.1808120513916,163.0360251171875,25.1614120513916Q163.0360251171875,27.090712051391602,163.7138451171875,28.7632120513916Q164.3916751171875,30.4358120513916,165.6355951171875,31.668212051391603Q166.8795451171875,32.900612051391604,168.5405451171875,33.5901120513916Q170.2016451171875,34.2723120513916,172.1606451171875,34.2723120513916Q174.3654451171875,34.2723120513916,176.2871451171875,33.348012051391606Q178.2089451171875,32.4164120513916,179.6912451171875,30.685212051391602L183.4974451171875,34.463112051391604Q182.1567451171875,36.0035120513916,180.3019451171875,37.1259120513916Q178.4472451171875,38.240912051391604,176.2797451171875,38.842412051391605Q174.1196451171875,39.436612051391606,171.8552451171875,39.436612051391606ZM189.2743451171875,38.9672120513916L189.2743451171875,11.267695051391602L194.9948451171875,11.267695051391602L194.9948451171875,22.5353120513916L207.8661451171875,22.5353120513916L207.8661451171875,11.267695051391602L213.5867451171875,11.267695051391602L213.5867451171875,38.9672120513916L207.8661451171875,38.9672120513916L207.8661451171875,27.6996120513916L194.9948451171875,27.6996120513916L194.9948451171875,38.9672120513916L189.2743451171875,38.9672120513916ZM218.2090451171875,38.732412051391606L229.7470451171875,11.032953051391601L236.4359451171875,11.032953051391601L247.8472451171875,38.732412051391606L241.5605451171875,38.732412051391606L238.7151451171875,31.4554120513916L227.1399451171875,31.4554120513916L224.2573451171875,38.732412051391606L218.2090451171875,38.732412051391606ZM228.9425451171875,26.7239120513916L236.9498451171875,26.7239120513916L232.9499451171875,16.6007220513916L228.9425451171875,26.7239120513916ZM252.2386451171875,38.9672120513916L252.2386451171875,11.267695051391602L257.9587451171875,11.267695051391602L257.9587451171875,38.9672120513916L252.2386451171875,38.9672120513916ZM265.1287451171875,38.9672120513916L265.1287451171875,11.267695051391602L270.4917451171875,11.267695051391602L284.6747451171875,29.1520120513916L284.6747451171875,11.267695051391602L289.9997451171875,11.267695051391602L289.9997451171875,38.9672120513916L284.9867451171875,38.9672120513916L270.4547451171875,20.4446120513916L270.4547451171875,38.9672120513916L265.1287451171875,38.9672120513916Z" fill="#F0B90B" fill-opacity="1"/></g></g></svg>