<svg xmlns="http://www.w3.org/2000/svg" xmlns:xlink="http://www.w3.org/1999/xlink" fill="none" version="1.1" width="234.000732421875" height="49.999610900878906" viewBox="0 0 234.000732421875 49.999610900878906"><defs><linearGradient x1="0.9048884510993958" y1="0" x2="0.16532619297504425" y2="0.8324469923973083" id="master_svg0_836_2249"><stop offset="0%" stop-color="#68BEFC" stop-opacity="1"/><stop offset="99.99999403953552%" stop-color="#AD94F3" stop-opacity="1"/></linearGradient><linearGradient x1="0.909741997718811" y1="0.16837173700332642" x2="0.10539736598730087" y2="1" id="master_svg1_836_1985"><stop offset="0%" stop-color="#58E2A1" stop-opacity="1"/><stop offset="99.99998211860657%" stop-color="#6CD8F2" stop-opacity="1"/></linearGradient></defs><g style="mix-blend-mode:passthrough"><g><g style="mix-blend-mode:passthrough"><g><g style="mix-blend-mode:passthrough"><g><g style="mix-blend-mode:passthrough"><path d="M46.69997499999987,12.60373062499821L45.621874999999875,10.71011062499821C45.45047499999987,10.40926762499821,45.148374999999874,10.20580912499821,44.80527499999987,10.16010146499821C44.462174999999874,10.11439382499821,44.11737499999987,10.231688224998209,43.873274999999865,10.477182624998209L41.393674999999874,12.95528062499821C41.01987499999987,13.33100062499821,40.962174999999874,13.91799062499821,41.25567499999987,14.359320624998208C42.15977499999987,15.74132062499821,42.884374999999864,17.232830624998208,43.411774999999864,18.79790062499821L43.411774999999864,18.79790062499821C45.41107499999987,24.733390624998208,44.431074999999865,31.26859062499821,40.77887499999987,36.356190624998206C37.126674999999864,41.44369062499821,31.24907499999987,44.46119062499821,24.98747499999987,44.46309062499821C21.810174999999866,44.47189062499821,18.67997499999987,43.69469062499821,15.87559499999987,42.20069062499821L20.06927499999987,38.003690624998214C25.38637499999987,40.01529062499821,31.39217499999987,38.58249062499821,35.22917499999987,34.38709062499821C39.06627499999987,30.19159062499821,39.959774999999865,24.080690624998212,37.484574999999865,18.961810624998208C37.32867499999987,18.636730624998208,37.02487499999987,18.40754062499821,36.66947499999986,18.34709062499821C36.314174999999864,18.28664062499821,35.95167499999987,18.40245062499821,35.69707499999987,18.65771062499821L33.18737499999987,21.150890624998212C32.915274999999866,21.42269062499821,32.803474999999864,21.81619062499821,32.89197499999987,22.190490624998212L33.10757499999987,23.09199062499821C33.86577499999987,26.31919062499821,32.63907499999986,29.68899062499821,29.98377499999987,31.67289062499821C27.32847499999987,33.65689062499821,23.749974999999868,33.87739062499821,20.87137499999987,32.23439062499821L19.765274999999868,31.60029062499821C19.330674999999868,31.34989062499821,18.781974999999868,31.42339062499821,18.42847499999987,31.77929062499821L8.184603999999869,42.02389062499821C7.958379299999868,42.25019062499821,7.840724599999868,42.56309062499821,7.861786879999869,42.88239062499821C7.882849199999868,43.20169062499821,8.040581999999869,43.496390624998206,8.29456699999987,43.69099062499821L9.803874999999868,44.84919062499821C14.156484999999869,48.20439062499821,19.50107499999987,50.01619062499821,24.99607499999987,49.99949062499821C33.898974999999865,49.98809062499821,42.12477499999987,45.24379062499821,46.594574999999864,37.54219062499821C51.064474999999874,29.84059062499821,51.10457499999987,20.34279062499821,46.69997499999987,12.60373062499821L46.69997499999987,12.60373062499821Z" fill="url(#master_svg0_836_2249)" fill-opacity="1"/></g><g style="mix-blend-mode:passthrough"><path d="M40.18419999999968,5.152569999997771C35.83209999999968,1.7962099999977714,30.48729999999968,-0.016461600002228623,24.99189999999968,0.00011265699777137704C16.08459999999968,0.007038389997771378,7.85302999999968,4.7519499999977715,3.3808899999996793,12.45739999999777C-1.091250000000321,20.162799999997773,-1.1290600000003208,29.665899999997773,3.281629999999679,37.40669999999777L4.3596999999996795,39.29809999999777C4.531799999999679,39.59859999999777,4.8339399999996795,39.80189999999777,5.177089999999679,39.84799999999777C5.52023999999968,39.89399999999777,5.865269999999679,39.77769999999777,6.110499999999679,39.53319999999777L8.585759999999679,37.05729999999777C8.956799999999678,36.68109999999777,9.014329999999678,36.09669999999777,8.723759999999679,35.65539999999777C7.818789999999679,34.27389999999777,7.09418999999968,32.78219999999777,6.567599999999679,31.21679999999777L6.567599999999679,31.21679999999777C4.568339999999679,25.281399999997774,5.54831999999968,18.74609999999777,9.200519999999678,13.65859999999777C12.852699999999679,8.57100999999777,18.73029999999968,5.553559999997772,24.99189999999968,5.5515699999977715C28.16919999999968,5.544379999997772,31.29879999999968,6.323849999997772,34.10169999999968,7.820459999997771L29.90579999999968,12.01529999999777C25.63909999999968,10.39779999999777,20.85029999999968,10.980599999997771,17.09579999999968,13.57429999999777C13.341299999999679,16.167899999997772,11.100599999999679,20.44129999999777,11.101999999999679,25.005399999997774C11.101999999999679,25.236199999997773,11.164499999999679,26.28869999999777,11.183899999999678,26.469799999997772C11.353999999999678,28.062699999997772,11.796699999999678,29.614499999997772,12.492699999999678,31.057199999997774C12.64909999999968,31.382299999997773,12.953299999999679,31.611499999997772,13.308899999999678,31.671899999997773C13.664599999999679,31.73229999999777,14.027399999999679,31.61649999999777,14.282299999999678,31.361299999997772L16.79209999999968,28.848699999997773C17.06379999999968,28.577599999997773,17.17639999999968,28.185299999997774,17.08959999999968,27.81129999999777L16.87399999999968,26.90759999999777C16.11479999999968,23.68029999999777,17.34139999999968,20.30979999999777,19.99719999999968,18.325999999997773C22.65299999999968,16.34219999999777,26.23209999999968,16.122799999997774,29.11019999999968,17.76739999999777L30.21629999999968,18.40139999999777C30.65139999999968,18.649499999997772,31.19859999999968,18.576299999997772,31.55309999999968,18.222399999997773L41.79479999999968,7.9778999999977716C42.02139999999968,7.751529999997771,42.13939999999968,7.438479999997772,42.11879999999968,7.1188299999977716C42.09809999999968,6.799179999997771,41.94079999999968,6.503929999997772,41.68699999999968,6.308589999997771L40.18419999999968,5.152569999997771Z" fill="url(#master_svg1_836_1985)" fill-opacity="1"/></g></g></g><g style="mix-blend-mode:passthrough"><g><g style="mix-blend-mode:passthrough"><path d="M95.90580625000001,33.4334875C95.43420625000002,33.0504875,94.75450625000002,33.0660875,94.30100625000001,33.4703875C92.33770625000001,34.994087500000006,90.06080625000001,36.4042875,86.73240625000001,36.4042875C80.63960625000001,36.4042875,75.68257625000001,31.271987500000005,75.68257625000001,24.958687500000003C75.68257625000001,18.6454875,80.62110625000001,13.468307500000003,86.68760625000002,13.468307500000003C89.32290625000002,13.468307500000003,92.16900625000001,14.578067500000003,94.26140625000002,16.415377500000005C94.50020625000002,16.692427500000004,94.84980625000001,16.848907500000003,95.21540625000002,16.842407500000004C95.53220625000002,16.817237500000005,95.82160625000002,16.6531875,96.00600625000001,16.394287500000004L97.98770625000002,14.354007500000003C98.24270625000001,14.107207500000005,98.38310625000001,13.765137500000003,98.37510625000002,13.410317500000003C98.36010625000002,13.049807500000004,98.19590625000001,12.711787500000003,97.92180625000002,12.477167500000004C94.46170625000002,9.461557500000003,90.98570625000002,8.117187500000004,86.64010625000002,8.117187500000004C77.36389625000001,8.117187500000004,69.81640625000001,15.714197500000004,69.81640625000001,25.050987500000005C69.82366000000002,34.344187500000004,77.34953625000001,41.8779875,86.64010625000002,41.8924875C90.87380625000002,41.9425875,94.95260625000002,40.3011875,97.97190625000002,37.3321875C98.23690625000002,37.061887500000005,98.38140625000001,36.69578750000001,98.37250625000001,36.317287500000006C98.36530625000002,36.01598750000001,98.23600625000002,35.7304875,98.01410625000001,35.5264875L95.90580625000001,33.4334875Z" fill="#3D3751" fill-opacity="1"/></g><g style="mix-blend-mode:passthrough"><path d="M110.3291375,8.576171875L107.3275375,8.576171875C106.6324285,8.599523875,106.0751606,9.159252875,106.0546875,9.854641875L106.0546875,40.168871875C106.0737954,40.865271875,106.6314415,41.426571875,107.3275375,41.449971875L110.3291375,41.449971875C111.0252375,41.426571875,111.5828775,40.865271875,111.6019875,40.168871875L111.6019875,9.854641875C111.5815175,9.159252875,111.0242475,8.599523875,110.3291375,8.576171875Z" fill="#3D3751" fill-opacity="1"/></g><g style="mix-blend-mode:passthrough"><path d="M135.527753125,8.576171875C141.220053125,8.576171875,145.850253125,13.154941874999999,145.850253125,18.780171875C145.850253125,22.863371875,143.336153125,26.464171875,139.262053125,28.275171875L145.291553125,39.515171875C145.51955312500002,39.924871875,145.51955312500002,40.423371875,145.291553125,40.833171875C145.051853125,41.221571875,144.622453125,41.451971875,144.166353125,41.436771875L140.619153125,41.436771875C140.165053125,41.438971875,139.745853125,41.193471875,139.525553125,40.796271875L133.582953125,28.894571875L127.379453125,28.894571875L127.379453125,40.168871875C127.360353125,40.865271875,126.802703125,41.426571875,126.106613125,41.449971875L123.149803125,41.449971875C122.444948125,41.447071875,121.875496615,40.873871875,121.87695592353,40.168871875L121.87695592353,9.854641875C121.87694993917,9.150615875,122.445978125,8.579075075,123.149803125,8.576171875L135.527753125,8.576171875ZM135.165053125,24.144471875C137.950553125,24.144471875,140.303953125,21.727171875,140.303953125,18.872371875L140.293353125,18.872371875C140.293353125,16.141481875,137.945353125,13.834961875000001,135.154553125,13.834961875000001L127.472653125,13.834961875000001L127.472653125,24.144471875L135.165053125,24.144471875Z" fill-rule="evenodd" fill="#3D3751" fill-opacity="1"/></g><g style="mix-blend-mode:passthrough"><path d="M178.15563125,33.4334875C177.68403125,33.0504875,177.00433125,33.066087499999995,176.55073125,33.4703875C174.58743125,34.9940875,172.31053125,36.404287499999995,168.98223125,36.404287499999995C162.88943125,36.404287499999995,157.93239125,31.2719875,157.93239125,24.9586875C157.93239125,18.6454875,162.86833125,13.4683075,168.93473125,13.4683075C171.57003125,13.4683075,174.41613125,14.5780675,176.51123125,16.415377499999998C176.75133125,16.6951975,177.10463125,16.8520375,177.47313125,16.8424075C177.78993125,16.817237499999997,178.07933125,16.6531875,178.26373125,16.3942875L180.24543125,14.3540075C180.49973125,14.106927500000001,180.63923125,13.7647975,180.63023125,13.4103175C180.61743125,13.0498175,180.45393125,12.7112575,180.17953125,12.4771675C176.72733125,9.4615575,173.25133125,8.1171875,168.90573125,8.1171875C159.62952125,8.1171875,152.08203125,15.714197500000001,152.08203125,25.0509875C152.089285,34.344187500000004,159.61516125,41.8779875,168.90573125,41.8924875C173.13933125,41.9419875,177.21783125,40.3006875,180.23753125,37.3321875C180.50293125,37.0610875,180.64743125,36.694087499999995,180.63813125000001,36.314687500000005C180.63123124999998,36.013287500000004,180.50183125,35.7276875,180.27973125,35.5238875L178.15563125,33.4334875Z" fill="#3D3751" fill-opacity="1"/></g><g style="mix-blend-mode:passthrough"><path d="M205.76344935302734,36.359771875L193.85194935302735,36.359771875L193.85194935302735,9.854641875C193.83147935302733,9.159252875,193.27420935302735,8.599523875,192.57910935302735,8.576171875L189.57749935302735,8.576171875C188.87367435302735,8.579075075,188.30464616719735,9.150615875,188.30465215155735,9.854641875L188.30465215155735,40.168871875C188.30319284302735,40.873871875,188.87264435302734,41.447071875,189.57749935302735,41.449971875L205.76344935302734,41.449971875C206.10244935302734,41.449271875,206.42724935302735,41.313871875,206.66644935302733,41.073671875C206.90564935302734,40.833371875,207.03964935302736,40.507971874999996,207.03894935302733,40.168871875L207.03894935302733,37.651471875C207.04244935302734,37.310571875,206.90974935302734,36.982371875,206.67024935302734,36.739871875C206.43074935302735,36.497271874999996,206.10434935302735,36.360471875,205.76344935302734,36.359771875L205.76344935302734,36.359771875Z" fill="#3D3751" fill-opacity="1"/></g><g style="mix-blend-mode:passthrough"><path d="M232.72786911621094,13.705774375C233.43166911621094,13.702864375,234.00076911621093,13.131324375,234.00076911621093,12.427304375L234.00076911621093,9.862454375C234.00076911621093,9.158428375,233.43166911621094,8.586887575,232.72786911621094,8.583984375L214.54431911621094,8.583984375C213.84049411621095,8.586887575,213.27146593038094,9.158428375,213.27147191474094,9.862454375L213.27147191474094,40.176684375C213.27001260621094,40.881684375,213.83946411621093,41.454884375,214.54431911621094,41.457784375L232.72786911621094,41.457784375C233.43276911621095,41.454884375,234.00216911621095,40.881684375,234.00076911621093,40.176684375L234.00076911621093,37.659284375C234.00076911621093,36.955284375000005,233.43166911621094,36.383684375,232.72786911621094,36.380784375000005L218.76079911621093,36.380784375000005L218.76079911621093,27.336584375L230.49046911621093,27.336584375C231.19536911621094,27.335184375,231.76596911621093,26.763184375,231.76596911621093,26.058184375L231.76596911621093,23.495984375C231.74676911621094,22.798584375,231.18766911621094,22.236884375000002,230.49046911621093,22.214884375L218.76869911621094,22.214884375L218.76869911621094,13.705774375L232.72786911621094,13.705774375Z" fill="#3D3751" fill-opacity="1"/></g></g></g></g></g></g></g></svg>