<svg xmlns="http://www.w3.org/2000/svg" xmlns:xlink="http://www.w3.org/1999/xlink" fill="none" version="1.1" width="227" height="50" viewBox="0 0 227 50"><defs><mask id="master_svg0_836_1528/348_2982"><g style="mix-blend-mode:passthrough"><rect x="0" y="0" width="227" height="50" rx="0" fill="#FFFFFF" fill-opacity="1"/></g></mask></defs><g style="mix-blend-mode:passthrough"><g><g style="mix-blend-mode:passthrough"><g><g style="mix-blend-mode:passthrough"></g></g><g mask="url(#master_svg0_836_1528/348_2982)"><g style="mix-blend-mode:passthrough"><path d="M124.12399999999988,12.4172C120.48199999999989,12.4172,117.43899999999988,13.9214,115.26499999999989,16.4439L115.26499999999989,1.25L108.74399999999989,1.25L108.74399999999989,40.7134L115.15599999999989,40.7134L115.15599999999989,37.0628C117.32999999999988,39.693,120.42899999999989,41.25,124.12399999999988,41.25C131.9489999999999,41.25,137.87399999999988,35.1297,137.87399999999988,26.8611C137.87399999999988,18.5924,131.8409999999999,12.4172,124.12399999999988,12.4172ZM69.45259999999989,1.5175779999999999C67.06149999999988,1.5175779999999999,65.26759999999989,3.23515,65.26759999999989,5.59705C65.26759999999989,7.95896,67.05959999999989,9.67652,69.45259999999989,9.67652C71.84359999999988,9.67652,73.63819999999988,7.95896,73.63819999999988,5.59705C73.63819999999988,3.23515,71.84359999999988,1.5175779999999999,69.45259999999989,1.5175779999999999ZM21.737299999999895,23.5852C20.705799999999893,20.4712,17.988699999999895,18.3776,14.563999999999893,18.3776C9.837169999999894,18.3776,6.576569999999893,21.9753,6.5744899999998925,26.8618C6.5744899999998925,31.6933,9.888439999999893,35.2911,14.617299999999894,35.2911C18.041999999999895,35.2911,20.759199999999893,33.1426,21.737299999999895,30.0286L28.586599999999894,30.0286C27.335699999999893,36.7403,21.683999999999894,41.2507,14.619399999999894,41.2507C6.250509999999893,41.2507,-1.0743406083377552e-13,35.1305,-1.0743406083377552e-13,26.8618C-1.0743406083377552e-13,18.5931,6.412499999999892,12.418,14.619399999999894,12.418C21.845999999999894,12.418,27.389099999999893,16.9283,28.639999999999894,23.5852L21.737299999999895,23.5852ZM45.595899999999894,12.418C37.38909999999989,12.418,30.976599999999895,18.5931,30.976599999999895,26.8597C30.976599999999895,35.1264,37.22699999999989,41.2487,45.595899999999894,41.2487C53.96479999999989,41.2487,60.323899999999895,35.0207,60.323899999999895,26.8069C60.323899999999895,18.6459,54.073499999999896,12.418,45.595899999999894,12.418ZM93.14649999999989,12.418C88.90789999999988,12.418,86.13529999999989,14.1355,84.50529999999989,16.552300000000002L84.50529999999989,12.9546L78.03709999999988,12.9546L78.03709999999988,40.7121L84.55829999999989,40.7121L84.55829999999989,25.626C84.55829999999989,21.3838,87.27539999999989,18.3776,91.29709999999989,18.3776C95.04759999999989,18.3776,97.38319999999989,21.0078,97.38319999999989,24.821L97.38319999999989,40.7141L103.90399999999988,40.7141L103.90399999999988,24.3393C103.90699999999988,17.3572,100.26699999999988,12.418,93.14649999999989,12.418ZM153.63399999999987,12.4199C161.4599999999999,12.4199,165.1549999999999,16.4465,165.1549999999999,22.459L165.1569999999999,22.459L165.1569999999999,34.9699L168.3649999999999,34.9699L168.3649999999999,40.714L164.5599999999999,40.714C161.6789999999999,40.714,159.6139999999999,38.9416,159.39699999999988,36.2037C157.92799999999988,39.2648,154.9939999999999,41.1978,150.32099999999988,41.1978C144.3419999999999,41.1978,140.5919999999999,37.9782,140.5919999999999,32.984C140.5919999999999,26.5405,146.7869999999999,24.823,151.7869999999999,24.2864C155.48199999999989,23.9104,158.4719999999999,23.3209,158.4719999999999,21.0119C158.4719999999999,19.2394,156.8419999999999,17.7901,153.5259999999999,17.7901C149.8299999999999,17.7901,148.0909999999999,19.6154,147.76499999999987,21.8167L141.29699999999988,21.8167C142.1129999999999,16.1254,146.24299999999988,12.4199,153.63399999999987,12.4199ZM181.2389999999999,23.4794L186.02099999999987,24.1766C191.40199999999987,24.9815,194.82499999999987,27.5589,194.82499999999987,32.4982C194.82499999999987,38.029,190.0979999999999,41.2507,182.9779999999999,41.2507C175.15299999999988,41.2507,170.86099999999988,37.4395,170.2619999999999,32.0165L176.6739999999999,32.0165C176.9999999999999,34.3784,179.1739999999999,35.9354,183.03399999999988,35.9354C186.1859999999999,35.9354,188.46799999999988,35.0227,188.46799999999988,32.8214C188.46799999999988,31.1038,187.16399999999987,30.1891,184.82599999999988,29.868L180.0439999999999,29.1708C174.0119999999999,28.313,171.02299999999988,25.573,171.02299999999988,20.8492C171.02299999999988,15.91,175.58699999999988,12.4199,182.4899999999999,12.4199C189.1729999999999,12.4199,193.52099999999987,15.6945,194.2289999999999,21.2781L187.9239999999999,21.2781C187.4899999999999,19.0768,185.4779999999999,17.7352,182.32599999999988,17.7352C179.4469999999999,17.7352,177.32599999999988,18.7007,177.32599999999988,20.6338C177.32599999999988,22.4062,178.95699999999988,23.1583,181.2389999999999,23.4794ZM212.1629999999999,12.4199C220.0429999999999,12.4199,225.9129999999999,18.0035,225.9129999999999,25.9491L225.9109999999999,25.9491L225.9109999999999,28.4187L204.3349999999999,28.4187C205.04099999999988,32.9291,208.1929999999999,35.5065,212.37799999999987,35.5065C215.5849999999999,35.5065,217.97599999999989,34.11,218.9539999999999,31.6404L225.74899999999988,31.6404C224.39099999999988,37.2769,219.06499999999988,41.2507,212.27199999999988,41.2507C204.2279999999999,41.2507,197.65199999999987,35.5065,197.65199999999987,26.8617C197.65199999999987,18.6479,203.7939999999999,12.4199,212.1629999999999,12.4199ZM66.19169999999988,18.7003L62.115199999999895,18.7003L62.115199999999895,12.9541L72.71289999999989,12.9541L72.71289999999989,40.7136L66.19169999999988,40.7136L66.19169999999988,18.7003ZM212.0549999999999,18.0557C208.6849999999999,18.0557,205.7509999999999,19.9338,204.7169999999999,23.7999L219.2279999999999,23.7999C218.57599999999988,20.1492,215.7499999999999,18.0557,212.0549999999999,18.0557ZM45.6509999999999,35.2903C40.977399999999896,35.2903,37.552699999999895,31.6926,37.552699999999895,26.861C37.552699999999895,21.9746,40.92199999999989,18.3789,45.59559999999989,18.3789C50.32439999999989,18.3789,53.7470999999999,22.0295,53.7470999999999,26.861C53.7470999999999,31.6926,50.32439999999989,35.2903,45.6509999999999,35.2903ZM123.14699999999989,35.2903C118.47299999999989,35.2903,115.0489999999999,31.6926,115.0489999999999,26.861C115.0489999999999,22.0295,118.52699999999989,18.3789,123.19999999999989,18.3789C127.92899999999989,18.3789,131.24299999999988,21.9767,131.24299999999988,26.861C131.24299999999988,31.6926,127.81999999999988,35.2903,123.14699999999989,35.2903ZM158.74199999999988,29.4389C158.74199999999988,33.144400000000005,155.48099999999988,35.8823,151.5129999999999,35.8823C149.0669999999999,35.8823,147.0019999999999,34.8619,147.0019999999999,32.7155C147.0019999999999,29.9775,150.3169999999999,29.2255,153.36099999999988,28.9044C156.29599999999988,28.636,157.92599999999987,27.9917,158.74199999999988,26.7559L158.74199999999988,29.4389Z" fill-rule="evenodd" fill="#1059FB" fill-opacity="1"/></g></g></g></g></g></svg>