<svg xmlns="http://www.w3.org/2000/svg" xmlns:xlink="http://www.w3.org/1999/xlink" fill="none" version="1.1" width="204" height="60.00048828125" viewBox="0 0 204 60.00048828125"><g><g><path d="M187.62577752929687,30.945112924194333C187.62577752929687,35.31066292419433,187.57311752929687,39.255062924194334,187.65625752929688,43.19936292419433C187.68121752929687,44.40166292419434,187.31814752929688,44.705662924194336,186.1956775292969,44.608062924194336C185.00392752929687,44.504862924194335,183.79555752929687,44.55786292419434,182.59549452929687,44.59696292419434C181.99685652929688,44.61646292419434,181.79452556929687,44.426762924194335,181.79452556929687,43.81306292419434C181.81115392929686,36.886762924194336,181.81115392929686,29.960422924194337,181.79175136109689,23.034093924194337C181.78897714929687,22.414824924194335,181.98853452929689,22.186086324194335,182.58162252929688,22.266981924194337C182.71742452929686,22.286508924194337,182.86154752929687,22.289298924194338,182.9973475292969,22.266981924194337C186.13746752929688,21.703503924194337,188.26875752929686,22.880670924194337,190.08963752929688,25.586482924194335C192.45091752929687,29.098462924194337,195.29171752929688,32.28406292419434,198.15751752929688,35.89926292419433C198.15751752929688,32.14176292419434,198.15751752929688,28.730252924194335,198.15751752929688,25.315902924194337C198.15751752929688,22.269771924194337,198.15751752929688,22.269771924194337,201.24211752929688,22.269771924194337C203.97761752929688,22.269771924194337,203.97761752929688,22.269771924194337,203.97761752929688,24.970002924194336C203.97761752929688,31.106902924194337,203.95541752929688,37.240962924194335,203.99981752929688,43.37786292419433C204.00811752929687,44.343062924194335,203.73931752929687,44.510462924194336,202.79701752929688,44.63596292419433C199.6679175292969,45.04606292419433,197.51171752929687,44.05296292419433,195.69081752929688,41.30256292419433C193.35171752929688,37.76826292419433,190.49705752929688,34.58266292419434,187.62577752929687,30.945112924194333Z" fill="#0E0333" fill-opacity="1"/></g><g><path d="M76.99295854492188,36.34555138549805C75.73185854492188,36.34555138549805,74.58175854492188,36.317651385498046,73.43435854492188,36.35675138549804C72.80515854492188,36.379051385498045,72.57515854492188,36.222851385498046,72.54185854492188,35.52265138549805C72.37835854492188,32.122271385498046,72.35345854492188,32.122271385498046,75.74025854492187,32.122271385498046C77.95745854492188,32.122271385498046,80.17185854492188,32.15575138549805,82.38625854492187,32.10554138549804C83.19555854492188,32.08601138549805,83.40345854492188,32.364951385498046,83.38405854492187,33.14325138549805C83.26485854492188,37.54505138549805,82.01765854492187,41.37505138549805,77.74125854492188,43.35005138549805C73.40935854492187,45.35005138549805,69.12185854492188,45.138051385498045,65.20849854492188,42.18955138549805C61.849440544921876,39.659451385498045,60.472003544921876,34.309251385498044,61.852210544921874,29.628461385498046C63.06889854492187,25.494421385498047,66.73836854492187,22.618452385498045,71.16722854492187,22.319975685498047C75.38265854492188,22.038237385498046,79.01885854492187,23.059195385498047,81.51875854492188,26.822231385498046C82.13125854492188,27.742761385498046,82.28375854492188,28.314611385498047,81.00885854492188,28.638191385498047C80.47945854492187,28.772091385498047,79.98615854492188,29.053831385498047,79.47345854492187,29.26304138549805C78.75005854492187,29.558731385498046,78.02395854492187,30.074781385498046,77.29775854492188,30.077571385498047C76.50235854492188,30.080361385498048,76.48575854492188,28.981301385498046,75.97025854492188,28.468031385498048C74.62325854492187,27.126281385498046,73.02965854492187,26.763651385498047,71.26422854492188,27.187651385498047C69.11631854492188,27.703711385498046,67.93287854492188,29.240731385498048,67.37580854492188,31.29937138549805C66.98225854492188,32.75825138549805,67.01551854492187,34.24225138549805,67.36194854492187,35.712351385498046C68.19894854492188,39.24945138549805,72.28695854492187,40.939851385498045,75.39935854492188,39.043051385498046C76.33055854492187,38.47395138549805,76.79335854492187,37.60645138549805,76.99295854492188,36.34555138549805Z" fill="#0E0333" fill-opacity="1"/></g><g><path d="M135.2443840698242,29.787467373657226C132.16798406982423,26.638117373657227,128.42094406982423,27.221127373657225,126.40605406982422,29.276987373657228C124.34682406982422,31.380267373657226,124.33851406982421,35.316267373657226,126.40051406982423,37.539467373657224C128.6454340698242,39.96076737365723,132.0432840698242,39.849167373657224,135.24158406982423,37.08476737365723C135.24158406982423,39.21596737365722,135.2443840698242,41.17696737365723,135.24158406982423,43.137967373657226C135.24158406982423,43.642867373657225,134.81758406982422,43.67076737365723,134.4849840698242,43.80186737365723C128.29621406982423,46.23996737365722,121.47554406982422,42.98176737365723,119.59092606982422,36.688667373657225C117.67304406982421,30.28399737365723,121.45060406982422,23.851407373657228,127.97749406982422,22.467818373657227C130.1946840698242,21.996392373657226,132.37868406982423,22.264183873657228,134.5098840698242,23.025718373657227C134.9893840698242,23.195877373657225,135.27208406982422,23.388357373657225,135.2582840698242,23.98530737365723C135.2194840698242,25.837537373657227,135.2443840698242,27.689767373657226,135.2443840698242,29.787467373657226Z" fill="#0E0333" fill-opacity="1"/></g><g><path d="M104.4806971875,35.980181161499026C104.4806971875,33.47238116149902,104.4280371875,30.961851161499023,104.5056371875,28.454091161499022C104.5388971875,27.435921161499024,104.1980071875,27.237871161499022,103.2667771875,27.260181161499023C102.1360071875,27.285291161499025,100.3539251875,27.795771161499022,99.9991731875,27.062131161499025C99.4337841875,25.890541161499023,99.8079391875,24.267051161499023,99.7608278875,22.833249161499023C99.7414253875,22.283717561499024,100.0573811875,22.264191151499023,100.4647921875,22.264191151499023C105.0821171875,22.269769161499024,109.6967171875,22.275349361499025,114.3140171875,22.258613084799023C114.8572171875,22.255822991499024,115.0817171875,22.437141161499024,115.0124171875,22.975514161499024C115.0069171875,23.020147161499022,115.0124171875,23.067568161499022,115.0124171875,23.11498916149902C115.0013171875,24.414891161499025,115.4558171875,26.027231161499024,114.8544171875,26.931021161499025C114.1920171875,27.929661161499023,112.4792171875,27.21555116149902,111.2348171875,27.257391161499022C110.3923171875,27.285291161499025,110.2842171875,27.594921161499023,110.2897171875,28.317401161499024C110.3147171875,33.335681161499025,110.2787171875,38.35398116149902,110.32581718750001,43.36958116149903C110.3341171875,44.32358116149902,110.1207171875,44.68058116149902,109.1229671875,44.60808116149902C107.8841071875,44.51598116149903,106.6286071875,44.54108116149902,105.3869771875,44.60248116149903C104.6303571875,44.638781161499026,104.4612971875,44.354281161499024,104.4696071875,43.64848116149902C104.5028771875,41.09328116149902,104.4806971875,38.535381161499025,104.4806971875,35.980181161499026Z" fill="#0E0333" fill-opacity="1"/></g><g><path d="M88.40597735185547,33.330131915283204C88.40597735185547,29.988311915283205,88.43923405185546,26.646491915283203,88.38380908685546,23.304671915283205C88.36995495185546,22.417611915283203,88.63324315185547,22.202821615283202,89.46746315185547,22.247452515283204C90.75621315185546,22.317190015283202,92.05051315185547,22.311611915283205,93.33926315185546,22.250242615283202C94.09588315185547,22.213979915283204,94.24277315185547,22.501297915283203,94.24277315185547,23.198672915283204C94.22060315185547,30.021791915283202,94.21783315185547,36.844931915283205,94.24277315185547,43.66803191528321C94.24554315185547,44.401631915283204,94.03490315185547,44.633231915283204,93.30600315185546,44.5997319152832C92.01725315185547,44.5439319152832,90.72019315185547,44.5216319152832,89.43421315185547,44.6053319152832C88.52515815185546,44.663831915283204,88.38104333185547,44.304031915283204,88.38935750185547,43.49503191528321C88.42815415185547,40.108631915283205,88.40597735185547,36.719331915283206,88.40597735185547,33.330131915283204Z" fill="#0E0333" fill-opacity="1"/></g><g><path d="M175.70832573730468,33.48352453613281C175.70832573730468,36.82532453613281,175.6833757373047,40.167224536132814,175.7277257373047,43.50902453613281C175.7388057373047,44.33752453613281,175.5586657373047,44.66382453613281,174.6690057373047,44.60812453613281C173.38302573730468,44.52722453613281,172.0859657373047,44.54392453613281,170.7972287373047,44.60252453613281C170.05169373730467,44.63592453613281,169.8715395691047,44.37092453613281,169.87431377730468,43.65682453613282C169.8964905373047,36.83372453613281,169.8992647373047,30.010624536132813,169.8715395691047,23.190302536132812C169.86876535730468,22.46782253613281,170.0489197373047,22.219555636132814,170.7889067373047,22.255820466132814C172.0776657373047,22.317189736132814,173.3747257373047,22.328348036132812,174.66068573730468,22.253030366132812C175.51708573730468,22.202819336132812,175.74433573730468,22.45945253613281,175.7304857373047,23.32419453613281C175.6778457373047,26.705074536132813,175.70832573730468,30.094314536132813,175.70832573730468,33.48352453613281Z" fill="#0E0333" fill-opacity="1"/></g><g><path d="M39.07323015576172,23.65614734680176C40.25112215576172,22.378557346801756,41.50938215576172,21.19023734680176,42.85910215576172,20.102327346801758C45.58903215576172,23.98809734680176,47.10504215576172,28.28671734680176,47.05793215576172,33.07072734680176C47.01358215576172,37.50042734680176,45.62229215576172,41.514527346801756,43.163962155761716,45.166027346801755C41.74773215576172,44.10592734680176,40.33426215576172,43.04592734680176,38.91802215576172,41.98592734680176C38.95405305576172,41.34432734680176,39.40857915576172,40.898027346801754,39.68018515576172,40.373627346801754C42.343602155761715,35.25212734680176,42.19116215576172,30.152927346801757,39.59149515576172,25.064847346801756C39.36423415576172,24.612947346801757,39.02888515576172,24.208467346801758,39.07323015576172,23.65614734680176Z" fill="#15EAB6" fill-opacity="1"/></g><g><path d="M43.1644,45.16528828125C44.2065,45.99378828125,45.2347,46.84738828125,46.3018,47.64508828125C46.8755,48.07188828125,47.1249,48.57678828125,47.1193,49.29368828125C47.0999,52.35938828125,47.1055,55.42508828125,47.1138,58.49068828125C47.1166,59.43638828125,46.7452,59.99148828125,45.7281,59.97468828125C43.1513,59.93128828125,40.5732,59.95308828125,37.9953,59.97488828125C33.2808,60.01478828125,28.567,60.05468828125,23.8637,59.69578828125C12.1541,58.80318828125,1.7443,48.43738828125,0.231061,36.70748828125C-1.26832,25.11158828125,4.63498,13.55748828125,15.078,8.53635828125C15.6434,8.26577828125,15.8984,7.93939828125,15.8928,7.26992828125C15.8806,6.00396828125,15.9151,4.73648828125,15.9496,3.46861828125C15.9619,3.01834828125,15.9741,2.56803828125,15.9843,2.11771828125C16.0148,0.79270628125,16.63,0.02001538125,17.6638,0.00048828125C18.7752,-0.01903771875,19.4209,0.77039028125,19.4237,2.17071828125C19.4244,2.46806828125,19.4264,2.76540828125,19.4285,3.06271828125C19.4351,4.02052828125,19.4417,4.97794828125,19.4015,5.93375828125C19.3711,6.67296828125,19.6371,6.84033828125,20.2746,6.60044828125C20.3605,6.56696828125,20.4492,6.53628828125,20.5351,6.50838828125C20.9737,6.36953828125,21.4842,6.33422828125,21.984,6.29965828125C22.8297,6.24115828125,23.645,6.18476828125,24.03,5.63248828125C24.4655,5.00653828125,24.3917,4.00949828125,24.3193,3.03242828125C24.2927,2.67275828125,24.2663,2.31578828125,24.2655,1.98102828125C24.2628,0.78991728125,24.8475,0.07301588125,25.97,0.05906848125C27.1008,0.04512098125,27.7216,0.77318028125,27.7244,1.94476828125C27.7249,2.13376828125,27.7261,2.32276828125,27.7272,2.51173828125C27.7321,3.29898828125,27.7369,4.08587828125,27.6967,4.87095828125C27.6634,5.54601828125,27.8131,5.82217828125,28.578,5.87238828125C35.601,6.34659828125,41.496,9.24767828125,46.3932,14.31618828125C47.2773,15.23118828125,47.2884,15.88948828125,46.3461,16.73188828125C45.1405,17.80588828125,44.018,18.97468828125,42.8595,20.10158828125C42.4743,21.23978828125,41.277,21.59678828125,40.6008,22.46708828125C40.1795,23.00828828125,39.6391,23.46018828125,39.1679,23.96508828125C37.7184,25.18688828125,36.4186,26.57888828125,34.9247,27.74488828125C34.2319,28.28598828125,34.0961,28.76578828125,34.4286,29.63058828125C35.2878,31.88448828125,35.31,34.19978828125,34.2235,36.38948828125C33.7274,37.38538828125,34.0268,37.90698828125,34.7972,38.47608828125C36.1747,39.49138828125,37.5494,40.50958828125,38.8935,41.56678828125C40.2433,42.84998828125,42.0087,43.64218828125,43.1644,45.16528828125ZM15.7902,13.77828828125C15.7902,14.54958828125,15.7899,15.31998828125,15.7896,16.08988828125L15.7896,16.08988828125C15.789,17.62918828125,15.7884,19.16488828125,15.7902,20.70178828125C15.793,22.12718828125,16.411,22.89158828125,17.5335,22.87758828125C18.6449,22.86368828125,19.2546,22.07418828125,19.2629,20.66278828125C19.2671,19.87408828125,19.2738,19.08548828125,19.2806,18.29678828125L19.2806,18.29678828125C19.2961,16.48258828125,19.3116,14.66878828125,19.2962,12.85488828125C19.2906,12.12128828125,19.5262,11.80888828125,20.2385,11.60248828125C27.1395,9.61910828125,33.5472,10.61218828125,39.4838,14.69318828125C40.2709,15.23438828125,40.4427,15.63888828125,39.6224,16.38088828125C36.5321,19.17318828125,33.4779,22.01008828125,30.4598,24.88328828125C29.8817,25.43278828125,29.3993,25.30858828125,28.7878,25.15118828125C28.7661,25.14558828125,28.7441,25.13998828125,28.722,25.13428828125C24.3542,24.02408828125,20.1747,26.57368828125,19.0717,30.99508828125C18.0268,35.17928828125,20.5572,39.39978828125,24.7921,40.56018828125C25.7455,40.82248828125,26.7376,40.96188828125,27.6633,40.71368828125C28.7498,40.42358828125,29.4676,40.83358828125,30.2685,41.45568828125C33.9879,44.35118828125,37.7433,47.19918828125,41.482,50.06688828125C42.2498,50.65538828125,42.7708,54.05028828125,42.222,54.81458828125C42.0059,55.11588828125,41.6844,55.15208828125,41.3545,55.13818828125C39.0977,55.04948828125,36.8361,55.07998828125,34.575,55.11048828125C30.6469,55.16338828125,26.7205,55.21628828125,22.8243,54.64438828125C13.7199,53.31108828125,5.968,45.05408828125,4.97303,35.85158828125C4.00024,26.83868828125,7.21518,19.69478828125,14.5098,14.39748828125C14.8091,14.17998828125,15.1278,13.99308828125,15.4465,13.80338828125C15.4834,13.78308828125,15.5344,13.78328828125,15.6093,13.78348828125C15.6584,13.78358828125,15.7178,13.78378828125,15.7902,13.77828828125ZM29.9161,32.81668828125C29.8911,31.10948828125,28.5192,29.74268828125,26.8314,29.74268828125C25.0715,29.74548828125,23.6746,31.16528828125,23.7024,32.92268828125C23.7273,34.61588828125,25.0881,35.97438828125,26.7898,36.00228828125C28.5026,36.03018828125,29.941,34.56568828125,29.9161,32.81668828125Z" fill-rule="evenodd" fill="#0E0333" fill-opacity="1"/></g><g><path d="M162.88430107421874,38.80332883300781C167.13030107421875,31.042968833007812,161.58170107421876,22.236515933007812,154.25110107421875,22.261620373007812C149.13212107421876,22.24488193300781,146.09734107421875,23.318838833007813,143.79699107421874,25.943758833007813C140.65689307421874,29.531058833007812,140.07487507421874,33.693028833007816,141.93455107421875,38.005528833007816C143.77482107421875,42.27072883300781,147.31680107421874,44.36562883300781,151.87040107421876,44.58322883300781C156.61240107421875,44.80912883300781,160.53690107421875,43.09362883300781,162.88430107421874,38.80332883300781ZM158.54460107421875,33.397628833007815C158.54460107421875,30.111558833007813,155.96710107421876,27.584268833007812,152.61360107421876,27.575898833007813C149.27947107421875,27.567528833007813,146.67148107421875,30.10597883300781,146.65487107421876,33.37802883300781C146.63546107421874,36.675228833007814,149.20464107421876,39.26392883300781,152.51940107421876,39.28622883300781C155.90340107421875,39.30852883300781,158.54460107421875,36.72822883300781,158.54460107421875,33.397628833007815Z" fill-rule="evenodd" fill="#0E0333" fill-opacity="1"/></g></g></svg>