<svg xmlns="http://www.w3.org/2000/svg" xmlns:xlink="http://www.w3.org/1999/xlink" fill="none" version="1.1" width="192" height="50" viewBox="0 0 192 50"><defs><mask id="master_svg0_3055_6034"><g style="mix-blend-mode:passthrough"><rect x="0" y="0" width="191.99998474121094" height="50" rx="0" fill="#FFFFFF" fill-opacity="1"/></g></mask></defs><g style="mix-blend-mode:passthrough" mask="url(#master_svg0_3055_6034)"><g style="mix-blend-mode:passthrough"><g><path d="M0,39.1894L0,0L4.7055,0L4.7055,11.84L27.8197,11.84L27.8197,0L32.4934,0L32.4934,39.1894L27.8197,39.1894L27.8197,15.9138L4.7055,15.9138L4.7055,39.1894L0,39.1894Z" fill="#1F262E" fill-opacity="1"/></g><g><path d="M36.555030822753906,24.3895217880249C36.555030822753906,24.351121788024905,36.555030822753906,24.2839217880249,36.555030822753906,24.1879217880249C36.555030822753906,24.0919217880249,36.555030822753906,24.015121788024903,36.555030822753906,23.957621788024902C36.555030822753906,13.841611788024903,41.28836082275391,8.783621788024902,50.75503082275391,8.783621788024902C52.736930822753905,8.783621788024902,54.5343308227539,9.066756788024902,56.14733082275391,9.633013788024902C57.76013082275391,10.199281788024901,59.04103082275391,10.866321788024901,59.9898308227539,11.634141788024902C60.93863082275391,12.401951788024903,61.771430822753906,13.404921788024902,62.488230822753906,14.643021788024903C63.2051308227539,15.881131788024902,63.7163308227539,16.932071788024903,64.02213082275391,17.7958817880249C64.32783082275391,18.6596717880249,64.56503082275391,19.705821788024902,64.7337308227539,20.934321788024903C64.9024308227539,22.124421788024904,64.98663082275391,22.8730217880249,64.98663082275391,23.180121788024902L64.98663082275391,24.4470217880249L64.8601308227539,26.520121788024902L41.2989108227539,26.520121788024902C41.59408082275391,29.4762217880249,42.58503082275391,31.621321788024904,44.27175082275391,32.95542178802491C45.958430822753904,34.2895217880249,48.456930822753904,34.9565217880249,51.767130822753906,34.9565217880249C56.468730822753905,34.9565217880249,59.61033082275391,34.9565217880249,62.488230822753906,34.9565217880249L61.7278308227539,39.189121788024906C58.8498308227539,39.189121788024906,55.96283082275391,39.189121788024906,51.51403082275391,39.189121788024906C51.45083082275391,39.189121788024906,51.3875308227539,39.189121788024906,51.32433082275391,39.189121788024906C49.42673082275391,39.189121788024906,47.68733082275391,38.98282178802491,46.10605082275391,38.570121788024906C44.52475082275391,38.157421788024905,42.96981082275391,37.4424217880249,41.44123082275391,36.42502178802491C39.9126508227539,35.4076217880249,38.71614082275391,33.8768217880249,37.85169082275391,31.832521788024902C36.98725382275391,29.788221788024902,36.555030822753906,27.3071217880249,36.555030822753906,24.3895217880249ZM41.2989108227539,22.748321788024903L60.211230822753905,22.748321788024903C60.211230822753905,22.076421788024902,60.12153082275391,21.327821788024902,59.9423308227539,20.502421788024904C59.76313082275391,19.677021788024902,59.404730822753905,18.616491788024902,58.86713082275391,17.320791788024902C58.329430822753906,16.025091788024902,57.35963082275391,14.945341788024901,55.95753082275391,14.081551788024903C54.555430822753905,13.217761788024902,52.821230822753904,12.785871788024902,50.75503082275391,12.785871788024902C47.55033082275391,12.785871788024902,45.225800822753904,13.544091788024902,43.781540822753904,15.060521788024904C42.3373008227539,16.576961788024903,41.50975082275391,19.139621788024904,41.2989108227539,22.748321788024903Z" fill="#1F262E" fill-opacity="1"/></g><g><path d="M67.69451904296875,23.5922906124115C67.69451904296875,20.6654906124115,68.13151204296875,18.176690612411498,69.00550904296875,16.1259906124115C69.87950904296875,14.075290612411498,71.08924904296875,12.5396906124115,72.63473904296875,11.5191306124115C74.18021904296874,10.498570612411498,75.75233904296874,9.7813006124115,77.35111904296875,9.367310612411499C78.94991904296874,8.9533106124115,80.70861904296875,8.746320612411498,82.62711904296876,8.746320612411498C85.50491904296875,8.746320612411498,88.21211904296875,9.1218106124115,90.74881904296875,9.872770612411498L90.74881904296875,1.661090612411499L95.44931904296875,1.661090612411499L95.44931904296875,29.917790612411498C95.44931904296875,30.707190612411498,95.32131904296875,31.5159906124115,95.06551904296875,32.3439906124115C94.80971904296875,33.1719906124115,94.27681904296875,34.1587906124115,93.46681904296875,35.3043906124115C92.65671904296875,36.4501906124115,91.27111904296875,37.3840906124115,89.30991904296874,38.106190612411496C87.34871904296875,38.8282906124115,84.92931904296876,39.1892906124115,82.05151904296875,39.1892906124115C80.83641904296874,39.1892906124115,79.64811904296874,39.0929906124115,78.48621904296876,38.9004906124115C77.32444904296875,38.7078906124115,76.06676904296874,38.2745906124115,74.71314904296875,37.6006906124115C73.35951904296876,36.9266906124115,72.19240904296875,36.0505906124115,71.21182904296874,34.9722906124115C70.23124904296876,33.8939906124115,69.39986904296875,32.377590612411495,68.71773904296874,30.4231906124115C68.03558904296875,28.4687906124115,67.69451904296875,26.1918906124115,67.69451904296875,23.5922906124115ZM72.39490904296875,23.5922906124115C72.39490904296875,26.076290612411498,72.69335904296875,28.1558906124115,73.29022904296875,29.8310906124115C73.88710904296875,31.506290612411497,74.70780904296875,32.709790612411496,75.75233904296874,33.4414906124115C76.79683904296876,34.1732906124115,77.79871904296876,34.6642906124115,78.75801904296875,34.9144906124115C79.71731904296875,35.1648906124115,80.81511904296875,35.2900906124115,82.05151904296875,35.2900906124115C87.84971904296876,35.2900906124115,90.74881904296875,33.5570906124115,90.74881904296875,30.0910906124115L90.74881904296875,14.118590612411499C88.08421904296875,13.1365906124115,85.37701904296875,12.6455906124115,82.62711904296876,12.6455906124115C79.04581904296874,12.6455906124115,76.44514904296875,13.5120906124115,74.82504904296874,15.245090612411499C73.20495904296875,16.9780906124115,72.39490904296875,19.7604906124115,72.39490904296875,23.5922906124115Z" fill="#1F262E" fill-opacity="1"/></g><g><path d="M98.83391571044922,23.834021788024902C98.83391571044922,20.770421788024905,99.28440771044922,18.171021788024902,100.18539571044921,16.035981788024902C101.08636571044921,13.900961788024903,102.29640571044922,12.345181788024902,103.81550571044922,11.368621788024903C105.33459571044922,10.392071788024902,106.78035571044921,9.717089788024902,108.15276571044922,9.343705788024902C109.52521571044922,8.970320788024903,110.96571571044922,8.783621788024902,112.47431571044922,8.783621788024902C115.21921571044922,8.783621788024902,117.52401571044922,9.133077788024902,119.38881571044922,9.831971788024902C121.25361571044922,10.530901788024902,122.56321571044921,11.430851788024903,123.31761571044922,12.531881788024902C124.07181571044921,13.632891788024903,124.58001571044922,14.585511788024903,124.84191571044921,15.389741788024903C125.10381571044923,16.1939617880249,125.23471571044922,16.9886017880249,125.23471571044922,17.773681788024902L125.23471571044922,39.8897217880249C125.23471571044922,41.1918217880249,125.03051571044922,42.3886217880249,124.62181571044923,43.4800217880249C124.21331571044922,44.5715217880249,123.53761571044922,45.6391217880249,122.59461571044922,46.6826217880249C121.65171571044922,47.726121788024905,120.21121571044922,48.5400217880249,118.27311571044922,49.124021788024905C116.33491571044922,49.7080217880249,113.99351571044922,50.0000217880249,111.24851571044923,50.0000217880249C108.25233571044922,50.0000217880249,105.97960571044922,50.0000217880249,102.87855571044922,50.0000217880249L101.94544571044922,46.0076217880249C105.04649571044922,46.0076217880249,107.72847571044922,46.0076217880249,110.74571571044922,46.0076217880249C112.79911571044921,46.0076217880249,114.52251571044921,45.8401217880249,115.91591571044921,45.505021788024905C117.30921571044922,45.1699217880249,118.32021571044922,44.691221788024905,118.94891571044921,44.0689217880249C119.57741571044922,43.4466217880249,120.00691571044922,42.8290217880249,120.23741571044923,42.2163217880249C120.46791571044922,41.6036217880249,120.58311571044922,40.866321788024905,120.58311571044922,40.0047217880249L120.58311571044922,37.0750217880249C118.17361571044921,37.7835217880249,115.65921571044922,38.137721788024905,113.04011571044921,38.137721788024905C111.61521571044922,38.137721788024905,110.28481571044922,38.027721788024905,109.04851571044922,37.8075217880249C107.81228571044922,37.587221788024905,106.54987571044921,37.1516217880249,105.26125571044922,36.5005217880249C103.97264571044921,35.8495217880249,102.86737571044922,35.0070217880249,101.94544571044922,33.9730217880249C101.02350571044921,32.9390217880249,100.27444571044921,31.560421788024904,99.69822271044922,29.837021788024902C99.12201771044921,28.113721788024904,98.83391571044922,26.112721788024903,98.83391571044922,23.834021788024902ZM103.45404571044922,23.834021788024902C103.45404571044922,26.036021788024904,103.71073571044921,27.850421788024903,104.22408571044922,29.276921788024904C104.73743571044922,30.7034217880249,105.49173571044922,31.7614217880249,106.48701571044921,32.45072178802491C107.48228571044922,33.1401217880249,108.48277571044922,33.599621788024905,109.48851571044922,33.8294217880249C110.49431571044921,34.0592217880249,111.67811571044922,34.174121788024905,113.04011571044921,34.174121788024905C115.61731571044922,34.174121788024905,118.13161571044921,33.7241217880249,120.58311571044922,32.824121788024904L120.58311571044922,17.601341788024904C120.58311571044922,14.307871788024903,117.88031571044922,12.661121788024902,112.47431571044922,12.661121788024902C111.32191571044922,12.661121788024902,110.29521571044921,12.785591788024902,109.39431571044922,13.034521788024902C108.49324571044922,13.283441788024902,107.55037571044922,13.762141788024902,106.56558571044921,14.470631788024903C105.58078571044922,15.179111788024901,104.81601571044922,16.327991788024903,104.27123571044922,17.9173017880249C103.72645571044922,19.5066217880249,103.45404571044922,21.478821788024902,103.45404571044922,23.834021788024902Z" fill="#1F262E" fill-opacity="1"/></g><g transform="matrix(0.8095395565032959,0.5870652794837952,-0.5885051488876343,0.808493435382843,26.861531665001564,-71.30863762313973)"><rect x="123.33489990234375" y="5.728262424468994" width="4.059045314788818" height="6.761164665222168" rx="0" fill="#1F262E" fill-opacity="1"/></g><g><path d="M130.65032958984375,26.415265980529785L130.65032958984375,9.459465980529785L135.30035958984374,9.459465980529785L135.30035958984374,26.644365980529784C135.30035958984374,29.623065980529784,136.01737958984376,31.804565980529784,137.45139958984376,33.18896598052979C138.88543958984374,34.573365980529786,141.13132958984374,35.265365980529786,144.18912958984376,35.265365980529786C147.20482958984374,35.265365980529786,149.44032958984374,34.573365980529786,150.89542958984376,33.18896598052979C152.35052958984375,31.804565980529784,153.07802958984377,29.623065980529784,153.07802958984377,26.644365980529784L153.07802958984377,9.459465980529785L157.72812958984375,9.459465980529785L157.72812958984375,26.415265980529785C157.72812958984375,30.482265980529785,156.55242958984374,33.628165980529786,154.20102958984376,35.85256598052979C151.84962958984374,38.07706598052978,148.51242958984375,39.189365980529786,144.18912958984376,39.189365980529786C139.86605958984376,39.189365980529786,136.52879958984374,38.07706598052978,134.17739958984376,35.85256598052979C131.82600958984375,33.628165980529786,130.65032958984375,30.482265980529785,130.65032958984375,26.415265980529785Z" fill="#1F262E" fill-opacity="1"/></g><g><path d="M161.98593139648438,24.3895217880249C161.98593139648438,24.351121788024905,161.98593139648438,24.2839217880249,161.98593139648438,24.1879217880249C161.98593139648438,24.0919217880249,161.98593139648438,24.015121788024903,161.98593139648438,23.957621788024902C161.98593139648438,13.841611788024903,166.71926139648437,8.783621788024902,176.18593139648436,8.783621788024902C178.16783139648436,8.783621788024902,179.96523139648437,9.066756788024902,181.57823139648437,9.633013788024902C183.1910313964844,10.199281788024901,184.47193139648436,10.866321788024901,185.42073139648437,11.634141788024902C186.36953139648438,12.401951788024903,187.20223139648436,13.404921788024902,187.91913139648437,14.643021788024903C188.63603139648438,15.881131788024902,189.1473313964844,16.932071788024903,189.45303139648436,17.7958817880249C189.75873139648436,18.6596717880249,189.99593139648437,19.705821788024902,190.16463139648437,20.934321788024903C190.33333139648437,22.124421788024904,190.41753139648438,22.8730217880249,190.41753139648438,23.180121788024902L190.41753139648438,24.4470217880249L190.29103139648439,26.520121788024902L166.72982139648437,26.520121788024902C167.02499139648438,29.4762217880249,168.01593139648438,31.621321788024904,169.70265139648438,32.95542178802491C171.38932139648438,34.2895217880249,173.8878313964844,34.9565217880249,177.19803139648437,34.9565217880249C181.89963139648438,34.9565217880249,185.04123139648436,34.9565217880249,187.91913139648437,34.9565217880249L187.15873139648437,39.189121788024906C184.28073139648438,39.189121788024906,181.39373139648438,39.189121788024906,176.94503139648438,39.189121788024906C176.88173139648438,39.189121788024906,176.81843139648439,39.189121788024906,176.75523139648436,39.189121788024906C174.85763139648438,39.189121788024906,173.11823139648436,38.98282178802491,171.53695139648437,38.570121788024906C169.95565139648437,38.157421788024905,168.40071139648438,37.4424217880249,166.87213139648438,36.42502178802491C165.34355139648437,35.4076217880249,164.14704139648438,33.8768217880249,163.28259139648438,31.832521788024902C162.4181473964844,29.788221788024902,161.98593139648438,27.3071217880249,161.98593139648438,24.3895217880249ZM166.72982139648437,22.748321788024903L185.6421313964844,22.748321788024903C185.6421313964844,22.076421788024902,185.55243139648437,21.327821788024902,185.37323139648439,20.502421788024904C185.19403139648438,19.677021788024902,184.83563139648436,18.616491788024902,184.29803139648436,17.320791788024902C183.7603313964844,16.025091788024902,182.79053139648437,14.945341788024901,181.38843139648438,14.081551788024903C179.9863313964844,13.217761788024902,178.25213139648437,12.785871788024902,176.18593139648436,12.785871788024902C172.98123139648436,12.785871788024902,170.65669139648438,13.544091788024902,169.21244139648437,15.060521788024904C167.7682013964844,16.576961788024903,166.94065139648438,19.139621788024904,166.72982139648437,22.748321788024903Z" fill="#1F262E" fill-opacity="1"/></g></g></g></svg>