<svg xmlns="http://www.w3.org/2000/svg" xmlns:xlink="http://www.w3.org/1999/xlink" fill="none" version="1.1" width="227" height="50" viewBox="0 0 227 50"><defs><mask id="master_svg0_836_1526/348_3023"><g style="mix-blend-mode:passthrough"><rect x="0" y="0" width="227" height="50" rx="0" fill="#FFFFFF" fill-opacity="1"/></g></mask></defs><g style="mix-blend-mode:passthrough"><g><g style="mix-blend-mode:passthrough"><g><g style="mix-blend-mode:passthrough"><g><g style="mix-blend-mode:passthrough"></g></g><g mask="url(#master_svg0_836_1526/348_3023)"><g style="mix-blend-mode:passthrough"><path d="M174.38541911621093,2.857421875C172.68291911621094,2.857421875,171.30471911621095,4.223491875,171.30471911621095,5.910991875000001C171.30471911621095,7.598491875,172.68291911621094,8.964561875000001,174.38541911621093,8.964561875000001C176.08791911621094,8.964561875000001,177.46611911621093,7.598491875,177.46611911621093,5.910991875000001C177.46611911621093,4.223491875,176.08791911621094,2.857421875,174.38541911621093,2.857421875ZM109.85201911621094,13.866021875C107.66311911621094,11.294641875,104.42021911621094,9.687501874999999,100.85311911621093,9.687501874999999C94.36731911621094,9.687501874999999,89.09771911621094,14.910721875,89.17878911621094,21.419621875C89.17878911621094,27.767821875,94.36731911621094,32.991021875,100.85311911621093,32.991021875C104.50131911621094,32.991021875,107.74411911621094,31.383921875,109.85201911621094,28.812521875L113.50021911621094,32.428521875C110.41951911621094,35.883921875,105.87951911621093,38.053521875,100.85311911621093,38.053521875C91.52985911621094,38.053521875,83.99021911621094,30.580321875,83.99021911621094,21.339321875C83.99021911621094,12.098211875,91.52985911621094,4.625001875,100.85311911621093,4.625001875C105.87951911621093,4.625001875,110.41951911621094,6.794641875,113.50021911621094,10.250001874999999L109.85201911621094,13.866021875ZM188.24921911621095,16.758921875L188.24921911621095,30.500021875C188.24921911621095,31.464321875,188.97821911621094,32.508921875,190.35621911621092,32.589321874999996L191.97821911621094,32.589321874999996L191.97821911621094,37.008921875L189.30221911621095,37.008921875C185.97921911621094,37.008921875,183.38451911621092,34.437521875,183.30341911621093,31.303521875L183.30341911621093,16.758921875L179.89841911621093,16.758921875L179.89841911621093,12.017851875L183.30341911621093,12.017851875L183.30341911621093,4.625001875L188.24921911621095,4.625001875L188.24921911621095,12.017851875L191.65421911621092,12.017851875L191.65421911621092,16.758921875L188.24921911621095,16.758921875ZM226.59521911621093,4.625001875L221.56821911621094,4.625001875L221.56821911621094,37.008921875L226.59521911621093,37.008921875L226.59521911621093,4.625001875ZM134.82261911621094,11.937501875L139.84901911621094,11.937501875L139.84901911621094,37.008921875L134.82261911621094,37.008921875L134.82261911621094,34.758921875C132.63361911621092,36.366021875,129.95831911621093,37.330321875,127.03971911621093,37.330321875C119.98651911621093,37.330321875,114.23041911621094,31.625021875,114.23041911621094,24.633921875C114.23041911621094,17.642821875,119.98651911621093,11.937501875,127.03971911621093,11.937501875C129.95831911621093,11.937501875,132.63361911621092,12.901821875,134.82261911621094,14.508921875L134.82261911621094,11.937501875ZM148.11821911621092,14.508921875C150.30711911621094,12.901821875,152.98251911621094,11.937501875,155.90111911621094,11.937501875C163.03531911621093,11.937501875,168.71031911621094,17.642821875,168.71031911621094,24.633921875C168.71031911621094,31.625021875,162.95431911621094,37.330321875,155.90111911621094,37.330321875C152.98251911621094,37.330321875,150.30711911621094,36.366021875,148.11821911621092,34.758921875L148.11821911621092,44.321421875L143.09181911621093,44.321421875L143.09181911621093,11.937501875L148.11821911621092,11.937501875L148.11821911621092,14.508921875ZM176.89751911621096,11.937501875L171.87111911621093,11.937501875L171.87111911621093,36.928621875L176.89751911621096,36.928621875L176.89751911621096,11.937501875ZM213.21721911621094,11.937501875L218.24321911621092,11.937501875L218.24321911621092,37.008921875L213.21721911621094,37.008921875L213.21721911621094,34.758921875C211.02821911621095,36.366021875,208.35321911621094,37.330321875,205.43421911621095,37.330321875C198.38121911621096,37.330321875,192.62521911621093,31.625021875,192.62521911621093,24.633921875C192.62521911621093,17.642821875,198.38121911621096,11.937501875,205.43421911621095,11.937501875C208.35321911621094,11.937501875,211.02821911621095,12.901821875,213.21721911621094,14.508921875L213.21721911621094,11.937501875ZM119.17571911621093,24.714521875C119.17571911621093,28.973521875,122.66181911621094,32.509221875,127.03971911621093,32.509221875C131.41751911621094,32.509221875,134.98471911621095,28.973521875,134.90361911621093,24.714521875C134.90361911621093,20.455621875,131.41751911621094,16.919921875,127.03971911621093,16.919921875C122.74291911621094,16.919921875,119.17571911621093,20.375321875,119.17571911621093,24.714521875ZM155.90101911621093,32.509221875C151.52311911621092,32.509221875,148.03711911621093,28.973521875,148.03711911621093,24.714521875C148.03711911621093,20.375321875,151.60421911621094,16.919921875,155.90101911621093,16.919921875C160.27891911621094,16.919921875,163.76491911621093,20.455621875,163.76491911621093,24.714521875C163.84601911621093,28.973521875,160.27891911621094,32.509221875,155.90101911621093,32.509221875ZM205.51621911621095,32.509221875C201.13821911621093,32.509221875,197.65221911621094,28.973521875,197.65221911621094,24.714521875C197.65221911621094,20.375321875,201.21921911621092,16.919921875,205.51621911621095,16.919921875C209.89421911621093,16.919921875,213.38021911621092,20.455621875,213.38021911621092,24.714521875C213.38021911621092,28.973521875,209.89421911621093,32.509221875,205.51621911621095,32.509221875Z" fill-rule="evenodd" fill="#565656" fill-opacity="1"/></g><g style="mix-blend-mode:passthrough"><path d="M5.675000000000134,3.982421875L1.342925743481535e-13,3.982421875L1.342925743481535e-13,37.812821875L5.675000000000134,37.812821875L5.675000000000134,3.982421875ZM22.538700000000134,3.982421875L10.134800000000135,3.982421875L10.134800000000135,37.812821875L22.538700000000134,37.812821875C32.02410000000013,37.812821875,39.725800000000135,30.259221875,39.725800000000135,20.937821875C39.725800000000135,11.616351875,32.02410000000013,3.982421875,22.538700000000134,3.982421875ZM73.12620000000013,37.812521875L60.72230000000013,37.812521875C51.15590000000014,37.812521875,43.53520000000014,30.258921875,43.53520000000014,20.937521875C43.53520000000014,11.616071875,51.236900000000134,4.062499975,60.72230000000013,4.062499975L73.12620000000013,4.062499975L73.12620000000013,9.687501874999999L61.04660000000013,9.687501874999999C54.641900000000135,9.687501874999999,49.53440000000013,14.669621875,49.53440000000013,20.937521875C49.53440000000013,27.125021875,54.723000000000134,32.187521875,61.04660000000013,32.187521875L67.45120000000013,32.187521875L67.45120000000013,18.928521875L73.12620000000013,18.928521875L73.12620000000013,37.812521875ZM15.808600000000135,32.187821875L22.213200000000136,32.187821875C28.536800000000135,32.187821875,33.725400000000135,27.125321875,33.725400000000135,20.857421875C33.725400000000135,14.669921875,28.536800000000135,9.607421875,22.213200000000136,9.607421875L15.808600000000135,9.607421875L15.808600000000135,32.187821875Z" fill-rule="evenodd" fill="#B02B33" fill-opacity="1"/></g></g></g></g></g></g></g></svg>