<svg xmlns="http://www.w3.org/2000/svg" xmlns:xlink="http://www.w3.org/1999/xlink" fill="none" version="1.1" width="170" height="50" viewBox="0 0 170 50"><defs><mask id="master_svg0_3051_4929"><g style="mix-blend-mode:passthrough"><rect x="0" y="0" width="170" height="50" rx="0" fill="#FFFFFF" fill-opacity="1"/></g></mask></defs><g style="mix-blend-mode:passthrough" mask="url(#master_svg0_3051_4929)"><g style="mix-blend-mode:passthrough"><g><path d="M167.72725487060546,44.925630623021725C167.53445487060546,44.95523062302172,167.34025487060546,44.97503062302172,167.14555487060545,44.984930623021725C165.09355487060546,44.984930623021725,163.04025487060545,44.975730623021725,160.98695487060547,44.99683062302172C160.59585487060548,45.02353062302172,160.22305487060547,44.826930623021724,160.02255487060546,44.488330623021724C156.69955487060548,39.75763062302172,153.35295487060546,35.04533062302173,150.03785487060546,30.302830623021723C149.73385487060546,29.86943062302172,149.41805487060546,29.73373062302172,148.91095487060548,29.73503062302172Q139.57615487060548,29.758730623021723,130.24404487060548,29.745530623021722L129.47619487060547,29.745530623021722L129.47619487060547,44.925630623021725L122.91405487060547,44.925630623021725L122.91405487060547,5.009230623021722L155.67225487060546,5.009230623021722C156.25145487060547,5.1001297230217215,156.83055487060545,5.1949806230217215,157.41105487060548,5.280609623021721C162.46895487060547,6.024920623021722,166.08155487060546,9.215600623021722,167.25295487060546,14.024020623021721C167.4796548706055,14.954080623021722,167.57265487060548,15.917130623021722,167.72725487060546,16.865630623021723L167.72725487060546,18.314730623021724C167.67575487060546,18.525830623021722,167.63505487060547,18.73953062302172,167.60545487060546,18.954930623021724C167.17565487060546,23.677730623021723,164.77775487060546,26.91323062302172,160.35795487060545,28.59023062302172C159.41195487060548,28.94853062302172,158.41605487060548,29.176430623021723,157.39405487060546,29.478130623021723C157.54205487060545,29.70473062302172,157.67835487060546,29.924730623021723,157.82385487060546,30.136830623021723Q160.57545487060548,34.14823062302172,163.31935487060548,38.15963062302172C164.78165487060548,40.28723062302172,166.2570548706055,42.40553062302172,167.72725487060546,44.52913062302172L167.72725487060546,44.925630623021725ZM129.48142487060548,23.742330623021722L138.16105487060548,23.742330623021722C143.40235487060548,23.742330623021722,148.64365487060547,23.742330623021722,153.88495487060547,23.715930623021723C154.69235487060547,23.70463062302172,155.49585487060546,23.601630623021723,156.28025487060546,23.40903062302172C159.70935487060547,22.586930623021722,161.39055487060546,19.97063062302172,160.89125487060548,16.41633062302172C160.51395487060546,13.759220623021722,159.01225487060546,12.130950623021722,156.47815487060547,11.474900623021721C155.50945487060545,11.213940623021722,154.51285487060548,11.072810623021722,153.51025487060548,11.054650623021722C145.64825487060546,11.015130623021722,137.78625487060546,11.023040623021721,129.92429487060548,11.019090623021722C129.77434487060546,11.030450623021721,129.62544487060546,11.052910623021722,129.47878487060547,11.086270623021722L129.48142487060548,23.742330623021722Z" fill="#48104A" fill-opacity="1"/></g><g><path d="M43.9013,5.009230623021722C42.1048,6.363490623021722,40.3162,7.725650623021721,38.5119,9.069380623021722Q31.4125,14.362580623021723,24.304,19.63203062302172C24.0983,19.784930623021722,23.8965,19.94433062302172,23.6357,20.144530623021723L46.117,44.94673062302172C45.7134,44.96513062302172,45.4854,44.98623062302172,45.2574,44.98623062302172C42.9866,44.98623062302172,40.7158,44.97173062302172,38.4437,44.99943062302172C37.9104,45.00603062302172,37.5632,44.82293062302172,37.212,44.43423062302172Q28.1537,34.43413062302172,19.0679,24.453630623021724C18.9225,24.29293062302172,18.7901,24.120330623021722,18.625,23.920130623021723L14.7805,26.769630623021722C12.2175,28.670630623021722,9.65974,30.580730623021722,7.08495,32.46593062302172C6.73363,32.68553062302172,6.53193,33.082530623021725,6.56082,33.49743062302172C6.58047,37.03063062302172,6.5713,40.56383062302172,6.5713,44.09703062302172L6.5713,44.829530623021725C6.47434,44.89933062302172,6.44027,44.94543062302172,6.4062,44.94543062302172Q3.20244,44.94543062302172,0,44.925630623021725L0,5.009230623021722L6.55164,5.009230623021722C6.55819,5.293783623021722,6.56999,5.5796516230217215,6.56999,5.864204623021722Q6.56999,15.349330623021721,6.56999,24.83443062302172L6.56999,25.739430623021722C6.89757,25.511530623021724,7.10722,25.373230623021723,7.30901,25.22303062302172Q16.0515,18.729730623021723,24.7914,12.231070623021722Q29.6396,8.628060623021721,34.4669,5.009230623021722L43.9013,5.009230623021722Z" fill="#48104A" fill-opacity="1"/></g><g><path d="M105.61772543945312,5.00922258C105.41202543945312,5.194973,105.22462543945312,5.404435,104.99792543945313,5.565154Q95.47312543945313,12.65921,85.94312543945313,19.7454C85.78722543945312,19.8613,85.64042543945313,19.9864,85.41902543945312,20.159L107.88192543945313,44.9257C107.54912543945312,44.952,107.34732543945313,44.9823,107.14422543945312,44.9823C104.80792543945313,44.9823,102.47162543945313,44.9731,100.13532543945313,44.9942C99.72262543945313,45.0106,99.32642543945312,44.8305,99.06612543945312,44.508Q89.99992543945312,34.5052,80.91152543945313,24.5195C80.75032543945312,24.3417,80.58262543945312,24.1704,80.38732543945312,23.9649C80.21832543945312,24.0769,80.05452543945313,24.1757,79.90252543945313,24.2877Q74.36772543945312,28.39,68.82763543945313,32.4857C68.51559543945312,32.6836,68.33690543945312,33.037800000000004,68.36246543945313,33.4079C68.37950543945313,36.9858,68.37164543945312,40.5651,68.37164543945312,44.1431L68.37164543945312,44.9257C68.12006543945313,44.948,67.91171543945312,44.9836,67.70468543945313,44.9849C65.97898543945313,44.9849,64.25327543945312,44.9652,62.52888443945312,44.9994C61.956271439453126,45.0113,61.787242209453126,44.844,61.78985742985312,44.2604C61.812130739453124,39.5178,61.802957539453125,34.7753,61.802957539453125,30.0327Q61.802957539453125,17.9788,61.802957539453125,5.924799C61.802957539453125,5.617853,61.830477339453125,5.312221,61.84488893945313,5.00263732L68.39653543945312,5.00263732C68.38523543945313,5.067123,68.37779543945312,5.132228,68.37425543945312,5.19761Q68.37425543945312,15.232,68.37425543945312,25.2652C68.38660543945312,25.3985,68.40938543945313,25.5306,68.44239543945312,25.6604C68.66253543945312,25.5089,68.82501543945313,25.4048,68.98093543945312,25.2889Q81.71342543945312,15.8328,94.44322543945313,6.37271C95.03422543945312,5.932703,95.59892543945313,5.458448,96.17552543945312,5L105.61772543945312,5.00922258Z" fill="#48104A" fill-opacity="1"/></g></g></g></svg>