<svg xmlns="http://www.w3.org/2000/svg" xmlns:xlink="http://www.w3.org/1999/xlink" fill="none" version="1.1" width="24" height="24" viewBox="0 0 24 24"><g style="mix-blend-mode:passthrough"><g><g style="mix-blend-mode:passthrough"><rect x="0" y="0" width="24" height="24" rx="0" fill="#D8D8D8" fill-opacity="0"/></g><g style="mix-blend-mode:passthrough"><g><g style="mix-blend-mode:passthrough"><rect x="2.25" y="6" width="16.5" height="16.5" rx="2.25" fill-opacity="0" stroke-opacity="1" stroke="#FFF5F5" stroke-width="1.5" fill="none" stroke-dasharray=""/></g><g style="mix-blend-mode:passthrough"><path d="M18.375,18L19.5,18Q20.432000000000002,18,21.091,17.341Q21.75,16.682000000000002,21.75,15.75L21.75,5.25Q21.75,4.318020000000001,21.091,3.6590100000000003Q20.432000000000002,3,19.5,3L9,3Q8.06802,3,7.40901,3.6590100000000003Q6.75,4.318020000000001,6.75,5.25L6.75,6.375L5.25,6.375L5.25,5.25Q5.25,3.6967,6.34835,2.59835Q7.4467,1.5,9,1.5L19.5,1.5Q21.0533,1.5,22.1517,2.59835Q23.25,3.6967,23.25,5.25L23.25,15.75Q23.25,17.3033,22.1517,18.4017Q21.0533,19.5,19.5,19.5L18.375,19.5L18.375,18Z" fill="#FFF5F5" fill-opacity="1" fill-rule="evenodd"/></g></g></g></g></g></svg>