<svg xmlns="http://www.w3.org/2000/svg" xmlns:xlink="http://www.w3.org/1999/xlink" fill="none" version="1.1" width="171" height="165" viewBox="0 0 171 165"><defs><linearGradient x1="0.5" y1="0" x2="0.5" y2="1" id="master_svg0_348_00800"><stop offset="0%" stop-color="#FFA177" stop-opacity="1"/><stop offset="100%" stop-color="#EF6A2D" stop-opacity="1"/></linearGradient><linearGradient x1="0.5" y1="0.5" x2="0.19411559402942657" y2="1" id="master_svg1_348_00813"><stop offset="0%" stop-color="#FFDBC3" stop-opacity="0.39838287234306335"/><stop offset="100%" stop-color="#E47B4C" stop-opacity="1"/></linearGradient><linearGradient x1="0.5" y1="0.13065235316753387" x2="0.3981577754020691" y2="0.7273587584495544" id="master_svg2_348_00797"><stop offset="0%" stop-color="#FFD7C4" stop-opacity="0.15671437978744507"/><stop offset="100%" stop-color="#E77F4F" stop-opacity="1"/></linearGradient><linearGradient x1="0.5" y1="0" x2="0.5" y2="1" id="master_svg3_348_00847"><stop offset="0%" stop-color="#FFFFFF" stop-opacity="0.18340253829956055"/><stop offset="100%" stop-color="#EC9269" stop-opacity="0.6817362308502197"/></linearGradient></defs><g style="opacity:0.23999999463558197;mix-blend-mode:passthrough"><g style="mix-blend-mode:passthrough"><path d="M114,99L171,65.5L114.371892,32L114,99Z" fill="#CA5824" fill-opacity="0.10000000149011612"/></g><g style="mix-blend-mode:passthrough"><path d="M114.68520000000001,99L58,132.0006L114.3154,165L171,132L114.68520000000001,99Z" fill-rule="evenodd" fill="#CA5824" fill-opacity="0.14152644574642181"/></g><g style="opacity:0.4000000059604645;mix-blend-mode:passthrough"><g style="mix-blend-mode:passthrough"><ellipse cx="56.90683364868164" cy="65.66789245605469" rx="32.51816177368164" ry="33.24992370605469" fill="url(#master_svg0_348_00800)" fill-opacity="1"/></g><g style="mix-blend-mode:passthrough"><path d="M56.22265625,66.6636546875L56.40670325,132.9988546875L112.99955625,99.6667546875L112.81495625,33.3310546875L56.22265625,66.6636546875Z" fill-rule="evenodd" fill="url(#master_svg1_348_00813)" fill-opacity="1"/></g><g style="mix-blend-mode:passthrough"><path d="M0.184616,99.6681078125L56.4077,133.00020781249998L56.2237,66.6645078125L0,33.3330078125L0.184616,99.6681078125Z" fill-rule="evenodd" fill="url(#master_svg2_348_00797)" fill-opacity="1"/></g><g style="mix-blend-mode:passthrough"><path d="M56.5929,0L0,33.3326L56.2237,66.6641L112.816,33.3321L56.5929,0Z" fill-rule="evenodd" fill="url(#master_svg3_348_00847)" fill-opacity="1"/></g></g></g></svg>