<svg xmlns="http://www.w3.org/2000/svg" xmlns:xlink="http://www.w3.org/1999/xlink" fill="none" version="1.1" width="328" height="200" viewBox="0 0 328 200"><defs><linearGradient x1="0.5" y1="0" x2="0.5" y2="1" id="master_svg0_348_00800"><stop offset="0%" stop-color="#FFA177" stop-opacity="1"/><stop offset="100%" stop-color="#EF6A2D" stop-opacity="1"/></linearGradient><linearGradient x1="0.5" y1="0.5" x2="0.19411559402942657" y2="1" id="master_svg1_348_00813"><stop offset="0%" stop-color="#FFDBC3" stop-opacity="0.39838287234306335"/><stop offset="100%" stop-color="#E47B4C" stop-opacity="1"/></linearGradient><linearGradient x1="0.5" y1="0.13065235316753387" x2="0.3981577754020691" y2="0.7273587584495544" id="master_svg2_348_00797"><stop offset="0%" stop-color="#FFD7C4" stop-opacity="0.15671437978744507"/><stop offset="100%" stop-color="#E77F4F" stop-opacity="1"/></linearGradient><linearGradient x1="0.5" y1="0" x2="0.5" y2="1" id="master_svg3_348_00847"><stop offset="0%" stop-color="#FFFFFF" stop-opacity="0.18340253829956055"/><stop offset="100%" stop-color="#EC9269" stop-opacity="0.6817362308502197"/></linearGradient><linearGradient x1="0.5" y1="0" x2="0.5" y2="1" id="master_svg4_348_00800"><stop offset="0%" stop-color="#FFA177" stop-opacity="1"/><stop offset="100%" stop-color="#EF6A2D" stop-opacity="1"/></linearGradient><linearGradient x1="0.5" y1="0.5" x2="0.19411559402942657" y2="1" id="master_svg5_348_00813"><stop offset="0%" stop-color="#FFDBC3" stop-opacity="0.39838287234306335"/><stop offset="100%" stop-color="#E47B4C" stop-opacity="1"/></linearGradient><linearGradient x1="0.5" y1="0.13065235316753387" x2="0.3981577754020691" y2="0.7273587584495544" id="master_svg6_348_00797"><stop offset="0%" stop-color="#FFD7C4" stop-opacity="0.15671437978744507"/><stop offset="100%" stop-color="#E77F4F" stop-opacity="1"/></linearGradient><linearGradient x1="0.5" y1="0" x2="0.5" y2="1" id="master_svg7_348_00847"><stop offset="0%" stop-color="#FFFFFF" stop-opacity="0.18340253829956055"/><stop offset="100%" stop-color="#EC9269" stop-opacity="0.6817362308502197"/></linearGradient></defs><g style="opacity:0.23999999463558197;mix-blend-mode:passthrough"><g style="mix-blend-mode:passthrough"><path d="M267.6983,104L207,139.0006L267.3023,174L328,139L267.6983,104Z" fill-rule="evenodd" fill="#CA5824" fill-opacity="0.14152644574642181"/></g><g style="mix-blend-mode:passthrough"><path d="M96.695,72L37,107.00059999999999L96.3056,142L156,107L96.695,72Z" fill-rule="evenodd" fill="#CA5824" fill-opacity="0.05000000074505806"/></g><g style="mix-blend-mode:passthrough"><path d="M96.1639,141L46,170.5005L95.8366,200L146,170.5L96.1639,141Z" fill-rule="evenodd" fill="#CA5824" fill-opacity="0.12152600288391113"/></g><g style="mix-blend-mode:passthrough"><path d="M268,104L328,69L268.391466,34L268,104Z" fill="#CA5824" fill-opacity="0.14152644574642181"/></g><g style="opacity:0.3970000147819519;mix-blend-mode:passthrough"><g style="mix-blend-mode:passthrough"><ellipse cx="207.43792724609375" cy="69.12493515014648" rx="35.10784912109375" ry="34.999935150146484" fill="url(#master_svg0_348_00800)" fill-opacity="1"/></g><g style="mix-blend-mode:passthrough"><path d="M206.701171875,70.17297564697266L206.899875875,139.99897564697267L267.999771875,104.91307564697266L267.800371875,35.085975646972656L206.701171875,70.17297564697266Z" fill-rule="evenodd" fill="url(#master_svg1_348_00813)" fill-opacity="1"/></g><g style="mix-blend-mode:passthrough"><path d="M146.199319,104.9134140625L206.8999,139.9999140625L206.7012,70.1727140625L146,35.0869140625L146.199319,104.9134140625Z" fill-rule="evenodd" fill="url(#master_svg2_348_00797)" fill-opacity="1"/></g><g style="mix-blend-mode:passthrough"><path d="M207.0999,-7.105427357601002e-15L146,35.086999999999996L206.7012,70.1728L267.8,35.08639999999999L207.0999,-7.105427357601002e-15Z" fill-rule="evenodd" fill="url(#master_svg3_348_00847)" fill-opacity="1"/></g></g><g style="opacity:0.4000000059604645;mix-blend-mode:passthrough"><g style="mix-blend-mode:passthrough"><ellipse cx="48.34463310241699" cy="113.8055191040039" rx="27.625883102416992" ry="27.749855041503906" fill="url(#master_svg4_348_00800)" fill-opacity="1"/></g><g style="mix-blend-mode:passthrough"><path d="M47.765625,114.637259375L47.921982,169.99945937500001L96.000625,142.181059375L95.843725,86.818359375L47.765625,114.637259375Z" fill-rule="evenodd" fill="url(#master_svg5_348_00813)" fill-opacity="1"/></g><g style="mix-blend-mode:passthrough"><path d="M0.156841,142.1815702697754L47.9213,169.9999702697754L47.7649,114.6372702697754L0,86.81937026977539L0.156841,142.1815702697754Z" fill-rule="evenodd" fill="url(#master_svg6_348_00797)" fill-opacity="1"/></g><g style="mix-blend-mode:passthrough"><path d="M48.0786,59L0,86.8189L47.7649,114.6368L95.8431,86.8184L48.0786,59Z" fill-rule="evenodd" fill="url(#master_svg7_348_00847)" fill-opacity="1"/></g></g></g></svg>