<svg xmlns="http://www.w3.org/2000/svg" xmlns:xlink="http://www.w3.org/1999/xlink" fill="none" version="1.1" width="40" height="40" viewBox="0 0 40 40"><g style="mix-blend-mode:passthrough"><g><g style="mix-blend-mode:passthrough"></g><g style="mix-blend-mode:passthrough"><path d="M32.845284375,31.450576625L28.094184375,34.165510625L20.492384375,38.509400625Q20.379784375,38.573740625,20.254484375,38.607030625Q20.129084374999998,38.640310625,19.999384374999998,38.640310625Q19.869784375000002,38.640310625,19.744384375,38.607030625Q19.619084375,38.573740625,19.506484375,38.509400625L7.153520375,31.450576625L8.139448375,29.725204625L20.492384375,36.784030625L19.999384374999998,37.646710625L19.506484375,36.784030625L27.108284375,32.440140625L31.859384375,29.725204625L32.845284375,31.450576625Z" fill="#EF814E" fill-opacity="0.4000000059604645"/></g><g style="mix-blend-mode:passthrough"><path d="M23.41523925,5.009013305816651L35.17990625,11.391993305816651Q35.29790625,11.45597330581665,35.39460625,11.54893330581665Q35.49130625,11.641893305816652,35.55990625,11.75718330581665Q35.62850625,11.87246330581665,35.66410625,12.00182330581665Q35.69970625,12.13117330581665,35.69970625,12.26533330581665L35.69970625,25.88235330581665L33.712506250000004,25.88235330581665L33.712506250000004,12.26533330581665L34.70610625,12.26533330581665L34.23230625,13.13867330581665L22.46757325,6.75569330581665L23.41523925,5.009013305816651Z" fill="#EF814E" fill-opacity="0.4000000059604645"/></g><g style="mix-blend-mode:passthrough"><path d="M4.29936875,25.88235330581665L4.29936875,12.26533330581665Q4.29936875,12.13117330581665,4.33494875,12.00182330581665Q4.37052875,11.87246330581665,4.43914175,11.75718330581665Q4.50775375,11.641893305816652,4.60448375,11.54893330581665Q4.70121475,11.45597330581665,4.81913575,11.391993305816651L16.58386875,5.009013305816651L17.531468750000002,6.75569330581665L5.76680175,13.13867330581665L5.29296875,12.26533330581665L6.28656875,12.26533330581665L6.28656875,25.88235330581665L4.29936875,25.88235330581665Z" fill="#EF814E" fill-opacity="0.4000000059604645"/></g><g style="mix-blend-mode:passthrough"><path d="M20.905709375,7.05859375L20.905709375,14.11741375L18.918509375,14.11741375L18.918509375,7.05859375L20.905709375,7.05859375Z" fill="#EF814E" fill-opacity="1"/></g><g style="mix-blend-mode:passthrough"><path d="M31.90743875,27.947406875L24.84861775,24.417999875L25.73731975,22.640593875L32.79613875,26.170006875L31.90743875,27.947406875Z" fill="#EF814E" fill-opacity="1"/></g><g style="mix-blend-mode:passthrough"><path d="M7.202133375,26.170006875L14.260954375,22.640593875L15.149654375,24.417999875L8.090835375,27.947406875L7.202133375,26.170006875Z" fill="#EF814E" fill-opacity="1"/></g><g style="mix-blend-mode:passthrough"><ellipse cx="19.999770402908325" cy="5.2941179275512695" rx="2.941176652908325" ry="2.941176652908325" fill="#EF814E" fill-opacity="1"/><ellipse cx="19.999770402908325" cy="5.2941179275512695" rx="2.941176652908325" ry="2.941176652908325" fill-opacity="0" stroke-opacity="1" stroke="#EF814E" stroke-width="1.9872000217437744" fill="none" stroke-dasharray="" stroke-linejoin="round"/></g><g style="mix-blend-mode:passthrough"><ellipse cx="4.706801652908325" cy="28.82353138923645" rx="2.941176652908325" ry="2.941176652908325" fill="#EF814E" fill-opacity="1"/><ellipse cx="4.706801652908325" cy="28.82353138923645" rx="2.941176652908325" ry="2.941176652908325" fill-opacity="0" stroke-opacity="1" stroke="#EF814E" stroke-width="1.9872000217437744" fill="none" stroke-dasharray="" stroke-linejoin="round"/></g><g style="mix-blend-mode:passthrough"><ellipse cx="35.294692277908325" cy="28.82353138923645" rx="2.941176652908325" ry="2.941176652908325" fill="#EF814E" fill-opacity="1"/><ellipse cx="35.294692277908325" cy="28.82353138923645" rx="2.941176652908325" ry="2.941176652908325" fill-opacity="0" stroke-opacity="1" stroke="#EF814E" stroke-width="1.9872000217437744" fill="none" stroke-dasharray="" stroke-linejoin="round"/></g><g style="mix-blend-mode:passthrough"><path d="M17.35409125,15.735297171020507L14.70703125,17.352937171020507L14.70703125,20.58823717102051L14.70703125,23.82352717102051L17.35409125,25.441147171020507L20.00115125,27.05884717102051L22.64821125,25.441147171020507L25.29523125,23.82352717102051L25.29523125,20.58823717102051L25.29523125,17.352937171020507L22.64821125,15.735297171020507L20.00115125,14.117647171020508L17.35409125,15.735297171020507Z" fill="#EF814E" fill-opacity="1"/><path d="M20.51926125,14.965468171020508L17.87220125,16.583117171020508L15.22514425,18.20076717102051L14.70703125,17.352937171020507L15.70063125,17.352937171020507L15.70063125,20.58823717102051L15.70063125,23.82352717102051L14.70703125,23.82352717102051L15.22514425,22.97570717102051L17.87220125,24.593347171020508L20.51926125,26.21104717102051L20.00115125,27.05884717102051L19.48304125,26.21104717102051L22.13009125,24.593347171020508L24.77713125,22.97570717102051L25.29523125,23.82352717102051L24.30167125,23.82352717102051L24.30167125,20.58823717102051L24.30167125,17.352937171020507L25.29523125,17.352937171020507L24.77713125,18.20076717102051L22.13009125,16.583117171020508L19.48304125,14.965468171020508L20.00115125,14.117647171020508L20.51926125,14.965468171020508ZM19.48304125,13.269826171020508Q19.60004125,13.198325171020509,19.73203125,13.161186171020507Q19.86403125,13.124047171020507,20.00115125,13.124047171020507Q20.13827125,13.124047171020507,20.27026125,13.161186171020507Q20.40226125,13.198325171020509,20.51926125,13.269826171020508L23.16632125,14.887473171020508L25.813331249999997,16.50511717102051Q25.92233125,16.571687171020507,26.010831250000003,16.663627171020508Q26.099431250000002,16.75556717102051,26.161931250000002,16.866917171020507Q26.22433125,16.97825717102051,26.256631249999998,17.10176717102051Q26.28883125,17.225287171020508,26.28883125,17.352937171020507L26.28883125,20.58823717102051L26.28883125,23.82352717102051Q26.28883125,23.951187171020507,26.256631249999998,24.07469717102051Q26.22433125,24.19824717102051,26.161931250000002,24.309547171020508Q26.099431250000002,24.420947171020508,26.010831250000003,24.51284717102051Q25.92233125,24.604747171020506,25.813331249999997,24.671347171020507L23.16632125,26.289047171020506L20.51926125,27.90664717102051Q20.40226125,27.97814717102051,20.27026125,28.01524717102051Q20.13827125,28.052447171020507,20.00115125,28.052447171020507Q19.86403125,28.052447171020507,19.73203125,28.01524717102051Q19.60004125,27.97814717102051,19.48304125,27.90664717102051L16.83598125,26.289047171020506L14.18891825,24.671347171020507Q14.07998925,24.604747171020506,13.99142625,24.51284717102051Q13.90286325,24.420947171020508,13.84041725,24.309547171020508Q13.77797225,24.19824717102051,13.74570225,24.07469717102051Q13.71343125,23.951187171020507,13.71343125,23.82352717102051L13.71343125,20.58823717102051L13.71343125,17.352937171020507Q13.71343125,17.225287171020508,13.74570225,17.10176717102051Q13.77797225,16.97825717102051,13.84041725,16.866917171020507Q13.90286325,16.75556717102051,13.99142625,16.663627171020508Q14.07998925,16.571687171020507,14.18891825,16.50511717102051L16.83598125,14.887473171020508L19.48304125,13.269826171020508L19.48304125,13.269826171020508Z" fill="#EF814E" fill-opacity="1"/></g></g></g></svg>