<svg xmlns="http://www.w3.org/2000/svg" xmlns:xlink="http://www.w3.org/1999/xlink" fill="none" version="1.1" width="40" height="40" viewBox="0 0 40 40"><g style="mix-blend-mode:passthrough"><g><g style="mix-blend-mode:passthrough"><g><g style="mix-blend-mode:passthrough"><path d="M14.3272,6.83695934375Q17.0549,13.55652734375,21.7639,17.15747734375Q26.4082,20.70907734375,34.1689,21.13537734375C34.7054,21.16487734375,35.1386,21.60357734375,35.1386,22.140977343750002L35.1386,33.12377734375C35.1386,33.67247734375,34.6937,34.117277343750004,34.144999999999996,34.11737734375L4.993603,34.11747734375C4.444852,34.11747734375,4,33.67257734375,4,33.123877343749996L4,7.19037634375C4,6.64162734375,4.44485,6.19677734375,4.9936,6.19677734375L13.39156,6.19677734375C13.803,6.19677734375,14.1725,6.45573834375,14.3272,6.83695934375" fill-rule="evenodd" fill="#EF814E" fill-opacity="0.4000000059604645"/></g><g style="mix-blend-mode:passthrough"><path d="M36.470496875,35.61396640625L7.503696875,35.61396640625Q5.445886875,35.61396640625,3.990789875,34.15886640625Q2.535696875,32.70376640625,2.535696875,30.64596640625L2.535696875,4.705566406249582L4.522896875,4.705566406249582L4.522896875,30.64596640625Q4.522896875,31.88066640625,5.3959568749999995,32.75376640625Q6.2690068750000005,33.62676640625,7.503696875,33.62676640625L36.470496875,33.62676640625L36.470496875,35.61396640625Z" fill="#EF814E" fill-opacity="1"/></g><g style="mix-blend-mode:passthrough"><path d="M34.167950000000005,22.168891406249998Q31.00755,22.327491406249997,27.81575,21.42029140625Q24.61785,20.511291406250002,21.80127,18.648991406249998Q18.88721,16.72224140625,16.72663,13.99826140625Q14.441556,11.11731140625,13.218117,7.61103140625L15.094379,6.95635140625Q16.20718,10.14554140625,18.283549999999998,12.76337140625Q20.24735,15.23926140625,22.897280000000002,16.99137140625Q25.45715,18.68399140625,28.35905,19.508791406249998Q31.23545,20.32639140625,34.068349999999995,20.18419140625L34.167950000000005,22.168891406249998Z" fill="#EF814E" fill-opacity="1"/></g><g style="mix-blend-mode:passthrough"><path d="M19.973501875,17.27822509375L16.395991875,21.47039609375C15.848265875,22.11222609375,16.299311875,23.10151609375,17.143051875,23.10893609375L24.132171874999997,23.17041609375C24.969921875,23.17778609375,25.440171875,22.20874609375,24.916001875,21.55519609375L21.504401875,17.30154809375C21.114391875,16.81528009375,20.378141875,16.80406309375,19.973501875,17.27822509375" fill-rule="evenodd" transform="matrix(0.8191520571708679,0.5735764503479004,-0.5735764503479004,0.8191520571708679,12.101624648203142,-5.6519579547748435)" fill="#EF814E" fill-opacity="1"/></g><g style="mix-blend-mode:passthrough"><path d="M33.2020175,19.366604L29.6245075,23.558775C29.0767815,24.200605,29.5278275,25.189895,30.3715675,25.197315L37.3606875,25.258795C38.1984375,25.266165,38.668687500000004,24.297125,38.1445175,23.643575L34.7329175,19.389927C34.3429075,18.903659,33.6066575,18.892442,33.2020175,19.366604" fill-rule="evenodd" transform="matrix(-0.8191520571708679,-0.5735764503479004,0.5735764503479004,-0.8191520571708679,40.79255555430427,49.768093961291015)" fill="#EF814E" fill-opacity="1"/></g></g></g></g></g></svg>