<svg xmlns="http://www.w3.org/2000/svg" xmlns:xlink="http://www.w3.org/1999/xlink" fill="none" version="1.1" width="40" height="40" viewBox="0 0 40 40"><g style="mix-blend-mode:passthrough"><g><g style="mix-blend-mode:passthrough"><path d="M3.19396125,27.05859375L8.56937125,27.05859375C9.05508125,27.05859375,9.46960125,27.40974475,9.54945125,27.88884675L10.39472125,32.96047375C10.49566125,33.566103749999996,10.02862125,34.11741375,9.41464125,34.11741375L2.34869125,34.11741375C1.73470225,34.11741375,1.26766725,33.566103749999996,1.3686052499999999,32.96047375L2.21388125,27.88884675C2.29373125,27.40974475,2.70825125,27.05859375,3.19396125,27.05859375" fill-rule="evenodd" fill="#EF814E" fill-opacity="1"/><path d="M0.38852425,32.79712375L1.23379535,27.72549975Q1.35357125,27.00684735,1.90948125,26.53592075Q2.4653912499999997,26.06499375,3.19396125,26.06499375L8.56937125,26.06499375Q9.29794125,26.06499375,9.85385125,26.53592075Q10.40975125,27.00684685,10.52953125,27.72550075L11.37478125,32.79712375Q11.52618125,33.70557375,10.93091125,34.40829375Q10.33562125,35.11101375,9.41464125,35.11101375L2.34869125,35.11101375Q1.42771025,35.11101375,0.83241325,34.40829375Q0.23711724999999995,33.70557375,0.38852525000000004,32.79712375L0.38852425,32.79712375ZM2.34869125,33.12381375Q2.34869125,33.12381375,2.34869125,33.12381375L9.41464125,33.12381375L9.41464125,33.12381375L8.56937125,28.05219375L8.56937125,28.05219375Q8.56937125,28.05219375,8.56937125,28.05219375L3.19396125,28.05219375Q3.19396125,28.05219375,3.19396125,28.05219375L2.34869125,33.12381375L2.34869125,33.12381375Z" fill="#EF814E" fill-opacity="1"/></g><g style="mix-blend-mode:passthrough"><path d="M17.31114875,27.05859375L22.68655875,27.05859375C23.17226875,27.05859375,23.58678875,27.40974475,23.66663875,27.88884675L24.51190875,32.96047375C24.612848749999998,33.566103749999996,24.14580875,34.11741375,23.531828750000003,34.11741375L16.46587875,34.11741375C15.85188975,34.11741375,15.38485475,33.566103749999996,15.48579275,32.96047375L16.33106875,27.88884675C16.41091875,27.40974475,16.82543875,27.05859375,17.31114875,27.05859375" fill-rule="evenodd" fill="#EF814E" fill-opacity="1"/><path d="M14.50571175,32.79712375L15.35098285,27.72549975Q15.47075875,27.00684735,16.02666875,26.53592075Q16.58257875,26.06499375,17.31114875,26.06499375L22.68655875,26.06499375Q23.41512875,26.06499375,23.971038749999998,26.53592075Q24.52693875,27.00684685,24.646718749999998,27.72550075L25.491968749999998,32.79712375Q25.64336875,33.70557375,25.04809875,34.40829375Q24.452808750000003,35.11101375,23.531828750000003,35.11101375L16.46587875,35.11101375Q15.54489775,35.11101375,14.94960075,34.40829375Q14.35430475,33.70557375,14.50571275,32.79712375L14.50571175,32.79712375ZM16.46587875,33.12381375Q16.46587875,33.12381375,16.46587875,33.12381375L23.531828750000003,33.12381375L23.531828750000003,33.12381375L22.68655875,28.05219375L22.68655875,28.05219375Q22.68655875,28.05219375,22.68655875,28.05219375L17.31114875,28.05219375Q17.31114875,28.05219375,17.31114875,28.05219375L16.46587875,33.12381375L16.46587875,33.12381375Z" fill="#EF814E" fill-opacity="1"/></g><g style="mix-blend-mode:passthrough"><path d="M31.430289375,27.05859375L36.805699375,27.05859375C37.291409375,27.05859375,37.705929375,27.40974475,37.785779375000004,27.88884675L38.631049375,32.96047375C38.731989375,33.566103749999996,38.264949375,34.11741375,37.650969375,34.11741375L30.585019375,34.11741375C29.971030375,34.11741375,29.503995375,33.566103749999996,29.604933375,32.96047375L30.450209375,27.88884675C30.530059375,27.40974475,30.944579375,27.05859375,31.430289375,27.05859375" fill-rule="evenodd" fill="#EF814E" fill-opacity="0.39581099152565"/><path d="M28.624852375,32.79712375L29.470123475,27.72549975Q29.589899375,27.00684735,30.145809375,26.53592075Q30.701719375,26.06499375,31.430289375,26.06499375L36.805699375,26.06499375Q37.534269375,26.06499375,38.090179375,26.53592075Q38.646079375,27.00684685,38.765859375,27.72550075L39.611109375,32.79712375Q39.762509375,33.70557375,39.167239375,34.40829375Q38.571949375,35.11101375,37.650969375,35.11101375L30.585019375,35.11101375Q29.664038375,35.11101375,29.068741375,34.40829375Q28.473445375,33.70557375,28.624853375,32.79712375L28.624852375,32.79712375ZM30.585019375,33.12381375Q30.585019375,33.12381375,30.585019375,33.12381375L37.650969375,33.12381375L37.650969375,33.12381375L36.805699375,28.05219375L36.805699375,28.05219375Q36.805699375,28.05219375,36.805699375,28.05219375L31.430289375,28.05219375Q31.430289375,28.05219375,31.430289375,28.05219375L30.585019375,33.12381375L30.585019375,33.12381375Z" fill="#EF814E" fill-opacity="0.39581099152565"/></g><g style="mix-blend-mode:passthrough"><path d="M9.664664375000001,14.7060546875L15.040074375,14.7060546875C15.525784375,14.7060546875,15.940304375,15.0572056875,16.020154375,15.5363076875L16.865424375,20.6079346875C16.966364374999998,21.2135646875,16.499324375,21.7648746875,15.885344375,21.7648746875L8.819394375,21.7648746875C8.205405375,21.7648746875,7.738370375,21.2135646875,7.839308375,20.6079346875L8.684584375,15.5363076875C8.764434375,15.0572056875,9.178954375,14.7060546875,9.664664375000001,14.7060546875" fill-rule="evenodd" fill="#EF814E" fill-opacity="1"/><path d="M6.859227375,20.4445846875L7.704498475,15.3729606875Q7.824274375,14.6543082875,8.380184375,14.1833816875Q8.936094375,13.7124546875,9.664664375000001,13.7124546875L15.040074375,13.7124546875Q15.768644375,13.7124546875,16.324554374999998,14.1833816875Q16.880454375,14.6543077875,17.000234374999998,15.3729616875L17.845484374999998,20.4445846875Q17.996884375,21.3530346875,17.401614375,22.0557546875Q16.806324375000003,22.758474687499998,15.885344375,22.758474687499998L8.819394375,22.758474687499998Q7.898413375,22.758474687499998,7.303116375,22.0557546875Q6.707820375,21.3530346875,6.859228375,20.4445846875L6.859227375,20.4445846875ZM8.819394375,20.7712746875Q8.819394375,20.7712746875,8.819394375,20.7712746875L15.885344375,20.7712746875L15.885344375,20.7712746875L15.040074375,15.6996546875L15.040074375,15.6996546875Q15.040074375,15.6996546875,15.040074375,15.6996546875L9.664664375000001,15.6996546875Q9.664664375000001,15.6996546875,9.664664375000001,15.6996546875L8.819394375,20.7712746875L8.819394375,20.7712746875Z" fill="#EF814E" fill-opacity="1"/></g><g style="mix-blend-mode:passthrough"><path d="M24.95958625,14.7060546875L30.33499625,14.7060546875C30.82070625,14.7060546875,31.23522625,15.0572056875,31.31507625,15.5363076875L32.16034625,20.6079346875C32.26128625,21.2135646875,31.79424625,21.7648746875,31.180266250000003,21.7648746875L24.11431625,21.7648746875C23.50032725,21.7648746875,23.03329225,21.2135646875,23.13423025,20.6079346875L23.97950625,15.5363076875C24.05935625,15.0572056875,24.47387625,14.7060546875,24.95958625,14.7060546875" fill-rule="evenodd" fill="#EF814E" fill-opacity="1"/><path d="M22.15414925,20.4445846875L22.99942035,15.3729606875Q23.11919625,14.6543082875,23.67510625,14.1833816875Q24.23101625,13.7124546875,24.95958625,13.7124546875L30.33499625,13.7124546875Q31.06356625,13.7124546875,31.619476249999998,14.1833816875Q32.17537625,14.6543077875,32.29515625,15.3729616875L33.14040625,20.4445846875Q33.29180625,21.3530346875,32.69653625,22.0557546875Q32.10124625,22.758474687499998,31.180266250000003,22.758474687499998L24.11431625,22.758474687499998Q23.19333525,22.758474687499998,22.59803825,22.0557546875Q22.00274225,21.3530346875,22.15415025,20.4445846875L22.15414925,20.4445846875ZM24.11431625,20.7712746875Q24.11431625,20.7712746875,24.11431625,20.7712746875L31.180266250000003,20.7712746875L31.180266250000003,20.7712746875L30.33499625,15.6996546875L30.33499625,15.6996546875Q30.33499625,15.6996546875,30.33499625,15.6996546875L24.95958625,15.6996546875Q24.95958625,15.6996546875,24.95958625,15.6996546875L24.11431625,20.7712746875L24.11431625,20.7712746875Z" fill="#EF814E" fill-opacity="1"/></g><g style="mix-blend-mode:passthrough"><path d="M17.31114875,3.529296875L22.68655875,3.529296875C23.17226875,3.529296875,23.58678875,3.8804478749999998,23.66663875,4.359549875L24.51190875,9.431176875C24.612848749999998,10.036806875,24.14580875,10.588116875,23.531828750000003,10.588116875L16.46587875,10.588116875C15.85188975,10.588116875,15.38485475,10.036806875,15.48579275,9.431176875L16.33106875,4.359549875C16.41091875,3.8804478749999998,16.82543875,3.529296875,17.31114875,3.529296875" fill-rule="evenodd" fill="#EF814E" fill-opacity="0.39581099152565"/><path d="M14.50571175,9.267826875L15.35098285,4.196202875Q15.47075875,3.477550475,16.02666875,3.006623875Q16.58257875,2.535696875,17.31114875,2.535696875L22.68655875,2.535696875Q23.41512875,2.535696875,23.971038749999998,3.006623875Q24.52693875,3.477549975,24.646718749999998,4.196203875L25.491968749999998,9.267826875Q25.64336875,10.176276875,25.04809875,10.878996875Q24.452808750000003,11.581716875,23.531828750000003,11.581716875L16.46587875,11.581716875Q15.54489775,11.581716875,14.94960075,10.878996875Q14.35430475,10.176276875,14.50571275,9.267826875L14.50571175,9.267826875ZM16.46587875,9.594516875Q16.46587875,9.594516875,16.46587875,9.594516875L23.531828750000003,9.594516875L23.531828750000003,9.594516875L22.68655875,4.522896875L22.68655875,4.522896875Q22.68655875,4.522896875,22.68655875,4.522896875L17.31114875,4.522896875Q17.31114875,4.522896875,17.31114875,4.522896875L16.46587875,9.594516875L16.46587875,9.594516875Z" fill="#EF814E" fill-opacity="0.39581099152565"/></g></g></g></svg>