<?xml version="1.0" encoding="UTF-8"?>
<svg width="160px" height="160px" viewBox="0 0 160 160" version="1.1" xmlns="http://www.w3.org/2000/svg" xmlns:xlink="http://www.w3.org/1999/xlink">
    <title>1-1@3x</title>
    <defs>
        <path d="M11.4742379,160 C10.7177895,160 9.95759225,159.778628 9.29635493,159.321067 C7.73300268,158.24221 7.2043877,156.181181 8.0542494,154.486628 L43.5389303,83.809524 L3.82552088,83.809524 C2.52737502,83.809524 1.31893189,83.154743 0.612900595,82.068457 C-0.0912563205,80.9821335 -0.195877635,79.6149715 0.336447854,78.437524 L34.7639371,2.24704762 C35.3822165,0.87984762 36.7475725,0 38.2530101,0 L87.9816058,0 C89.3077524,0 90.5386499,0.684533335 91.2353479,1.80617143 C91.9320455,2.92967619 91.995545,4.33222857 91.4034688,5.51337145 L71.2198938,45.7142857 L110.933304,45.7142857 C112.455572,45.7142857 113.832136,46.6127238 114.439169,48.0003809 C115.048077,49.3899047 114.771624,51.006324 113.736887,52.116838 L14.2796957,158.783505 C13.5306683,159.585181 12.5071391,160 11.4742379,160 Z" id="path-1"></path>
    </defs>
    <g id="ph" stroke="none" stroke-width="1" fill="none" fill-rule="evenodd" opacity="0.100000001">
        <g id="ph" transform="translate(-404.000000, -894.000000)">
            <g id="ph-9" transform="translate(226.000000, 914.000000)">
                <g id="1-1" transform="translate(178.000000, -20.000000)">
                    <rect id="ph" x="0" y="0" width="160" height="160"></rect>
                    <g id="ph" transform="translate(25.379310, 0.000000)">
                        <g id="Mask" fill="#EF814E" fill-rule="nonzero">
                            <path d="M11.4742379,160 C10.7177895,160 9.95759225,159.778628 9.29635493,159.321067 C7.73300268,158.24221 7.2043877,156.181181 8.0542494,154.486628 L43.5389303,83.809524 L3.82552088,83.809524 C2.52737502,83.809524 1.31893189,83.154743 0.612900595,82.068457 C-0.0912563205,80.9821335 -0.195877635,79.6149715 0.336447854,78.437524 L34.7639371,2.24704762 C35.3822165,0.87984762 36.7475725,0 38.2530101,0 L87.9816058,0 C89.3077524,0 90.5386499,0.684533335 91.2353479,1.80617143 C91.9320455,2.92967619 91.995545,4.33222857 91.4034688,5.51337145 L71.2198938,45.7142857 L110.933304,45.7142857 C112.455572,45.7142857 113.832136,46.6127238 114.439169,48.0003809 C115.048077,49.3899047 114.771624,51.006324 113.736887,52.116838 L14.2796957,158.783505 C13.5306683,159.585181 12.5071391,160 11.4742379,160 Z" id="browse-path-1"></path>
                        </g>
                        <g id="Clipped">
                            <mask id="mask-2" fill="white">
                                <use xlink:href="#path-1"></use>
                            </mask>
                            <g id="browse-path-1"></g>
                            <polygon id="ph" fill="#FFD4C0" fill-rule="nonzero" mask="url(#mask-2)" points="30.1240531 105 -10.041351 185 65.2687817 105"></polygon>
                        </g>
                    </g>
                </g>
            </g>
        </g>
    </g>
</svg>