<svg xmlns="http://www.w3.org/2000/svg" xmlns:xlink="http://www.w3.org/1999/xlink" fill="none" version="1.1" width="88" height="88" viewBox="0 0 88 88"><g style="mix-blend-mode:passthrough"><g style="mix-blend-mode:passthrough"><ellipse cx="44" cy="44" rx="44" ry="44" fill="#FFFDFC" fill-opacity="1"/></g><g style="mix-blend-mode:passthrough" transform="matrix(0.9781475067138672,-0.20791171491146088,0.20791171491146088,0.9781475067138672,-7.109548197742697,4.1105829807929695)"><path d="M19.49219,44.626708984375C21.48438,44.626708984375,22.90234,43.427488984375,22.90234,41.564208984375C22.90234,39.755618984375,21.54297,38.626708984375,19.98438,38.626708984375C19.14453,38.630618984375,18.61719,38.892328984375,18.21875,39.322018984375L18.19531,39.322018984375L18.58203,37.450928984375L22.37109,37.450928984375L22.37109,35.876708984375L17.17578,35.876708984375L16.289062,40.626708984375L18.125,40.626708984375C18.375,40.322018984375,18.84375,40.068118984375,19.45703,40.068118984375C20.28516,40.068118984375,20.93359,40.622798984375,20.93359,41.552488984375C20.93359,42.443118984375,20.30859,43.056398984375,19.42188,43.056398984375C18.60547,43.056398984375,18.06641,42.634518984375,17.93359,41.997798984375L16,41.997798984375C16.132812,43.634518984375,17.55859,44.626708984375,19.49219,44.626708984375ZM28.7812,43.329828984375L29.835900000000002,42.275148984375L27.918,40.353268984375L29.835900000000002,38.435298984375L28.7812,37.376708984375L26.8711,39.298588984375L24.95312,37.376708984375L23.91016,38.435298984375L25.816409999999998,40.353268984375L23.89453,42.286868984375L24.941409999999998,43.329828984375L26.8594,41.411868984375L28.7812,43.329828984375Z" fill="#EF814E" fill-opacity="1"/></g><g style="mix-blend-mode:passthrough"><path d="M42.69043,66C41.930019,66,41.447838,65.1849,41.814003,64.5185L47.88688,53.46545C48.46478,52.41363,49.9825,52.43266,50.53385,53.49862L56.2451,64.5406C56.5894,65.2062,56.1063,66,55.356899999999996,66L42.69043,66ZM45.22607,63.5L52.8923,63.5L49.17489,56.31292L45.22607,63.5Z" fill-rule="evenodd" fill="#000000" fill-opacity="1"/></g><g style="mix-blend-mode:passthrough" transform="matrix(0.9716390371322632,-0.23646898567676544,0.21393688023090363,0.9768474698066711,-11.92089046003457,6.101912516969605)"><rect x="20.087890625" y="58.384521484375" width="58.29094314575195" height="1.8941503763198853" rx="0.9470751881599426" fill="#000000" fill-opacity="1"/></g><g style="mix-blend-mode:passthrough" transform="matrix(0.973646879196167,-0.22806085646152496,0.22806085646152496,0.973646879196167,-10.471314444246673,5.343269356846577)"><g style="mix-blend-mode:passthrough"><path d="" fill="#FFFBFA" fill-opacity="1"/><path d="M19.908759117126465,55.72707462310791Q19.908759117126465,55.85587262310791,20.159979117126465,56.08212162310791Q20.583389117126465,56.46344062310791,21.433929117126464,56.78743462310791Q23.431179117126465,57.54822462310791,26.314889117126466,57.54822462310791Q29.198559117126464,57.54822462310791,31.195859117126467,56.78743462310791Q32.046359117126464,56.46344062310791,32.469759117126465,56.08212162310791Q32.721059117126465,55.85587162310791,32.721059117126465,55.72707462310791L34.721059117126465,55.72707462310791Q34.72095911712647,57.584804623107914,31.907759117126467,58.65642462310791Q29.566659117126463,59.54822462310791,26.314889117126466,59.54822462310791Q23.063159117126464,59.54822462310791,20.721989117126466,58.65642462310791Q17.908759117126465,57.584804623107914,17.908759117126465,55.72707462310791L19.908759117126465,55.72707462310791Z" fill="#EF814E" fill-opacity="1"/></g><g style="mix-blend-mode:passthrough"><ellipse cx="26.325457334518433" cy="50.80235242843628" rx="7.433652400970459" ry="2.8211512565612793" fill-opacity="0" stroke-opacity="1" stroke="#EF814E" fill="none" stroke-width="2"/></g><g style="mix-blend-mode:passthrough"><path d="M17.894646425,50.691226959228516L17.910455725,55.964436959228514L19.934045625,55.964436959228514L19.918235625,50.691226959228516L17.894646425,50.691226959228516Z" fill="#EF814E" fill-opacity="1"/></g><g style="mix-blend-mode:passthrough"><path d="M32.69292334095215,55.83577136993408L34.70035410095215,55.83577136993408L34.70917410095215,50.62952136993408L32.70174506095215,50.62952136993408L32.69292334095215,55.83577136993408Z" fill="#EF814E" fill-opacity="1"/></g></g><g style="mix-blend-mode:passthrough" transform="matrix(0.9861218333244324,-0.16602328419685364,0.16602328419685364,0.9861218333244324,-4.532167381625186,9.90830438881676)"><g style="mix-blend-mode:passthrough"><rect x="59" y="33.0631103515625" width="15" height="14" rx="0" fill="#FFFBFA" fill-opacity="1"/></g><g style="mix-blend-mode:passthrough"><ellipse cx="66.22099161148071" cy="35.22802233695984" rx="7.989546298980713" ry="3.164911985397339" fill-opacity="0" stroke-opacity="1" stroke="#000000" fill="none" stroke-width="2.5"/></g><g style="mix-blend-mode:passthrough"><path d="M59.4814453125,40.201416015625Q59.4814453125,40.303404015625,59.7137753125,40.520994015625Q60.1468853125,40.926629015625,61.0318853125,41.277206015625Q63.1501753125,42.116326015625,66.2209953125,42.116326015625Q69.2918453125,42.116326015625,71.4100453125,41.277206015625Q72.2951453125,40.926630015625,72.72824531250001,40.520994015625Q72.9605453125,40.303403015625,72.9605453125,40.201416015625L75.4605453125,40.201416015625Q75.4605453125,42.361706015625,72.3308453125,43.601486015625Q69.7689453125,44.616326015625,66.2209953125,44.616326015625Q62.6730453125,44.616326015625,60.1111653125,43.601486015625Q56.9814453125,42.361706015625,56.9814453125,40.201416015625L59.4814453125,40.201416015625Z" fill="#000000" fill-opacity="1"/></g><g style="mix-blend-mode:passthrough"><path d="M59.4814453125,44.7227783203125Q59.4814453125,44.8247663203125,59.7137753125,45.0423563203125Q60.1468853125,45.4479913203125,61.0318853125,45.7985683203125Q63.1501753125,46.6376883203125,66.2209953125,46.6376883203125Q69.2918453125,46.6376883203125,71.4100453125,45.7985683203125Q72.2951453125,45.4479923203125,72.72824531250001,45.0423563203125Q72.9605453125,44.8247653203125,72.9605453125,44.7227783203125L75.4605453125,44.7227783203125Q75.4605453125,46.8830683203125,72.3308453125,48.1228483203125Q69.7689453125,49.1376883203125,66.2209953125,49.1376883203125Q62.6730453125,49.1376883203125,60.1111653125,48.1228483203125Q56.9814453125,46.8830683203125,56.9814453125,44.7227783203125L59.4814453125,44.7227783203125Z" fill="#000000" fill-opacity="1"/></g><g style="mix-blend-mode:passthrough"><rect x="57" y="35.0518798828125" width="2.487823486328125" height="9.670907020568848" rx="0" fill="#000000" fill-opacity="1"/></g><g style="mix-blend-mode:passthrough"><rect x="72.9482421875" y="35.0518798828125" width="2.501492500305176" height="9.670907020568848" rx="0" fill="#000000" fill-opacity="1"/></g></g><g style="mix-blend-mode:passthrough" transform="matrix(0.9861218333244324,-0.16602328419685364,0.16602328419685364,0.9861218333244324,-5.169018900971423,8.289706046874926)"><g style="mix-blend-mode:passthrough"><rect x="49" y="36.0631103515625" width="15" height="14" rx="0" fill="#FFFBFA" fill-opacity="1"/></g><g style="mix-blend-mode:passthrough"><ellipse cx="56.22099161148071" cy="38.22802233695984" rx="7.989546298980713" ry="3.164911985397339" fill-opacity="0" stroke-opacity="1" stroke="#000000" fill="none" stroke-width="2.5"/></g><g style="mix-blend-mode:passthrough"><path d="M49.4814453125,43.201416015625Q49.4814453125,43.303404015625,49.7137753125,43.520994015625Q50.1468853125,43.926629015625,51.0318853125,44.277206015625Q53.1501753125,45.116326015625,56.2209953125,45.116326015625Q59.2918453125,45.116326015625,61.4100453125,44.277206015625Q62.2951453125,43.926630015625,62.7282453125,43.520994015625Q62.9605453125,43.303403015625,62.9605453125,43.201416015625L65.4605453125,43.201416015625Q65.4605453125,45.361706015625,62.3308453125,46.601486015625Q59.7689453125,47.616326015625,56.2209953125,47.616326015625Q52.6730453125,47.616326015625,50.1111653125,46.601486015625Q46.9814453125,45.361706015625,46.9814453125,43.201416015625L49.4814453125,43.201416015625Z" fill="#000000" fill-opacity="1"/></g><g style="mix-blend-mode:passthrough"><path d="M49.4814453125,47.7227783203125Q49.4814453125,47.8247663203125,49.7137753125,48.0423563203125Q50.1468853125,48.4479913203125,51.0318853125,48.7985683203125Q53.1501753125,49.6376883203125,56.2209953125,49.6376883203125Q59.2918453125,49.6376883203125,61.4100453125,48.7985683203125Q62.2951453125,48.4479923203125,62.7282453125,48.0423563203125Q62.9605453125,47.8247653203125,62.9605453125,47.7227783203125L65.4605453125,47.7227783203125Q65.4605453125,49.8830683203125,62.3308453125,51.1228483203125Q59.7689453125,52.1376883203125,56.2209953125,52.1376883203125Q52.6730453125,52.1376883203125,50.1111653125,51.1228483203125Q46.9814453125,49.8830683203125,46.9814453125,47.7227783203125L49.4814453125,47.7227783203125Z" fill="#000000" fill-opacity="1"/></g><g style="mix-blend-mode:passthrough"><rect x="47" y="38.0518798828125" width="2.487823486328125" height="9.670907020568848" rx="0" fill="#000000" fill-opacity="1"/></g><g style="mix-blend-mode:passthrough"><rect x="62.9482421875" y="38.0518798828125" width="2.501492500305176" height="9.670907020568848" rx="0" fill="#000000" fill-opacity="1"/></g></g></g></svg>