<svg xmlns="http://www.w3.org/2000/svg" xmlns:xlink="http://www.w3.org/1999/xlink" fill="none" version="1.1" width="88" height="88" viewBox="0 0 88 88"><g style="mix-blend-mode:passthrough"><g style="mix-blend-mode:passthrough"><ellipse cx="44" cy="44" rx="44" ry="44" fill="#FFFDFC" fill-opacity="1"/></g><g style="mix-blend-mode:passthrough"><g style="mix-blend-mode:passthrough"><path d="M36.118971615791324,31.07389890625Q39.12537161579132,29.90473890625,39.12537161579132,27.83450890625Q39.12537161579132,25.76426890625,36.118971615791324,24.59511090625Q33.69087161579132,23.65087890625,30.33168161579132,23.65087890625Q26.97247161579132,23.650878787041,24.54442161579132,24.59511090625Q21.53797173500032,25.76426890625,21.53797161579132,27.83450890625Q21.537971496582323,29.90473890625,24.54442161579132,31.07389890625Q26.97247161579132,32.01813890625,30.33168161579132,32.01813890625Q33.69087161579132,32.01813890625,36.118971615791324,31.07389890625ZM36.61917161579132,27.83450890625Q36.57987161579132,27.75457890625,36.46977161579132,27.64638890625Q36.07807161579132,27.26158890625,35.21287161579132,26.92512890625Q33.22187161579132,26.15087890625,30.33168161579132,26.15087890625Q27.441471615791322,26.15087890625,25.45052161579132,26.92512890625Q24.585321615791322,27.26158890625,24.19358161579132,27.64638890625Q24.083451615791322,27.75457890625,24.044231615791322,27.83450890625Q24.083451615791322,27.91443890625,24.19358161579132,28.02261890625Q24.585321615791322,28.40741890625,25.45052161579132,28.74388890625Q27.441471615791322,29.51813890625,30.33168161579132,29.51813890625Q33.22187161579132,29.51813890625,35.21287161579132,28.74388890625Q36.07807161579132,28.40741890625,36.46977161579132,28.02261890625Q36.57987161579132,27.91443890625,36.61917161579132,27.83450890625Z" fill-rule="evenodd" fill="#000000" fill-opacity="1"/></g><g style="mix-blend-mode:passthrough"><path d="M24.0436196875,32.45352452743652L24.0341796875,32.44449424743652L21.5341796875,32.44449424743652Q21.5341796875,34.514814247436526,24.5412996875,35.683934247436525Q26.9698796875,36.628124247436524,30.329839687499998,36.628124247436524Q33.6897796875,36.628124247436524,36.118379687499996,35.683934247436525Q39.125479687500004,34.514814247436526,39.125479687500004,32.44449424743652L36.625479687500004,32.44449424743652L36.6160796875,32.45352488743652Q36.5674796875,32.54580424743652,36.4365796875,32.666108247436526Q36.0372796875,33.033164247436524,35.2124796875,33.35383524743652Q33.2208796875,34.128124247436524,30.329839687499998,34.128124247436524Q27.4387696875,34.128124247436524,25.4471996875,33.35383524743652Q24.6223996875,33.033164247436524,24.2230696875,32.666108247436526Q24.0921896875,32.545805247436526,24.0436196875,32.45352452743652Z" fill-rule="evenodd" fill="#000000" fill-opacity="1"/></g><g style="mix-blend-mode:passthrough"><path d="M24.04743161579132,36.64453953535156L24.03797161579132,36.63539123535156L21.53797161579132,36.63539123535156Q21.53797161579132,38.70563123535156,24.54442161579132,39.874791235351566Q26.97247161579132,40.81902123535156,30.33168161579132,40.81902123535156Q33.69087161579132,40.81902123535156,36.118971615791324,39.874791235351566Q39.12537161579132,38.70563123535156,39.12537161579132,36.63539123535156L36.62537161579132,36.63539123535156L36.615971615791324,36.64453989535156Q36.56737161579132,36.73682223535156,36.43657161579132,36.85711423535156Q36.03737161579132,37.22413023535156,35.21287161579132,37.544772235351566Q33.22187161579132,38.31902123535156,30.33168161579132,38.31902123535156Q27.441471615791322,38.31902123535156,25.45052161579132,37.544772235351566Q24.62600161579132,37.22412923535156,24.22683161579132,36.85711423535156Q24.09599161579132,36.73682223535156,24.04743161579132,36.64453953535156Z" fill-rule="evenodd" fill="#000000" fill-opacity="1"/></g><g style="mix-blend-mode:passthrough"><path d="M21.5263671875,27.9786376953125L24.0417171875,27.9786376953125L24.0417171875,36.735787695312496L21.5263671875,36.735787695312496L21.5263671875,27.9786376953125Z" fill="#000000" fill-opacity="1"/></g><g style="mix-blend-mode:passthrough"><path d="M36.6455078125,27.67120933532715L39.1608578125,27.67120933532715L39.1608578125,36.63538933532715L36.6455078125,36.63538933532715L36.6455078125,27.67120933532715Z" fill="#000000" fill-opacity="1"/></g></g><g style="mix-blend-mode:passthrough"><g style="mix-blend-mode:passthrough"><path d="M65.21760442829132,31.07389890625Q68.22400442829132,29.90473890625,68.22400442829132,27.83450890625Q68.22400442829132,25.76426890625,65.21760442829132,24.59511090625Q62.78950442829132,23.65087890625,59.430314428291325,23.65087890625Q56.07110442829132,23.650878787041,53.64305442829132,24.59511090625Q50.63660454750032,25.76426890625,50.63660442829132,27.83450890625Q50.63660430908232,29.90473890625,53.64305442829132,31.07389890625Q56.07110442829132,32.01813890625,59.430314428291325,32.01813890625Q62.78950442829132,32.01813890625,65.21760442829132,31.07389890625ZM65.71780442829132,27.83450890625Q65.67850442829132,27.75457890625,65.56840442829132,27.64638890625Q65.17670442829132,27.26158890625,64.31150442829131,26.92512890625Q62.32050442829132,26.15087890625,59.430314428291325,26.15087890625Q56.54010442829132,26.15087890625,54.549154428291324,26.92512890625Q53.68395442829132,27.26158890625,53.292214428291324,27.64638890625Q53.18208442829132,27.75457890625,53.14286442829132,27.83450890625Q53.18208442829132,27.91443890625,53.292214428291324,28.02261890625Q53.68395442829132,28.40741890625,54.549154428291324,28.74388890625Q56.54010442829132,29.51813890625,59.430314428291325,29.51813890625Q62.32050442829132,29.51813890625,64.31150442829131,28.74388890625Q65.17670442829132,28.40741890625,65.56840442829132,28.02261890625Q65.67850442829132,27.91443890625,65.71780442829132,27.83450890625Z" fill-rule="evenodd" fill="#000000" fill-opacity="1"/></g><g style="mix-blend-mode:passthrough"><path d="M53.1422525,32.45352452743652L53.1328125,32.44449424743652L50.6328125,32.44449424743652Q50.6328125,34.514814247436526,53.6399325,35.683934247436525Q56.0685125,36.628124247436524,59.4284725,36.628124247436524Q62.7884125,36.628124247436524,65.2170125,35.683934247436525Q68.2241125,34.514814247436526,68.2241125,32.44449424743652L65.7241125,32.44449424743652L65.7147125,32.45352488743652Q65.6661125,32.54580424743652,65.5352125,32.666108247436526Q65.1359125,33.033164247436524,64.31111250000001,33.35383524743652Q62.3195125,34.128124247436524,59.4284725,34.128124247436524Q56.5374025,34.128124247436524,54.5458325,33.35383524743652Q53.7210325,33.033164247436524,53.3217025,32.666108247436526Q53.1908225,32.545805247436526,53.1422525,32.45352452743652Z" fill-rule="evenodd" fill="#000000" fill-opacity="1"/></g><g style="mix-blend-mode:passthrough"><path d="M53.14606442829132,36.64453953535156L53.13660442829132,36.63539123535156L50.63660442829132,36.63539123535156Q50.63660442829132,38.70563123535156,53.64305442829132,39.874791235351566Q56.07110442829132,40.81902123535156,59.430314428291325,40.81902123535156Q62.78950442829132,40.81902123535156,65.21760442829132,39.874791235351566Q68.22400442829132,38.70563123535156,68.22400442829132,36.63539123535156L65.72400442829132,36.63539123535156L65.71460442829132,36.64453989535156Q65.66600442829132,36.73682223535156,65.53520442829132,36.85711423535156Q65.13600442829132,37.22413023535156,64.31150442829131,37.544772235351566Q62.32050442829132,38.31902123535156,59.430314428291325,38.31902123535156Q56.54010442829132,38.31902123535156,54.549154428291324,37.544772235351566Q53.724634428291324,37.22412923535156,53.32546442829132,36.85711423535156Q53.19462442829132,36.73682223535156,53.14606442829132,36.64453953535156Z" fill-rule="evenodd" fill="#000000" fill-opacity="1"/></g><g style="mix-blend-mode:passthrough"><path d="M50.625,27.9786376953125L53.14035,27.9786376953125L53.14035,36.735787695312496L50.625,36.735787695312496L50.625,27.9786376953125Z" fill="#000000" fill-opacity="1"/></g><g style="mix-blend-mode:passthrough"><path d="M65.744140625,27.67120933532715L68.259490625,27.67120933532715L68.259490625,36.63538933532715L65.744140625,36.63538933532715L65.744140625,27.67120933532715Z" fill="#000000" fill-opacity="1"/></g></g><g style="mix-blend-mode:passthrough"><g style="mix-blend-mode:passthrough"><path d="M54.23360803394318,50.102805078125Q55.24010803394317,49.083585078125,55.24010803394317,47.866945078125Q55.24010803394317,46.650295078125,54.23360803394318,45.631085078125Q53.34940803394318,44.735795078125,51.760708033943175,44.098905078125Q48.842308033943176,42.928955078125,44.79040803394318,42.928955078125Q40.738618033943176,42.928954958916,37.82019803394318,44.098905078125Q36.23146803394317,44.735795078125,35.34732803394318,45.631085078125Q34.340808033943176,46.650295078125,34.340808033943176,47.866945078125Q34.340808033943176,49.083585078125,35.34732803394318,50.102805078125Q36.23146803394317,50.998095078125004,37.82019803394318,51.634985078125Q40.738618033943176,52.804935078125,44.79040803394318,52.804935078125Q48.842308033943176,52.804935078125,51.760708033943175,51.634985078125Q53.34940803394318,50.998095078125004,54.23360803394318,50.102805078125ZM52.45480803394318,47.387745078125Q52.74010803394317,47.676665078125,52.74010803394317,47.866945078125Q52.74010803394317,48.057215078125,52.45480803394318,48.346145078125Q51.936208033943174,48.871215078125,50.830508033943175,49.314505078125Q48.359808033943175,50.304935078125,44.79040803394318,50.304935078125Q41.22105803394318,50.304935078125,38.75044803394317,49.314505078125Q37.64466803394318,48.871215078125,37.12613803394318,48.346145078125Q36.840808033943176,48.057225078125,36.840808033943176,47.866945078125Q36.840808033943176,47.676665078125,37.12613803394318,47.387745078125Q37.64466803394318,46.862675078125,38.75044803394317,46.419385078125Q41.22105803394318,45.428955078125,44.79040803394318,45.428955078125Q48.359808033943175,45.428955078125,50.830508033943175,46.419385078125Q51.936208033943174,46.862675078125,52.45480803394318,47.387745078125Z" fill-rule="evenodd" fill="#EF814E" fill-opacity="1"/></g><g style="mix-blend-mode:passthrough"><path d="M37.173648033943174,54.19064233032226Q36.840808033943176,53.87517933032227,36.840808033943176,53.662357330322266L34.340808033943176,53.662357330322266Q34.340808033943176,56.035567330322266,37.82019803394318,57.430397330322265Q40.738618033943176,58.600347330322265,44.79040803394318,58.600347330322265Q48.842308033943176,58.600347330322265,51.760708033943175,57.430397330322265Q55.24010803394317,56.035567330322266,55.24010803394317,53.662357330322266L52.74010803394317,53.662357330322266Q52.74010803394317,53.875177330322266,52.40720803394318,54.19064233032226Q51.88220803394317,54.688297330322264,50.830508033943175,55.10991733032227Q48.359808033943175,56.100347330322265,44.79040803394318,56.100347330322265Q41.22105803394318,56.100347330322265,38.75044803394317,55.10991733032227Q37.69870803394318,54.688297330322264,37.173648033943174,54.19064233032226Z" fill-rule="evenodd" fill="#EF814E" fill-opacity="1"/></g><g style="mix-blend-mode:passthrough"><path d="M37.173648033943174,59.459198925170895Q36.840808033943176,59.1437359251709,36.840808033943176,58.9309139251709L34.340808033943176,58.9309139251709Q34.340808033943176,61.3041239251709,37.82019803394318,62.6989539251709Q40.738618033943176,63.8689039251709,44.79040803394318,63.8689039251709Q48.842308033943176,63.8689039251709,51.760708033943175,62.6989539251709Q55.24010803394317,61.3041239251709,55.24010803394317,58.9309139251709L52.74010803394317,58.9309139251709Q52.74010803394317,59.1437339251709,52.40720803394318,59.459198925170895Q51.88220803394317,59.9568539251709,50.830508033943175,60.3784739251709Q48.359808033943175,61.3689039251709,44.79040803394318,61.3689039251709Q41.22105803394318,61.3689039251709,38.75044803394317,60.3784739251709Q37.69870803394318,59.9568539251709,37.173648033943174,59.459198925170895Z" fill-rule="evenodd" fill="#EF814E" fill-opacity="1"/></g><g style="mix-blend-mode:passthrough"><path d="M37.17366806110382,64.72777840820312Q36.84082806110382,64.41231540820313,36.84082806110382,64.19949340820312L34.34082806110382,64.19949340820312Q34.34082806110382,66.57270340820313,37.82021806110382,67.96753340820312Q40.73863806110382,69.13748340820312,44.790428061103825,69.13748340820312Q48.84232806110382,69.13748340820312,51.76072806110382,67.96753340820312Q55.24012806110382,66.57270340820313,55.24012806110382,64.19949340820312L52.74012806110382,64.19949340820312Q52.74012806110382,64.41231340820312,52.40722806110382,64.72777840820312Q51.88222806110382,65.22543340820313,50.83052806110382,65.64705340820312Q48.35982806110382,66.63748340820312,44.790428061103825,66.63748340820312Q41.221078061103825,66.63748340820312,38.75046806110382,65.64705340820312Q37.69872806110382,65.22543340820313,37.17366806110382,64.72777840820312Z" fill-rule="evenodd" fill="#EF814E" fill-opacity="1"/></g><g style="mix-blend-mode:passthrough"><path d="M34.3223876953125,47.598793029785156L36.889487695312496,47.598793029785156L36.889487695312496,64.32039302978515L34.3223876953125,64.32039302978515L34.3223876953125,47.598793029785156Z" fill="#EF814E" fill-opacity="1"/></g><g style="mix-blend-mode:passthrough"><path d="M52.7589111328125,47.598793029785156L55.2410611328125,47.598793029785156L55.2410611328125,64.19959302978515L52.7589111328125,64.19959302978515L52.7589111328125,47.598793029785156Z" fill="#EF814E" fill-opacity="1"/></g></g><g style="mix-blend-mode:passthrough"><path d="M21.328369140625,45.436279296875C21.328369140625,44.745923296875,21.888013140625,44.186279296875,22.578369140625,44.186279296875C23.268729140625,44.186279296875,23.828369140625,44.745923296875,23.828369140625,45.436279296875L23.828369140625,49.141709296875Q23.828369140625,49.866589296875,24.340929140625,50.379149296875Q24.853499140625,50.891719296875,25.578369140625,50.891719296875L28.026599140625,50.891719296875C28.716959140625,50.891719296875,29.276599140625,51.451359296875,29.276599140625,52.141719296875C29.276599140625,52.832069296875,28.716959140625,53.391719296874996,28.026599140625,53.391719296874996L25.578369140625,53.391719296874996Q23.817959140625,53.391719296874996,22.573169140625,52.146919296875Q21.328369021416,50.902119296875,21.328369379044,49.141709296875L21.328369140625,45.436279296875Z" fill-rule="evenodd" fill="#000000" fill-opacity="1"/></g><g style="mix-blend-mode:passthrough" transform="matrix(-1,0,0,1,136.924072265625,0)"><path d="M68.4620361328125,45.436279296875C68.4620361328125,44.745923296875,69.0216801328125,44.186279296875,69.7120361328125,44.186279296875C70.4023961328125,44.186279296875,70.9620361328125,44.745923296875,70.9620361328125,45.436279296875L70.9620361328125,49.141709296875Q70.9620361328125,49.866589296875,71.4745961328125,50.379149296875Q71.9871661328125,50.891719296875,72.7120361328125,50.891719296875L75.1602661328125,50.891719296875C75.8506261328125,50.891719296875,76.4102661328125,51.451359296875,76.4102661328125,52.141719296875C76.4102661328125,52.832069296875,75.8506261328125,53.391719296874996,75.1602661328125,53.391719296874996L72.7120361328125,53.391719296874996Q70.9516261328125,53.391719296874996,69.7068361328125,52.146919296875Q68.4620360136035,50.902119296875,68.4620363712315,49.141709296875L68.4620361328125,45.436279296875Z" fill-rule="evenodd" fill="#000000" fill-opacity="1"/></g><g style="mix-blend-mode:passthrough"><path d="M27.9225762890625,48.343894203125C27.6881562890625,48.109477203125,27.3702162890625,47.977783203125,27.0386962890625,47.977783203125C26.3483402890625,47.977783203125,25.7886962890625,48.537427203125,25.7886962890625,49.227783203125C25.7886962890625,49.559303203125,25.9203942890625,49.877253203125,26.1548182890625,50.111673203125L28.1849362890625,52.141763203125L26.1552722890625,54.171403203125L26.1548182890625,54.171863203125C25.9203942890625,54.406283203125,25.7886962890625,54.724223203125,25.7886962890625,55.055753203125C25.7886962890625,55.746103203125,26.3483402890625,56.305753203125,27.0386962890625,56.305753203125C27.3702162890625,56.305753203125,27.6881562890625,56.174053203125,27.9225762890625,55.939643203125L27.9230262890625,55.939183203125L30.1294762890625,53.732763203125Q30.7884962890625,53.073753203125,30.7884962890625,52.141763203125Q30.7884962890625,51.209773203125,30.1294762890625,50.550763203125L27.9225762890625,48.343894203125Z" fill-rule="evenodd" fill="#000000" fill-opacity="1"/></g><g style="mix-blend-mode:passthrough" transform="matrix(-1,0,0,1,128.003662109375,0)"><path d="M66.1357110546875,48.343894203125C65.9012910546875,48.109477203125,65.5833510546875,47.977783203125,65.2518310546875,47.977783203125C64.5614750546875,47.977783203125,64.0018310546875,48.537427203125,64.0018310546875,49.227783203125C64.0018310546875,49.559303203125,64.1335290546875,49.877253203125,64.3679530546875,50.111673203125L66.3980710546875,52.141763203125L64.3684070546875,54.171403203125L64.3679530546875,54.171863203125C64.1335290546875,54.406283203125,64.0018310546875,54.724223203125,64.0018310546875,55.055753203125C64.0018310546875,55.746103203125,64.5614750546875,56.305753203125,65.2518310546875,56.305753203125C65.5833510546875,56.305753203125,65.9012910546875,56.174053203125,66.1357110546875,55.939643203125L66.1361610546875,55.939183203125L68.3426110546875,53.732763203125Q69.0016310546875,53.073753203125,69.0016310546875,52.141763203125Q69.0016310546875,51.209773203125,68.3426110546875,50.550763203125L66.1357110546875,48.343894203125Z" fill-rule="evenodd" fill="#000000" fill-opacity="1"/></g></g></svg>