<?xml version="1.0" encoding="UTF-8"?>
<svg width="32px" height="32px" viewBox="0 0 32 32" version="1.1" xmlns="http://www.w3.org/2000/svg" xmlns:xlink="http://www.w3.org/1999/xlink">
    <title>ph</title>
    <g id="ph" stroke="none" stroke-width="1" fill="none" fill-rule="evenodd">
        <g id="ph-64ph-3" transform="translate(1.000000, 0.000000)">
            <rect id="ph" fill="#EF814E" x="9.5" y="0" width="6.66666667" height="6.66666667" rx="3.33333333"></rect>
            <rect id="ph-3" fill="#EF814E" x="14.8333333" y="1.33333333" width="6.66666667" height="6.66666667" rx="3.33333333"></rect>
            <path d="M8.39902892,3.08333333 L21.6009711,3.08333333 C22.7055406,3.08333333 23.6009711,3.97876383 23.6009711,5.08333333 C23.6009711,5.42322183 23.5143501,5.75750319 23.3492856,6.0546192 L21.4287696,9.51154799 C20.5469219,11.0988739 18.8738189,12.0833333 17.0579833,12.0833333 L12.9420167,12.0833333 C11.1261811,12.0833333 9.4530781,11.0988739 8.57123036,9.51154799 L6.65071437,6.0546192 C6.114288,5.08905173 6.46217559,3.87144515 7.42774306,3.33501878 C7.72485906,3.16995433 8.05914042,3.08333333 8.39902892,3.08333333 Z" id="ph" fill="#FCE6DC"></path>
            <path d="M3,32 C1.34314575,32 2.02906125e-16,30.6568542 0,29 C-1.08815656e-16,28.1114527 0.386291898,27.3131288 1.00009834,26.7638055 L1,20 C1,13.372583 6.372583,8 13,8 L17,8 C23.627417,8 29,13.372583 29,20 L29.0008825,26.7646837 C29.6141196,27.3139794 30,28.1119261 30,29 C30,30.6568542 28.6568542,32 27,32 L3,32 Z" id="ph" fill="#FCE6DC"></path>
            <rect id="ph" fill="#EF814E" x="7" y="8.16666667" width="16" height="2" rx="1"></rect>
            <rect id="ph" fill="#EF814E" transform="translate(23.500000, 8.166667) rotate(-30.000000) translate(-23.500000, -8.166667) " x="21" y="7.16666667" width="5" height="2" rx="1"></rect>
            <rect id="ph-2" fill="#EF814E" transform="translate(23.500000, 10.166667) rotate(-315.000000) translate(-23.500000, -10.166667) " x="21" y="9.16666667" width="5" height="2" rx="1"></rect>
            <path d="M20.9686206,18.432219 C21.2183805,16.7507239 19.9476355,15.8473283 18.2097663,15.2440116 L18.7730324,12.9665702 L17.3967403,12.6212161 L16.8481045,14.8386417 C16.4865273,14.7480916 16.1145001,14.6617531 15.7456078,14.5775204 L16.2984236,12.345354 L14.9231766,12 L14.3588655,14.2763885 C14.0599896,14.2079495 13.7652938,14.1395104 13.4800032,14.0679126 L13.4810482,14.0605422 L11.5832908,13.5835746 L11.2175337,15.0639642 C11.2175337,15.0639642 12.2385187,15.2998157 12.2165733,15.3145565 C12.7735693,15.4545933 12.8749363,15.8262701 12.858216,16.1210845 L11.3136755,22.3606212 C11.2457492,22.5311924 11.0722758,22.7870492 10.6835281,22.6901816 C10.6971134,22.7101869 9.68344345,22.4385364 9.68344345,22.4385364 L9,24.0252698 L10.7911653,24.4748618 C11.1245268,24.5590945 11.4505732,24.6475389 11.7724396,24.7296657 L11.2029034,27.0334298 L12.5771054,27.3787839 L13.1414165,25.0992367 C13.5165789,25.2013688 13.8812911,25.2971834 14.2376431,25.3856278 L13.6754221,27.654646 L15.0517142,28 L15.6212503,25.7004475 C17.9673215,26.1479337 19.7323613,25.9678863 20.4753709,23.8294288 C21.0741677,22.1079232 20.4450653,21.1150302 19.210896,20.4674914 C20.1117038,20.2590155 20.7888771,19.6630693 20.9686206,18.432219 Z M17.8251987,22.8744406 C17.3998754,24.5959463 14.5229337,23.6651751 13.5897303,23.4324822 L14.3452802,20.3801001 C15.2784836,20.6148987 18.2693325,21.0792314 17.8251987,22.8744406 Z M18.2505221,18.4080021 C17.8628194,19.9736773 15.4676323,19.1787312 14.6911821,18.9828902 L15.3767155,16.2147934 C16.1531658,16.4095815 18.6549451,16.7738879 18.2505221,18.4080021 Z" id="crypto-traders-path-2ph" fill="#EF814E" fill-rule="nonzero" transform="translate(15.000000, 20.000000) rotate(-14.000000) translate(-15.000000, -20.000000) "></path>
        </g>
    </g>
</svg>