<?xml version="1.0" encoding="UTF-8"?>
<svg width="32px" height="32px" viewBox="0 0 32 32" version="1.1" xmlns="http://www.w3.org/2000/svg" xmlns:xlink="http://www.w3.org/1999/xlink">
    <title>ph 2</title>
    <g id="ph" stroke="none" stroke-width="1" fill="none" fill-rule="evenodd">
        <g id="ph-60ph" transform="translate(2.000000, 0.000000)">
            <path d="M4.88337887,1.99327227 C4.38604019,1.93550716 4,1.51283584 4,1 C4,0.44771525 4.44771525,0 5,0 L5,0 L19,0 C21.7614237,-5.07265313e-16 24,2.23857625 24,5 L24,18 C24,19.3058822 23.1656226,20.4168852 22.0009007,20.8289758 L22,5 C22,3.40231912 20.75108,2.09633912 19.1762728,2.00509269 L19,2 L5,2 Z" id="ph" fill="#EF814E"></path>
            <rect id="ph" fill="#FCE6DC" x="0" y="3" width="21" height="29" rx="3"></rect>
            <path d="M11,24 C11.5522847,24 12,24.4477153 12,25 C12,25.5522847 11.5522847,26 11,26 L5,26 C4.44771525,26 4,25.5522847 4,25 C4,24.4477153 4.44771525,24 5,24 L11,24 Z M10,20 C10.5522847,20 11,20.4477153 11,21 C11,21.5522847 10.5522847,22 10,22 L5,22 C4.44771525,22 4,21.5522847 4,21 C4,20.4477153 4.44771525,20 5,20 L10,20 Z M12,16 C12.5522847,16 13,16.4477153 13,17 C13,17.5522847 12.5522847,18 12,18 L5,18 C4.44771525,18 4,17.5522847 4,17 C4,16.4477153 4.44771525,16 5,16 L12,16 Z M16,12 C16.5522847,12 17,12.4477153 17,13 C17,13.5522847 16.5522847,14 16,14 L5,14 C4.44771525,14 4,13.5522847 4,13 C4,12.4477153 4.44771525,12 5,12 L16,12 Z M11,8 C11.5522847,8 12,8.44771525 12,9 C12,9.55228475 11.5522847,10 11,10 L5,10 C4.44771525,10 4,9.55228475 4,9 C4,8.44771525 4.44771525,8 5,8 L11,8 Z" id="ph" fill="#EF814E"></path>
            <g id="ph-59" transform="translate(13.000000, 15.000000)" stroke="#EF814E" stroke-width="2">
                <line x1="9.04882398" y1="10" x2="15.2022999" y2="16" id="ph-12" stroke-linecap="round"></line>
                <circle id="ph" fill="#FCE6DC" cx="7" cy="7" r="6"></circle>
            </g>
        </g>
    </g>
</svg>