<?xml version="1.0" encoding="UTF-8"?>
<svg width="33px" height="32px" viewBox="0 0 33 32" version="1.1" xmlns="http://www.w3.org/2000/svg" xmlns:xlink="http://www.w3.org/1999/xlink">
    <title>ph 58@3x</title>
    <g id="ph" stroke="none" stroke-width="1" fill="none" fill-rule="evenodd">
        <g id="ph" transform="translate(-983.000000, -4582.000000)">
            <g id="ph-17" transform="translate(0.000000, 2117.000000)">
                <g id="ph-38" transform="translate(332.000000, 2262.000000)">
                    <g id="ph-4" transform="translate(620.000000, 172.000000)">
                        <g id="ph-58" transform="translate(31.943189, 31.720387)">
                            <path d="M15.0035018,9.27961262 C16.1041606,9.27961262 16.9964208,10.1718728 16.9964208,11.2725316 L16.9961323,17.3426126 L21.2519983,19.1813213 C23.4498314,20.1305529 24.8730289,22.2954854 24.8730289,24.6895429 L24.8730289,30.0379078 C24.8730289,30.5901925 24.4253136,31.0379078 23.8730289,31.0379078 L13.7864107,31.0379078 C13.1548004,31.0379078 12.6427791,30.5258865 12.6427791,29.8942762 C12.6427791,29.1512157 12.4061059,28.4274683 11.9670764,27.8279751 L11.6011867,27.328354 C10.9735048,26.4712567 10.6351323,25.4365126 10.6351323,24.3741566 L10.6351323,22.7981355 C10.6351323,21.008117 11.4343529,19.3115814 12.8145668,18.1717676 L12.921624,18.0833572 L13.0101323,18.0546126 L13.0105828,11.2725316 C13.0105828,10.1718728 13.9028431,9.27961262 15.0035018,9.27961262 Z" id="ph" fill="#FFD9C8"></path>
                            <path d="M0.999342246,12.2796126 C0.447057496,12.2796126 -0.000657754296,11.8318974 -0.000657754296,11.2796126 C-0.000657754296,11.0717621 0.0641085177,10.8690767 0.184635431,10.6997395 L3.22774066,6.42425478 C3.54799573,5.97430463 4.17237042,5.86916599 4.62232057,6.18942106 C4.71314041,6.2540627 4.79251266,6.33343494 4.85715429,6.42425478 L7.90025953,10.6997395 C8.22051459,11.1496897 8.11537595,11.7740644 7.66542581,12.0943194 C7.49608859,12.2148463 7.29340321,12.2796126 7.08555271,12.2796126 L6.03536645,12.2796126 L6.03536645,12.2796126 L6.03536645,20.2796126 C6.03536645,20.8318974 5.5876512,21.2796126 5.03536645,21.2796126 L3.04952851,21.2796126 C2.49724376,21.2796126 2.04952851,20.8318974 2.04952851,20.2796126 L2.04952851,12.2796126 L0.999342246,12.2796126 Z" id="ph" fill="#EF814E"></path>
                            <rect id="ph" fill="#FFD9C8" x="2.04952851" y="23.2796126" width="3.98583794" height="4" rx="1"></rect>
                            <rect id="ph" fill="#EF814E" x="25.9645562" y="20.2796126" width="3.98583794" height="4" rx="1"></rect>
                            <path d="M24.9143699,6.27961262 C24.3620851,6.27961262 23.9143699,5.83189737 23.9143699,5.27961262 C23.9143699,5.07176212 23.9791362,4.86907674 24.0996631,4.69973952 L27.1427683,0.424254782 C27.4630234,-0.0256953676 28.0873981,-0.130834005 28.5373482,0.189421062 C28.6281681,0.254062699 28.7075403,0.333434941 28.7721819,0.424254782 L31.8152872,4.69973952 C32.1355422,5.14968967 32.0304036,5.77406437 31.5804535,6.09431943 C31.4111162,6.21484635 31.2084309,6.27961262 31.0005804,6.27961262 L29.9503941,6.27961262 L29.9503941,6.27961262 L29.9503941,17.2796126 C29.9503941,17.8318974 29.5026788,18.2796126 28.9503941,18.2796126 L26.9645562,18.2796126 C26.4122714,18.2796126 25.9645562,17.8318974 25.9645562,17.2796126 L25.9645562,6.27961262 L24.9143699,6.27961262 Z" id="ph" fill="#FFD9C8"></path>
                            <path d="M19.8160406,8.39603162 C19.0859565,6.53712357 17.2757797,5.2182289 15.1606406,5.2144699 C12.4041053,5.20958949 10.1734548,7.44024003 10.1783352,10.1967753 C10.1821252,12.3293741 11.5228524,14.1519551 13.4060406,14.8700338" id="ph" stroke="#EF814E" stroke-width="2" stroke-linecap="round" transform="translate(14.997188, 10.042252) rotate(-315.000000) translate(-14.997188, -10.042252) "></path>
                        </g>
                    </g>
                </g>
            </g>
        </g>
    </g>
</svg>