<?xml version="1.0" encoding="UTF-8"?>
<svg width="32px" height="32px" viewBox="0 0 32 32" version="1.1" xmlns="http://www.w3.org/2000/svg" xmlns:xlink="http://www.w3.org/1999/xlink">
    <title>ph 57@3x</title>
    <g id="ph" stroke="none" stroke-width="1" fill="none" fill-rule="evenodd">
        <g id="ph" transform="translate(-674.000000, -4653.000000)">
            <g id="ph-17" transform="translate(0.000000, 2117.000000)">
                <g id="ph-38" transform="translate(332.000000, 2262.000000)">
                    <g id="ph-4" transform="translate(310.000000, 242.000000)">
                        <g id="ph-57" transform="translate(32.000000, 32.000000)">
                            <g id="ph-56" transform="translate(8.000000, 0.000000)">
                                <path d="M0,6 L16,6 L16,30 C16,31.1045695 15.1045695,32 14,32 L2,32 C0.8954305,32 1.3527075e-16,31.1045695 0,30 L0,6 L0,6 Z" id="ph" fill="#FCE6DC"></path>
                                <path d="M5,19 C5.55228475,19 6,19.4477153 6,20 L6,21 C6,21.5522847 5.55228475,22 5,22 L4,22 C3.44771525,22 3,21.5522847 3,21 L3,20 C3,19.4477153 3.44771525,19 4,19 L5,19 Z M12,19 C12.5522847,19 13,19.4477153 13,20 L13,21 C13,21.5522847 12.5522847,22 12,22 L11,22 C10.4477153,22 10,21.5522847 10,21 L10,20 C10,19.4477153 10.4477153,19 11,19 L12,19 Z M5,14 C5.55228475,14 6,14.4477153 6,15 L6,16 C6,16.5522847 5.55228475,17 5,17 L4,17 C3.44771525,17 3,16.5522847 3,16 L3,15 C3,14.4477153 3.44771525,14 4,14 L5,14 Z M12,14 C12.5522847,14 13,14.4477153 13,15 L13,16 C13,16.5522847 12.5522847,17 12,17 L11,17 C10.4477153,17 10,16.5522847 10,16 L10,15 C10,14.4477153 10.4477153,14 11,14 L12,14 Z M5,9 C5.55228475,9 6,9.44771525 6,10 L6,11 C6,11.5522847 5.55228475,12 5,12 L4,12 C3.44771525,12 3,11.5522847 3,11 L3,10 C3,9.44771525 3.44771525,9 4,9 L5,9 Z M12,9 C12.5522847,9 13,9.44771525 13,10 L13,11 C13,11.5522847 12.5522847,12 12,12 L11,12 C10.4477153,12 10,11.5522847 10,11 L10,10 C10,9.44771525 10.4477153,9 11,9 L12,9 Z" id="ph" fill="#EF814E"></path>
                                <path d="M6,26 L10,26 C10.5522847,26 11,26.4477153 11,27 L11,32 L11,32 L5,32 L5,27 C5,26.4477153 5.44771525,26 6,26 Z" id="ph" fill="#EF814E"></path>
                                <path d="M0,0 L16,0 L16,2 C16,3.65685425 14.6568542,5 13,5 L3,5 C1.34314575,5 2.02906125e-16,3.65685425 0,2 L0,0 L0,0 Z" id="ph" fill="#FCE6DC" transform="translate(8.000000, 2.500000) scale(1, -1) translate(-8.000000, -2.500000) "></path>
                            </g>
                            <g id="ph-55" transform="translate(0.000000, 9.000000)">
                                <path d="M0,4 L6,4 L6,21 C6,22.1045695 5.1045695,23 4,23 L2,23 C0.8954305,23 1.3527075e-16,22.1045695 0,21 L0,4 L0,4 Z" id="ph" fill="#FCE6DC"></path>
                                <path d="M0,0 L6,0 L6,1 C6,2.1045695 5.1045695,3 4,3 L2,3 C0.8954305,3 1.3527075e-16,2.1045695 0,1 L0,0 L0,0 Z" id="ph" fill="#FCE6DC" transform="translate(3.000000, 1.500000) scale(1, -1) translate(-3.000000, -1.500000) "></path>
                                <path d="M2,16 C2.55228475,16 3,16.4477153 3,17 C3,17.5522847 2.55228475,18 2,18 L2,18 L0,18 L0,16 Z M2,12 C2.55228475,12 3,12.4477153 3,13 C3,13.5522847 2.55228475,14 2,14 L2,14 L0,14 L0,12 Z M2,8 C2.55228475,8 3,8.44771525 3,9 C3,9.55228475 2.55228475,10 2,10 L2,10 L0,10 L0,8 Z" id="ph" fill="#EF814E"></path>
                            </g>
                            <g id="ph-55" transform="translate(29.000000, 20.500000) scale(-1, 1) translate(-29.000000, -20.500000) translate(26.000000, 9.000000)">
                                <path d="M0,4 L6,4 L6,21 C6,22.1045695 5.1045695,23 4,23 L2,23 C0.8954305,23 1.3527075e-16,22.1045695 0,21 L0,4 L0,4 Z" id="ph" fill="#EF814E"></path>
                                <path d="M0,0 L6,0 L6,1 C6,2.1045695 5.1045695,3 4,3 L2,3 C0.8954305,3 1.3527075e-16,2.1045695 0,1 L0,0 L0,0 Z" id="ph" fill="#EF814E" transform="translate(3.000000, 1.500000) scale(1, -1) translate(-3.000000, -1.500000) "></path>
                                <path d="M2,16 C2.55228475,16 3,16.4477153 3,17 C3,17.5522847 2.55228475,18 2,18 L2,18 L0,18 L0,16 Z M2,12 C2.55228475,12 3,12.4477153 3,13 C3,13.5522847 2.55228475,14 2,14 L2,14 L0,14 L0,12 Z M2,8 C2.55228475,8 3,8.44771525 3,9 C3,9.55228475 2.55228475,10 2,10 L2,10 L0,10 L0,8 Z" id="ph" fill="#FCE6DC"></path>
                            </g>
                        </g>
                    </g>
                </g>
            </g>
        </g>
    </g>
</svg>