<svg xmlns="http://www.w3.org/2000/svg" xmlns:xlink="http://www.w3.org/1999/xlink" fill="none" version="1.1" width="36" height="27.5294132232666" viewBox="0 0 36 27.5294132232666"><path d="M23.737,0L4.89138,0C2.18991,0,0,2.29801,0,5.13371L0,22.3954C0,25.2311,2.18991,27.5294,4.89121,27.5294L23.737,27.5294C26.4385,27.5294,28.6282,25.2307,28.6282,22.3955C28.6282,22.2142,28.7093,22.0436,28.8469,21.9352C28.9845,21.8269,29.1625,21.7936,29.327,21.8455L33.4549,24.8653C34.5026,25.1952,35.6052,24.5655,35.9175,23.4587C35.9722,23.2649,36,23.0638,36,22.8616L36,4.58609C36,3.43142,35.1136,2.49525,34.0204,2.49525C33.8289,2.49524,33.6384,2.52459,33.4549,2.58236L29.2529,5.62558C29.1059,5.67193,28.9467,5.64215,28.8237,5.54527C28.7006,5.4484,28.6282,5.29581,28.6282,5.13371C28.6282,2.29801,26.4385,0,23.737,0ZM9.86018,8.92691C9.86018,7.65659,10.8352,6.62699,12.0377,6.62699C12.4502,6.62699,12.8542,6.75064,13.2027,6.98367L20.565,11.908C21.5811,12.5876,21.8831,14.0086,21.2396,15.0817C21.0674,15.3689,20.8371,15.6122,20.5651,15.7941L13.2029,20.7194C12.1869,21.3992,10.8417,21.0803,10.1981,20.0072C9.97733,19.6391,9.86018,19.2123,9.86018,18.7765L9.86018,8.92691Z" fill="#FFFFFF" fill-opacity="1"/></svg>