<svg xmlns="http://www.w3.org/2000/svg" xmlns:xlink="http://www.w3.org/1999/xlink" fill="none" version="1.1" width="72" height="72" viewBox="0 0 72 72"><defs><filter id="master_svg0_1292_1343" filterUnits="userSpaceOnUse" color-interpolation-filters="sRGB" x="-2" y="4.000031471252441" width="76" height="76"><feFlood flood-opacity="0" result="BackgroundImageFix"/><feColorMatrix in="SourceAlpha" type="matrix" values="0 0 0 0 0 0 0 0 0 0 0 0 0 0 0 0 0 0 127 0"/><feOffset dy="6" dx="0"/><feGaussianBlur stdDeviation="6"/><feColorMatrix type="matrix" values="0 0 0 0 0.9764705896377563 0 0 0 0 0.6627451181411743 0 0 0 0 0.5176470875740051 0 0 0 1 0"/><feBlend mode="normal" in2="BackgroundImageFix" result="effect1_dropShadow"/><feBlend mode="normal" in="SourceGraphic" in2="effect1_dropShadow" result="shape"/></filter></defs><g style="mix-blend-mode:passthrough"><g><rect x="0" y="0" width="72" height="72" rx="36" fill="#FFEFE8" fill-opacity="1"/><g filter="url(#master_svg0_1292_1343)"><rect x="10" y="10.000031471252441" width="52" height="52" rx="26" fill="#EF814F" fill-opacity="1"/></g><path d="M40.1434,26L26.53266,26C24.5816,26,23,27.66949,23,29.72962L23,42.2701C23,44.330200000000005,24.5816,46,26.53254,46L40.1434,46C42.0944,46,43.6759,44.33,43.6759,42.2703C43.6759,42.1385,43.7345,42.0146,43.8339,41.935900000000004C43.9333,41.8571,44.061800000000005,41.833,44.1806,41.870599999999996L47.1619,44.0646C47.9186,44.3042,48.7149,43.8467,48.9404,43.042699999999996C48.9799,42.9019,49,42.7558,49,42.6089L49,29.33177C49,28.492910000000002,48.359899999999996,27.81278,47.5703,27.81278C47.432,27.81278,47.294399999999996,27.8341,47.1619,27.87608L44.1271,30.08696C44.0209,30.12063,43.906,30.099,43.817099999999996,30.02862C43.7282,29.95824,43.6759,29.84738,43.6759,29.72962C43.6759,27.66949,42.0944,26,40.1434,26ZM30.12124,32.48536C30.12124,31.56248,30.825400000000002,30.81448,31.693910000000002,30.81448C31.99181,30.81448,32.283590000000004,30.90431,32.53529,31.0736L37.8525,34.65111C38.5864,35.14486,38.804500000000004,36.1772,38.3397,36.9568C38.2154,37.1654,38.049,37.3422,37.8526,37.4744L32.53542,41.0526C31.80164,41.5464,30.83012,41.3147,30.36527,40.5351C30.205849999999998,40.2677,30.12124,39.9576,30.12124,39.6411L30.12124,32.48536Z" fill="#FFFFFF" fill-opacity="1"/></g></g></svg>