<svg xmlns="http://www.w3.org/2000/svg" xmlns:xlink="http://www.w3.org/1999/xlink" fill="none" version="1.1" width="68" height="68" viewBox="0 0 68 68"><g style="mix-blend-mode:passthrough"><g><g style="mix-blend-mode:passthrough"><ellipse cx="34" cy="34" rx="33.5" ry="33.5" fill-opacity="0" stroke-opacity="0.5" stroke="#EF814E" stroke-width="1" fill="none" stroke-dasharray=""/></g><g style="mix-blend-mode:passthrough"><ellipse cx="34" cy="34" rx="26" ry="26" fill="#EF814E" fill-opacity="1"/></g><g style="mix-blend-mode:passthrough"><g><g style="mix-blend-mode:passthrough"><g><g style="mix-blend-mode:passthrough"><rect x="18.75" y="25.75" width="17.600261688232422" height="7.76649284362793" rx="3.883246421813965" fill-opacity="0" stroke-opacity="1" stroke="#FFFFFF" stroke-width="1.5" fill="none" stroke-dasharray=""/></g><g style="mix-blend-mode:passthrough"><path d="M36.987981250000004,29.538330078125L36.987981250000004,38.311480078125Q36.987981250000004,39.864830078124996,35.88958125,40.963130078125Q34.79128125,42.061530078125,33.237981250000004,42.061530078125L21.86328125,42.061530078125Q20.30998125,42.061430078125,19.21163125,40.963130078125Q18.11328125,39.864830078124996,18.11328125,38.311480078125L18.11328125,30.117486078125L19.61328125,30.117486078125L19.61328125,38.311480078125Q19.61328125,39.243460078125,20.27229125,39.902430078125Q20.93130125,40.561530078125,21.86328125,40.561530078125L33.237981250000004,40.561530078125Q34.16998125,40.561530078125,34.82898125,39.902430078125Q35.487981250000004,39.243460078125,35.487981250000004,38.311480078125L35.487981250000004,29.538330078125L36.987981250000004,29.538330078125Z" fill="#FFFFFF" fill-opacity="1" fill-rule="evenodd"/></g><g style="mix-blend-mode:passthrough"><rect x="22.633246421813965" y="33.108181953430176" width="1.7374672889709473" height="4.633246421813965" rx="0.8687336444854736" fill="#FFFFFF" fill-opacity="0.699999988079071"/></g><g style="mix-blend-mode:passthrough"><rect x="23.791557788848877" y="28.764404296875" width="6.949869155883789" height="1.7374674081802368" rx="0.8687337040901184" fill="#FFFFFF" fill-opacity="1"/></g></g></g><g style="mix-blend-mode:passthrough"><g><g style="mix-blend-mode:passthrough"><g><g style="mix-blend-mode:passthrough"><path d="M32.762816071510315,42.94462739852905C32.762816071510315,44.60143739852905,34.105966071510316,45.94463739852905,35.762816071510315,45.94463739852905L47.13751607151032,45.94463739852905C48.794316071510316,45.94463739852905,50.13751607151032,44.60143739852905,50.13751607151032,42.94462739852905L50.13751607151032,35.68733739852905C50.13751607151032,34.582768398529055,49.242016071510314,33.68733739852905,48.13751607151032,33.68733739852905L34.762816071510315,33.68733739852905C33.65824707151032,33.68733739852905,32.762816071510315,34.582768398529055,32.762816071510315,35.68733739852905L32.762816071510315,42.94462739852905Z" fill="#EF814E" fill-opacity="1"/><path d="M35.762816071510315,45.19463739852905L47.13751607151032,45.19463739852905Q48.069516071510314,45.19463739852905,48.72851607151031,44.535637398529055Q49.38751607151032,43.876637398529056,49.38751607151032,42.94462739852905L49.38751607151032,35.68733739852905Q49.38751607151032,35.169567398529054,49.021416071510316,34.803457398529055Q48.65521607151032,34.43733739852905,48.13751607151032,34.43733739852905L34.762816071510315,34.43733739852905Q34.245046071510316,34.43733739852905,33.87893607151032,34.803457398529055Q33.512816071510315,35.169567398529054,33.512816071510315,35.68733739852905L33.512816071510315,42.94462739852905Q33.512816071510315,43.876637398529056,34.17182607151032,44.535637398529055Q34.83083607151031,45.19463739852905,35.762816071510315,45.19463739852905L35.762816071510315,45.19463739852905ZM35.762816071510315,46.69463739852905Q34.209516071510315,46.69463739852905,33.11116607151032,45.596237398529055Q32.012816071510315,44.497937398529054,32.012816071510315,42.94462739852905L32.012816071510315,35.68733739852905Q32.012816071510315,34.54825039852905,32.81827247151031,33.74279379852905Q33.62372907151031,32.93733739852905,34.762816071510315,32.93733739852905L48.13751607151032,32.93733739852905Q49.27661607151032,32.93733739852905,50.08201607151031,33.74279399852905Q50.88751607151032,34.54824939852905,50.88751607151032,35.68733739852905L50.88751607151032,42.94462739852905Q50.88751607151032,44.497937398529054,49.789116071510314,45.596237398529055Q48.69081607151031,46.69463739852905,47.13751607151032,46.69463739852905L35.762816071510315,46.69463739852905L35.762816071510315,46.69463739852905Z" fill="#FFFFFF" fill-opacity="1"/></g><g style="mix-blend-mode:passthrough"><rect x="43.483030915260315" y="37.74153661727905" width="1.7374670505523682" height="2.8276264667510986" rx="0.8687335252761841" fill="#FFFFFF" fill-opacity="0.699999988079071"/></g><g style="mix-blend-mode:passthrough"><rect x="45.79947531223297" y="37.74153661727905" width="1.7374671697616577" height="4.633246421813965" rx="0.8687335848808289" fill="#FFFFFF" fill-opacity="0.4899999833106996"/></g></g></g><g style="mix-blend-mode:passthrough"><rect x="31.899738311767578" y="29.633246421813965" width="19.100261688232422" height="9.26649284362793" rx="4.633246421813965" fill="#EF814E" fill-opacity="1"/><rect x="32.64973831176758" y="30.383246421813965" width="17.600261688232422" height="7.76649284362793" rx="3.883246421813965" fill-opacity="0" stroke-opacity="1" stroke="#FFFFFF" stroke-width="1.5" fill="none" stroke-dasharray=""/></g><g style="mix-blend-mode:passthrough"><rect x="37.691296100616455" y="33.10818123817444" width="6.949869155883789" height="1.7374674081802368" rx="0.8687337040901184" fill="#FFFFFF" fill-opacity="1"/></g></g></g></g></g></g></g></svg>