<svg xmlns="http://www.w3.org/2000/svg" xmlns:xlink="http://www.w3.org/1999/xlink" fill="none" version="1.1" width="88" height="88" viewBox="0 0 88 88"><g style="mix-blend-mode:passthrough"><g style="mix-blend-mode:passthrough"><ellipse cx="44" cy="44" rx="44" ry="44" fill="#FFFDFC" fill-opacity="1"/></g><g style="mix-blend-mode:passthrough"><g style="mix-blend-mode:passthrough"><g style="mix-blend-mode:passthrough"><g style="mix-blend-mode:passthrough"><ellipse cx="35.67171275615692" cy="24.16491198539734" rx="7.989546298980713" ry="3.164911985397339" fill-opacity="0" stroke-opacity="1" stroke="#000000" fill="none" stroke-width="2.5"/></g><g style="mix-blend-mode:passthrough"><path d="M28.93216645717621,29.13834571838379Q28.93216645717621,29.240333718383788,29.16449645717621,29.45792371838379Q29.59760645717621,29.86355871838379,30.48260645717621,30.21413571838379Q32.600896457176205,31.053255718383788,35.67171645717621,31.053255718383788Q38.74256645717621,31.053255718383788,40.86076645717621,30.21413571838379Q41.745866457176206,29.86355971838379,42.17896645717621,29.45792371838379Q42.41126645717621,29.24033271838379,42.41126645717621,29.13834571838379L44.91126645717621,29.13834571838379Q44.91126645717621,31.29863571838379,41.78156645717621,32.53841571838379Q39.21966645717621,33.55325571838379,35.67171645717621,33.55325571838379Q32.12376645717621,33.55325571838379,29.561886457176207,32.53841571838379Q26.43216645717621,31.29863571838379,26.43216645717621,29.13834571838379L28.93216645717621,29.13834571838379Z" fill="#000000" fill-opacity="1"/></g><g style="mix-blend-mode:passthrough"><path d="M28.93216645717621,33.659647941589355Q28.93216645717621,33.761635941589354,29.16449645717621,33.979225941589355Q29.59760645717621,34.38486094158935,30.48260645717621,34.73543794158935Q32.600896457176205,35.574557941589354,35.67171645717621,35.574557941589354Q38.74256645717621,35.574557941589354,40.86076645717621,34.73543794158935Q41.745866457176206,34.38486194158936,42.17896645717621,33.979225941589355Q42.41126645717621,33.76163494158936,42.41126645717621,33.659647941589355L44.91126645717621,33.659647941589355Q44.91126645717621,35.81993794158936,41.78156645717621,37.059717941589355Q39.21966645717621,38.074557941589354,35.67171645717621,38.074557941589354Q32.12376645717621,38.074557941589354,29.561886457176207,37.059717941589355Q26.43216645717621,35.81993794158936,26.43216645717621,33.659647941589355L28.93216645717621,33.659647941589355Z" fill="#000000" fill-opacity="1"/></g><g style="mix-blend-mode:passthrough"><rect x="26.45043706893921" y="23.98874020576477" width="2.487823486328125" height="9.670907020568848" rx="0" fill="#000000" fill-opacity="1"/></g><g style="mix-blend-mode:passthrough"><rect x="42.39867925643921" y="23.98874020576477" width="2.501492500305176" height="9.670907020568848" rx="0" fill="#000000" fill-opacity="1"/></g></g></g><g style="mix-blend-mode:passthrough"><g style="mix-blend-mode:passthrough"><path d="M53.72487801208496,70.6750044342041C45.42455801208496,70.6750044342041,40.08774801208496,66.3774044342041,41.99155101208496,59.9649044342041C43.89534801208496,53.552354434204105,46.62238801208496,52.437294434204105,48.70350801208496,49.6704044342041L59.36927801208496,49.6704044342041C61.45037801208496,52.437294434204105,64.03687801208497,54.9508444342041,65.51767801208496,60.5486044342041C66.99847801208496,66.1464044342041,62.025178012084965,70.6750044342041,53.72487801208496,70.6750044342041ZM58.14427801208496,52.1704044342041L49.87548801208496,52.1704044342041Q49.36261801208496,52.7483744342041,48.66949801208496,53.4589744342041Q47.11304801208496,55.0546744342041,46.40476801208496,56.123044434204104Q45.20084801208496,57.9390444342041,44.38815801208496,60.6764044342041Q43.43868801208496,63.8745044342041,45.68237801208496,65.8471044342041Q46.89127801208496,66.9099044342041,48.85620801208496,67.5135044342041Q51.00966801208496,68.1750044342041,53.72487801208496,68.1750044342041Q56.38897801208496,68.1750044342041,58.51987801208496,67.4975044342041Q60.429278012084964,66.8904044342041,61.64387801208496,65.8287044342041Q63.82427801208496,63.9229044342041,63.10077801208496,61.1880044342041Q62.36817801208496,58.4183844342041,61.050178012084956,56.1799344342041Q60.25317801208496,54.8262544342041,58.48117801208496,52.5959044342041Q58.30187801208496,52.3701844342041,58.14427801208496,52.1704044342041Z" fill-rule="evenodd" fill="#000000" fill-opacity="1"/></g><g style="mix-blend-mode:passthrough"><path d="M52.57164488708496,54.3304386138916L52.57164488708496,55.3748786138916C52.01539488708496,55.5216886138916,51.58903488708496,55.775088613891604,51.29256188708496,56.1350786138916C50.90353988708496,56.6084586138916,50.70788488708496,57.141268613891604,50.70788488708496,57.7324986138916C50.70788488708496,58.1829386138916,50.81736488708496,58.579148613891604,51.03515088708496,58.9190986138916C51.252936887084964,59.258008613891604,51.53711488708496,59.521798613891605,51.886514887084964,59.709498613891604C52.23591488708496,59.899238613891605,52.72161488708496,60.0890486138916,53.34237488708496,60.2819086138916C54.03297488708496,60.5008786138916,54.47907488708496,60.6812986138916,54.679404887084964,60.8241086138916C54.879734887084965,60.9658986138916,54.979884887084964,61.1755486138916,54.979884887084964,61.4518486138916C54.979884887084964,61.7187786138916,54.879734887084965,61.9460986138916,54.679404887084964,62.1348286138916C54.47907488708496,62.3235486138916,54.16458488708496,62.4173986138916,53.73949488708496,62.4173986138916C52.829924887084964,62.4173986138916,52.29418488708496,61.9773686138916,52.13226488708496,61.096298613891605L50.38527488708496,61.5039886138916C50.69133388708496,62.7193486138916,51.41961488708496,63.4594486138916,52.57164488708496,63.7229486138916L52.57164488708496,65.02413861389161L54.68276488708496,65.02413861389161L54.68276488708496,63.7468986138916C55.364934887084964,63.623738613891604,55.90188488708496,63.365458613891605,56.29362488708496,62.9721086138916C56.76293488708496,62.5018586138916,56.99821488708496,61.9137586138916,56.99821488708496,61.2078486138916C56.99821488708496,60.7480586138916,56.884074887084964,60.346608613891604,56.656954887084964,60.0024886138916C56.42870488708496,59.6594786138916,56.12472488708496,59.3893986138916,55.74272488708496,59.1944186138916C55.36188488708496,58.9994386138916,54.835454887084964,58.7919686138916,54.16462488708496,58.572968613891604C53.55435488708496,58.371728613891605,53.15488488708496,58.2038886138916,52.96969488708496,58.0682986138916C52.78335488708496,57.9316986138916,52.690174887084964,57.7367086138916,52.690174887084964,57.4822786138916C52.690174887084964,57.233068613891604,52.78681488708496,57.0203586138916,52.98018488708496,56.8451886138916C53.17231488708496,56.6700186138916,53.428534887084965,56.5824286138916,53.74769488708496,56.5824286138916C54.38356488708496,56.5824286138916,54.85177488708496,56.9744786138916,55.15575488708496,57.758588613891604L56.71170488708496,57.1871886138916C56.38342488708496,56.176458613891604,55.70684488708496,55.5597786138916,54.68276488708496,55.3364086138916L54.68276488708496,54.3304386138916L52.57164488708496,54.3304386138916Z" fill-rule="evenodd" fill="#EF814E" fill-opacity="1"/></g><g style="mix-blend-mode:passthrough"><path d="M54.46205629852295,46.5080334576416L58.92332629852295,46.5080334576416Q58.168426298522945,46.5080334576416,57.92802629852295,47.2235634576416L58.75482629852295,44.762873457641604Q58.69772629852295,44.9327934576416,58.84042629852295,45.0414034576416Q58.98302629852295,45.1500134576416,59.131626298522946,45.0497834576416L57.28610629852295,46.2942934576416L54.29253629852295,43.8404734576416Q54.44825629852295,43.9681134576416,54.60615629852295,43.8431634576416L51.57440629852295,46.2423334576416L48.94807629852295,44.739663457641605Q49.09712629852295,44.8249334576416,49.23021629852295,44.7164334576416Q49.36329629852295,44.607923457641604,49.30978629852295,44.4447534576416L50.22356629852295,47.2307934576416Q49.98650629852295,46.5080334576416,49.22586629852295,46.5080334576416L54.46205629852295,46.5080334576416ZM54.46205629852295,49.0080334576416L49.22586629852295,49.0080334576416Q48.75583629852295,49.0080334576416,48.37519629852295,48.7322834576416Q47.994561298522946,48.4565434576416,47.84807829852295,48.009923457641605L46.93429229852295,45.223883457641605Q46.70465529852295,44.5237434576416,46.92601829852295,43.835963457641604Q47.12957829852295,43.2034934576416,47.65043429852295,42.7788254576416Q48.17129129852295,42.3541585476416,48.831796298522946,42.282133957641605Q49.55006629852295,42.2038104576416,50.18961629852295,42.5697354576416L52.08229629852295,43.6526434576416L51.46152629852295,44.7376134576416L50.68584629852295,43.7574034576416L53.05478629852295,41.8827474576416Q53.67696629852295,41.3903874576416,54.47036629852295,41.397208457641604Q55.26375629852295,41.4040294576416,55.87738629852295,41.907013457641604L58.15122629852295,43.7708834576416L57.35882629852295,44.7376134576416L56.659946298522954,43.7012334576416L57.733926298522945,42.977030457641604Q58.36942629852295,42.5484534576416,59.11782629852295,42.5918824576416Q59.80232629852295,42.6316014576416,60.35502629852295,43.0524724576416Q60.907726298522945,43.473343457641604,61.12792629852295,44.122653457641604Q61.36882629852295,44.8326034576416,61.12462629852295,45.5592234576416L60.297726298522946,48.0199134576416Q60.14892629852295,48.4626934576416,59.76972629852295,48.735363457641604Q59.390426298522954,49.0080334576416,58.92332629852295,49.0080334576416L54.46205629852295,49.0080334576416Z" fill="#000000" fill-opacity="1"/></g></g><g style="mix-blend-mode:passthrough" transform="matrix(0.9320078492164612,0.36243805289268494,-0.36243805289268494,0.9320078492164612,17.992158746309485,-5.695259385590248)"><g style="mix-blend-mode:passthrough"><path d="M38.26482103271484,55.695860025024416Q34.900421032714846,55.695860025024416,31.826021032714845,54.39544002502441Q28.857411032714843,53.13981002502442,26.568691032714845,50.85107002502441Q24.279978032714844,48.562330025024416,23.024361032714843,45.593696025024414L25.326881032714844,44.61982502502441Q26.392551032714845,47.13937002502441,28.336471032714844,49.08332002502441Q30.280391032714846,51.02726002502441,32.799911032714846,52.09294002502441Q35.40742103271484,53.19584002502441,38.26482103271484,53.19584002502441L38.26482103271484,55.695860025024416ZM39.51482103271484,54.44584002502441Q39.51482103271484,54.507240025024416,39.50882103271484,54.56836002502442Q39.50282103271484,54.62947002502442,39.49082103271485,54.689700025024415Q39.47882103271485,54.74993002502441,39.46102103271484,54.80869002502442Q39.443221032714845,54.86745002502441,39.41972103271485,54.924190025024416Q39.39622103271484,54.98092002502442,39.367221032714845,55.03508002502441Q39.338321032714845,55.08924002502442,39.30422103271484,55.14026002502442Q39.27012103271484,55.191360025024416,39.231121032714846,55.238860025024415Q39.19222103271484,55.28626002502442,39.148721032714846,55.32976002502441Q39.10532103271484,55.37316002502442,39.05782103271484,55.41206002502442Q39.010421032714845,55.45106002502442,38.95932103271484,55.48516002502441Q38.90822103271484,55.519260025024415,38.85412103271484,55.54826002502441Q38.79992103271484,55.57716002502441,38.74322103271484,55.60066002502441Q38.68652103271484,55.624160025024416,38.627721032714845,55.64206002502441Q38.56892103271484,55.659860025024415,38.508721032714845,55.671860025024415Q38.448521032714844,55.68376002502441,38.38742103271484,55.689860025024416Q38.326321032714844,55.695860025024416,38.26482103271484,55.695860025024416Q38.20342103271484,55.695860025024416,38.14232103271485,55.689860025024416Q38.08122103271484,55.68376002502441,38.02102103271484,55.671860025024415Q37.96082103271485,55.659860025024415,37.90202103271484,55.64206002502441Q37.843221032714844,55.624160025024416,37.786521032714845,55.60066002502441Q37.729821032714845,55.57716002502441,37.675621032714844,55.54826002502441Q37.62142103271484,55.519260025024415,37.57042103271485,55.48516002502441Q37.51932103271484,55.45106002502442,37.471921032714846,55.41206002502442Q37.42442103271485,55.37316002502442,37.38102103271484,55.32976002502441Q37.33752103271485,55.28626002502442,37.29862103271484,55.238860025024415Q37.25962103271485,55.191360025024416,37.225521032714845,55.14026002502442Q37.19142103271484,55.08924002502442,37.162421032714846,55.03508002502441Q37.133521032714846,54.98092002502442,37.11002103271484,54.924190025024416Q37.08652103271484,54.86745002502441,37.06872103271485,54.80869002502442Q37.05082103271484,54.74993002502441,37.038921032714846,54.689700025024415Q37.026921032714846,54.62947002502442,37.020921032714845,54.56836002502442Q37.01482103271484,54.507240025024416,37.01482103271484,54.44584002502441Q37.01482103271484,54.384430025024415,37.020921032714845,54.32331002502441Q37.026921032714846,54.26220002502441,37.038921032714846,54.201970025024416Q37.05082103271484,54.14174002502441,37.06872103271485,54.08298002502441Q37.08652103271484,54.024210025024416,37.11002103271484,53.967480025024415Q37.133521032714846,53.91075002502441,37.162421032714846,53.85659002502442Q37.19142103271484,53.802430025024414,37.225521032714845,53.751370025024414Q37.25962103271485,53.700310025024415,37.29862103271484,53.65284002502442Q37.33752103271485,53.60537002502441,37.38102103271484,53.561950025024416Q37.42442103271485,53.51853002502442,37.471921032714846,53.479570025024415Q37.51932103271484,53.44061002502441,37.57042103271485,53.406500025024414Q37.62142103271484,53.37238002502441,37.675621032714844,53.34343002502442Q37.729821032714845,53.31449002502441,37.786521032714845,53.29099002502441Q37.843221032714844,53.267490025024415,37.90202103271484,53.24966002502441Q37.96082103271485,53.231830025024415,38.02102103271484,53.219850025024414Q38.08122103271484,53.207880025024416,38.14232103271485,53.20185002502441Q38.20342103271484,53.19584002502441,38.26482103271484,53.19584002502441Q38.326321032714844,53.19584002502441,38.38742103271484,53.20185002502441Q38.448521032714844,53.207880025024416,38.508721032714845,53.219850025024414Q38.56892103271484,53.231830025024415,38.627721032714845,53.24966002502441Q38.68652103271484,53.267490025024415,38.74322103271484,53.29099002502441Q38.79992103271484,53.31449002502441,38.85412103271484,53.34343002502442Q38.90822103271484,53.37238002502441,38.95932103271484,53.406500025024414Q39.010421032714845,53.44061002502441,39.05782103271484,53.479570025024415Q39.10532103271484,53.51853002502442,39.148721032714846,53.561950025024416Q39.19222103271484,53.60537002502441,39.231121032714846,53.65284002502442Q39.27012103271484,53.700310025024415,39.30422103271484,53.751370025024414Q39.338321032714845,53.802430025024414,39.367221032714845,53.85659002502442Q39.39622103271484,53.91075002502441,39.41972103271485,53.967480025024415Q39.443221032714845,54.024210025024416,39.46102103271484,54.08298002502441Q39.47882103271485,54.14174002502441,39.49082103271485,54.201970025024416Q39.50282103271484,54.26220002502441,39.50882103271484,54.32331002502441Q39.51482103271484,54.384430025024415,39.51482103271484,54.44584002502441ZM25.425621032714844,45.106760025024414Q25.425621032714844,45.168168625024414,25.419601032714844,45.22928102502441Q25.413581032714845,45.29039402502441,25.401601032714844,45.35062302502441Q25.389621032714842,45.410851025024414,25.371801032714842,45.469616025024415Q25.353971032714846,45.52838002502441,25.330471032714843,45.58511402502442Q25.306971032714845,45.641848025024416,25.278021032714843,45.69600602502442Q25.249071032714845,45.75016302502441,25.214961032714843,45.80122302502441Q25.180841032714845,45.852282025024415,25.141884032714845,45.89975202502441Q25.102927032714845,45.94722102502441,25.059504032714845,45.99064302502441Q25.016082032714845,46.034066025024416,24.968613032714845,46.07302302502441Q24.921143032714845,46.111980025024415,24.870084032714843,46.14610002502442Q24.819024032714843,46.180210025024415,24.764867032714843,46.20916002502442Q24.710709032714846,46.23811002502441,24.653975032714843,46.26161002502442Q24.597241032714845,46.285110025024416,24.538477032714844,46.30294002502441Q24.479712032714843,46.32076002502441,24.419484032714845,46.332740025024414Q24.359255032714845,46.344720025024415,24.298142032714843,46.350740025024415Q24.237029632714844,46.356760025024414,24.175621032714844,46.356760025024414Q24.114212432714844,46.356760025024414,24.053100032714845,46.350740025024415Q23.991987032714842,46.344720025024415,23.931758032714843,46.332740025024414Q23.871530032714844,46.32076002502441,23.812765032714843,46.30294002502441Q23.754001032714843,46.285110025024416,23.697267032714844,46.26161002502442Q23.640533032714842,46.23811002502441,23.586375032714844,46.20916002502442Q23.532218032714844,46.180210025024415,23.481158032714845,46.14610002502442Q23.430099032714843,46.111980025024415,23.382629032714842,46.07302302502441Q23.335160032714843,46.034066025024416,23.291738032714843,45.99064302502441Q23.248315032714842,45.94722102502441,23.209358032714842,45.89975202502441Q23.170401032714842,45.852282025024415,23.136281032714844,45.80122302502441Q23.102171032714843,45.75016302502441,23.073221032714844,45.69600602502442Q23.044271032714843,45.641848025024416,23.020771032714844,45.58511402502442Q22.997271032714842,45.52838002502441,22.979441032714846,45.469616025024415Q22.961621032714845,45.410851025024414,22.949641032714844,45.35062302502441Q22.937661032714843,45.29039402502441,22.931641032714843,45.22928102502441Q22.925621032714844,45.168168625024414,22.925621032714844,45.106760025024414Q22.925621032714844,45.045351425024414,22.931641032714843,44.984239025024415Q22.937661032714843,44.923126025024416,22.949641032714844,44.86289702502442Q22.961621032714845,44.802669025024414,22.979441032714846,44.74390402502441Q22.997271032714842,44.68514002502442,23.020771032714844,44.62840602502441Q23.044271032714843,44.57167202502441,23.073221032714844,44.51751402502441Q23.102171032714843,44.463357025024415,23.136281032714844,44.412297025024415Q23.170401032714842,44.36123802502441,23.209358032714842,44.313768025024416Q23.248315032714842,44.266299025024416,23.291738032714843,44.22287702502442Q23.335160032714843,44.17945402502441,23.382629032714842,44.140497025024416Q23.430099032714843,44.10154002502441,23.481158032714845,44.06742002502441Q23.532218032714844,44.03331002502441,23.586375032714844,44.00436002502441Q23.640533032714842,43.975410025024416,23.697267032714844,43.95191002502441Q23.754001032714843,43.92841002502441,23.812765032714843,43.910580025024416Q23.871530032714844,43.892760025024415,23.931758032714843,43.880780025024414Q23.991987032714842,43.86880002502441,24.053100032714845,43.86278002502441Q24.114212432714844,43.856760025024414,24.175621032714844,43.856760025024414Q24.237029632714844,43.856760025024414,24.298142032714843,43.86278002502441Q24.359255032714845,43.86880002502441,24.419484032714845,43.880780025024414Q24.479712032714843,43.892760025024415,24.538477032714844,43.910580025024416Q24.597241032714845,43.92841002502441,24.653975032714843,43.95191002502441Q24.710709032714846,43.975410025024416,24.764867032714843,44.00436002502441Q24.819024032714843,44.03331002502441,24.870084032714843,44.06742002502441Q24.921143032714845,44.10154002502441,24.968613032714845,44.140497025024416Q25.016082032714845,44.17945402502441,25.059504032714845,44.22287702502442Q25.102927032714845,44.266299025024416,25.141884032714845,44.313768025024416Q25.180841032714845,44.36123802502441,25.214961032714843,44.412297025024415Q25.249071032714845,44.463357025024415,25.278021032714843,44.51751402502441Q25.306971032714845,44.57167202502441,25.330471032714843,44.62840602502441Q25.353971032714846,44.68514002502442,25.371801032714842,44.74390402502441Q25.389621032714842,44.802669025024414,25.401601032714844,44.86289702502442Q25.413581032714845,44.923126025024416,25.419601032714844,44.984239025024415Q25.425621032714844,45.045351425024414,25.425621032714844,45.106760025024414Z" fill="#000000" fill-opacity="1"/></g><g style="mix-blend-mode:passthrough"><path d="M30.543653084716798,55.42937902087402L37.909703084716796,53.24731702087402L38.6197830847168,55.644357020874025L31.253733084716796,57.826417020874025L30.543653084716798,55.42937902087402ZM32.1486930847168,56.62789702087402Q32.1486930847168,56.689307020874026,32.1426730847168,56.750417020874025Q32.1366530847168,56.811527020874024,32.1246730847168,56.87175702087402Q32.112693084716796,56.931987020874026,32.094873084716795,56.99075702087402Q32.0770430847168,57.04951702087402,32.0535430847168,57.10624702087402Q32.030043084716795,57.16298702087403,32.0010930847168,57.21714702087402Q31.972143084716798,57.27129702087402,31.938033084716796,57.32235702087402Q31.903913084716798,57.37341702087402,31.8649560847168,57.42088702087403Q31.8259990847168,57.46835702087402,31.782576084716798,57.51177702087402Q31.739154084716798,57.55520702087402,31.6916850847168,57.59415702087402Q31.644215084716798,57.633117020874025,31.593156084716796,57.667237020874026Q31.542096084716796,57.701347020874024,31.487939084716796,57.730297020874026Q31.4337810847168,57.75924702087402,31.377047084716796,57.78274702087403Q31.320313084716798,57.806247020874025,31.261549084716798,57.82407702087402Q31.202784084716797,57.84189702087402,31.142556084716798,57.85387702087402Q31.0823270847168,57.865857020874024,31.021214084716796,57.871877020874024Q30.960101684716797,57.87789702087402,30.898693084716797,57.87789702087402Q30.837284484716797,57.87789702087402,30.776172084716798,57.871877020874024Q30.715059084716795,57.865857020874024,30.654830084716796,57.85387702087402Q30.594602084716797,57.84189702087402,30.535837084716796,57.82407702087402Q30.477073084716796,57.806247020874025,30.420339084716797,57.78274702087403Q30.363605084716795,57.75924702087402,30.309447084716798,57.730297020874026Q30.255290084716798,57.701347020874024,30.204230084716798,57.667237020874026Q30.153171084716796,57.633117020874025,30.105701084716795,57.59415702087402Q30.058232084716796,57.55520702087402,30.014810084716796,57.51177702087402Q29.971387084716795,57.46835702087402,29.932430084716795,57.42088702087403Q29.893473084716796,57.37341702087402,29.859353084716798,57.32235702087402Q29.825243084716796,57.27129702087402,29.796293084716797,57.21714702087402Q29.767343084716796,57.16298702087403,29.743843084716797,57.10624702087402Q29.720343084716795,57.04951702087402,29.7025130847168,56.99075702087402Q29.6846930847168,56.931987020874026,29.672713084716797,56.87175702087402Q29.660733084716796,56.811527020874024,29.654713084716796,56.750417020874025Q29.648693084716797,56.689307020874026,29.648693084716797,56.62789702087402Q29.648693084716797,56.56648702087402,29.654713084716796,56.50537702087402Q29.660733084716796,56.44426702087402,29.672713084716797,56.384037020874025Q29.6846930847168,56.32380702087402,29.7025130847168,56.265037020874026Q29.720343084716795,56.206277020874026,29.743843084716797,56.149547020874024Q29.767343084716796,56.09280702087403,29.796293084716797,56.03864702087402Q29.825243084716796,55.984497020874024,29.859353084716798,55.933437020874024Q29.893473084716796,55.882377020874024,29.932430084716795,55.83490702087402Q29.971387084716795,55.78743702087402,30.014810084716796,55.744017020874026Q30.058232084716796,55.700587020874025,30.105701084716795,55.661637020874025Q30.153171084716796,55.62267702087402,30.204230084716798,55.58855702087402Q30.255290084716798,55.55444702087402,30.309447084716798,55.52549702087402Q30.363605084716795,55.496547020874026,30.420339084716797,55.47304702087402Q30.477073084716796,55.44954702087402,30.535837084716796,55.43172202087403Q30.594602084716797,55.41389602087402,30.654830084716796,55.401916020874026Q30.715059084716795,55.389936020874025,30.776172084716798,55.38391702087402Q30.837284484716797,55.37789802087402,30.898693084716797,55.37789702087402Q30.960101684716797,55.37789802087402,31.021214084716796,55.38391702087402Q31.0823270847168,55.389936020874025,31.142556084716798,55.401916020874026Q31.202784084716797,55.41389602087402,31.261549084716798,55.43172202087403Q31.320313084716798,55.44954702087402,31.377047084716796,55.47304702087402Q31.4337810847168,55.496547020874026,31.487939084716796,55.52549702087402Q31.542096084716796,55.55444702087402,31.593156084716796,55.58855702087402Q31.644215084716798,55.62267702087402,31.6916850847168,55.661637020874025Q31.739154084716798,55.700587020874025,31.782576084716798,55.744017020874026Q31.8259990847168,55.78743702087402,31.8649560847168,55.83490702087402Q31.903913084716798,55.882377020874024,31.938033084716796,55.933437020874024Q31.972143084716798,55.984497020874024,32.0010930847168,56.03864702087402Q32.030043084716795,56.09280702087403,32.0535430847168,56.149547020874024Q32.0770430847168,56.206277020874026,32.094873084716795,56.265037020874026Q32.112693084716796,56.32380702087402,32.1246730847168,56.384037020874025Q32.1366530847168,56.44426702087402,32.1426730847168,56.50537702087402Q32.1486930847168,56.56648702087402,32.1486930847168,56.62789702087402ZM39.5147430847168,54.44583702087402Q39.5147430847168,54.50724562087402,39.5087230847168,54.56835802087402Q39.5027030847168,54.62947102087402,39.4907230847168,54.68970002087402Q39.4787430847168,54.74992802087402,39.460923084716796,54.808693020874024Q39.44309308471679,54.86745702087402,39.419593084716794,54.92419102087403Q39.396093084716796,54.980925020874025,39.3671430847168,55.035083020874026Q39.3381930847168,55.08924002087402,39.304083084716794,55.14030002087402Q39.2699630847168,55.191359020874025,39.2310030847168,55.23882902087402Q39.1920530847168,55.28629802087402,39.148623084716796,55.32972002087402Q39.1052030847168,55.373143020874025,39.057733084716794,55.41210002087402Q39.0102630847168,55.451057020874025,38.9592030847168,55.485177020874026Q38.9081430847168,55.519287020874025,38.8539930847168,55.548237020874026Q38.799833084716795,55.57718702087402,38.7430930847168,55.60068702087403Q38.686363084716795,55.624187020874025,38.627603084716796,55.64201702087402Q38.5688330847168,55.65983702087402,38.508603084716796,55.67181702087402Q38.448383084716795,55.683797020874024,38.3872630847168,55.689817020874024Q38.32615308471679,55.69583702087402,38.2647430847168,55.69583702087402Q38.203333084716796,55.69583702087402,38.1422230847168,55.689817020874024Q38.0811130847168,55.683797020874024,38.0208830847168,55.67181702087402Q37.960653084716796,55.65983702087402,37.9018830847168,55.64201702087402Q37.843123084716794,55.624187020874025,37.7863930847168,55.60068702087403Q37.729653084716794,55.57718702087402,37.6754930847168,55.548237020874026Q37.6213430847168,55.519287020874025,37.5702830847168,55.485177020874026Q37.5192230847168,55.451057020874025,37.471753084716795,55.41210002087402Q37.4242830847168,55.373143020874025,37.38086308471679,55.32972002087402Q37.337443084716796,55.28629802087402,37.2984830847168,55.23882902087402Q37.2595230847168,55.191359020874025,37.225403084716795,55.14030002087402Q37.1912930847168,55.08924002087402,37.162343084716795,55.035083020874026Q37.1333930847168,54.980925020874025,37.109893084716795,54.92419102087403Q37.086393084716796,54.86745702087402,37.068573084716796,54.808693020874024Q37.0507430847168,54.74992802087402,37.0387630847168,54.68970002087402Q37.0267830847168,54.62947102087402,37.0207630847168,54.56835802087402Q37.0147430847168,54.50724562087402,37.0147430847168,54.44583702087402Q37.0147430847168,54.38442842087402,37.0207630847168,54.323316020874024Q37.0267830847168,54.262203020874026,37.0387630847168,54.201974020874026Q37.0507430847168,54.141746020874024,37.068573084716796,54.08298102087402Q37.086393084716796,54.024217020874026,37.109893084716795,53.96748302087402Q37.1333930847168,53.91074902087402,37.162343084716795,53.85659102087402Q37.1912930847168,53.802434020874024,37.225403084716795,53.751374020874024Q37.2595230847168,53.70031502087402,37.2984830847168,53.652845020874025Q37.337443084716796,53.605376020874026,37.38086308471679,53.561954020874026Q37.4242830847168,53.51853102087402,37.471753084716795,53.479574020874026Q37.5192230847168,53.44061702087402,37.5702830847168,53.40649702087402Q37.6213430847168,53.37238702087402,37.6754930847168,53.34343702087402Q37.729653084716794,53.314487020874026,37.7863930847168,53.29098702087402Q37.843123084716794,53.26748702087402,37.9018930847168,53.249657020874025Q37.960653084716796,53.231837020874025,38.0208830847168,53.219857020874024Q38.0811130847168,53.20787702087402,38.1422230847168,53.20185702087402Q38.203333084716796,53.19583702087402,38.2647430847168,53.19583702087402Q38.32615308471679,53.19583702087402,38.3872630847168,53.20185702087402Q38.448383084716795,53.20787702087402,38.508603084716796,53.219857020874024Q38.5688330847168,53.231837020874025,38.627603084716796,53.249657020874025Q38.686363084716795,53.26748702087402,38.7430930847168,53.29098702087402Q38.799833084716795,53.314487020874026,38.8539930847168,53.34343702087402Q38.9081430847168,53.37238702087402,38.9592030847168,53.40649702087402Q39.0102630847168,53.44061702087402,39.057733084716794,53.479574020874026Q39.1052030847168,53.51853102087402,39.148623084716796,53.561954020874026Q39.1920530847168,53.605376020874026,39.2310030847168,53.652845020874025Q39.2699630847168,53.70031502087402,39.304083084716794,53.751374020874024Q39.3381930847168,53.802434020874024,39.3671430847168,53.85659102087402Q39.396093084716796,53.91074902087402,39.419593084716794,53.96748302087402Q39.44309308471679,54.024217020874026,39.460923084716796,54.08298102087402Q39.4787430847168,54.141746020874024,39.4907230847168,54.201974020874026Q39.5027030847168,54.262203020874026,39.5087230847168,54.323316020874024Q39.5147430847168,54.38442842087402,39.5147430847168,54.44583702087402Z" fill="#000000" fill-opacity="1"/></g></g><g style="mix-blend-mode:passthrough" transform="matrix(-0.9660579562187195,-0.2583253085613251,0.2583253085613251,-0.9660579562187195,114.61614429397974,92.7244557579495)"><g style="mix-blend-mode:passthrough"><path d="M77.48902305297851,49.42147648010254Q74.12462305297852,49.42147648010254,71.05013305297851,48.12105648010254Q68.08152305297851,46.86542648010254,65.79280305297851,44.57668648010254Q63.504083052978515,42.28794648010254,62.248463052978515,39.31931348010254L64.55098305297851,38.34544048010254Q65.61664305297852,40.86498648010254,67.56057305297851,42.80892648010254Q69.50450305297852,44.752876480102536,72.02402305297852,45.81854648010254Q74.63152305297851,46.92144648010254,77.48902305297851,46.92144648010254L77.48902305297851,49.42147648010254ZM78.73902305297851,48.17144648010254Q78.73902305297851,48.23285648010254,78.73292305297852,48.29396648010254Q78.72692305297852,48.35507648010254,78.71492305297852,48.41530648010254Q78.70302305297852,48.47553648010254,78.68512305297851,48.53429648010254Q78.66732305297852,48.593066480102536,78.64382305297852,48.64979648010254Q78.62032305297852,48.70653648010254,78.59142305297851,48.760686480102535Q78.56242305297852,48.81484648010254,78.52832305297852,48.86587648010254Q78.49422305297851,48.91697648010254,78.45522305297851,48.96447648010254Q78.41632305297851,49.01187648010254,78.37282305297852,49.055276480102535Q78.32942305297851,49.09877648010254,78.28202305297852,49.13767648010254Q78.23452305297852,49.17667648010254,78.18342305297851,49.21077648010254Q78.13242305297851,49.24487648010254,78.07822305297852,49.27387648010254Q78.02402305297852,49.30277648010254,77.96732305297851,49.326276480102536Q77.91062305297851,49.34977648010254,77.85182305297852,49.36757648010254Q77.79312305297852,49.38547648010254,77.73282305297852,49.39737648010254Q77.67262305297851,49.40937648010254,77.61152305297851,49.41537648010254Q77.55042305297852,49.42147648010254,77.48902305297851,49.42147648010254Q77.42762305297852,49.42147648010254,77.36642305297852,49.41537648010254Q77.30532305297851,49.40937648010254,77.24512305297851,49.39737648010254Q77.18492305297852,49.38547648010254,77.12612305297851,49.36757648010254Q77.06732305297851,49.34977648010254,77.01062305297852,49.326276480102536Q76.95392305297851,49.30277648010254,76.89972305297852,49.27387648010254Q76.84562305297851,49.24487648010254,76.79452305297852,49.21077648010254Q76.74342305297851,49.17667648010254,76.69602305297852,49.13767648010254Q76.64852305297852,49.09877648010254,76.60512305297851,49.055276480102535Q76.56172305297852,49.01187648010254,76.52272305297852,48.96447648010254Q76.48372305297852,48.91697648010254,76.44962305297851,48.86587648010254Q76.41552305297851,48.81484648010254,76.38662305297852,48.760686480102535Q76.35762305297851,48.70653648010254,76.33412305297851,48.64979648010254Q76.31062305297851,48.593066480102536,76.29282305297852,48.53429648010254Q76.27502305297851,48.47553648010254,76.26302305297851,48.41530648010254Q76.25102305297851,48.35507648010254,76.24502305297851,48.29396648010254Q76.23902305297851,48.23285648010254,76.23902305297851,48.17144648010254Q76.23902305297851,48.110036480102536,76.24502305297851,48.04892648010254Q76.25102305297851,47.98780648010254,76.26302305297851,47.92757648010254Q76.27502305297851,47.867356480102536,76.29282305297852,47.80858648010254Q76.31062305297851,47.74982648010254,76.33412305297851,47.69308648010254Q76.35762305297851,47.636356480102535,76.38662305297852,47.58219648010254Q76.41552305297851,47.52803648010254,76.44962305297851,47.476976480102536Q76.48372305297852,47.42591648010254,76.52272305297852,47.37845648010254Q76.56172305297852,47.33098648010254,76.60512305297851,47.28755648010254Q76.64852305297852,47.24413648010254,76.69602305297852,47.20517648010254Q76.74342305297851,47.16622648010254,76.79452305297852,47.132106480102536Q76.84562305297851,47.09798648010254,76.89972305297852,47.06904648010254Q76.95392305297851,47.04009648010254,77.01062305297852,47.016596480102535Q77.06732305297851,46.99309648010254,77.12612305297851,46.97526648010254Q77.18492305297852,46.95744648010254,77.24512305297851,46.94546648010254Q77.30532305297851,46.93348648010254,77.36642305297852,46.92746648010254Q77.42762305297852,46.92144648010254,77.48902305297851,46.92144648010254Q77.55042305297852,46.92144648010254,77.61152305297851,46.92746648010254Q77.67262305297851,46.93348648010254,77.73282305297852,46.94546648010254Q77.79312305297852,46.95744648010254,77.85182305297852,46.97526648010254Q77.91062305297851,46.99309648010254,77.96732305297851,47.016596480102535Q78.02402305297852,47.04009648010254,78.07822305297852,47.06904648010254Q78.13242305297851,47.09798648010254,78.18342305297851,47.132106480102536Q78.23452305297852,47.16622648010254,78.28202305297852,47.20517648010254Q78.32942305297851,47.24413648010254,78.37282305297852,47.28755648010254Q78.41632305297851,47.33098648010254,78.45522305297851,47.37845648010254Q78.49422305297851,47.42591648010254,78.52832305297852,47.476976480102536Q78.56242305297852,47.52803648010254,78.59142305297851,47.58219648010254Q78.62032305297852,47.636356480102535,78.64382305297852,47.69308648010254Q78.66732305297852,47.74982648010254,78.68512305297851,47.80858648010254Q78.70302305297852,47.867356480102536,78.71492305297852,47.92757648010254Q78.72692305297852,47.98780648010254,78.73292305297852,48.04892648010254Q78.73902305297851,48.110036480102536,78.73902305297851,48.17144648010254ZM64.64972305297852,38.83237648010254Q64.64972305297852,38.89378508010254,64.64370305297851,38.95489748010254Q64.63768305297852,39.01601048010254,64.62570305297852,39.07623948010254Q64.61372305297851,39.13646748010254,64.59590305297851,39.19523248010254Q64.57807305297851,39.253996480102536,64.55457305297851,39.31073048010254Q64.53107305297851,39.36746448010254,64.50212305297852,39.42162248010254Q64.47317305297851,39.47577948010254,64.43906305297851,39.52683948010254Q64.40494305297851,39.57789848010254,64.36598605297851,39.62536848010254Q64.32702905297852,39.67283748010254,64.28360605297851,39.716259480102536Q64.24018405297852,39.75968248010254,64.19271505297851,39.79863948010254Q64.14524505297851,39.83759648010254,64.09418605297851,39.87171648010254Q64.04312605297852,39.90582648010254,63.98896905297852,39.93477648010254Q63.93481105297852,39.96372648010254,63.87807705297852,39.98722648010254Q63.82134305297851,40.01072648010254,63.762579052978516,40.02855648010254Q63.703814052978515,40.04637648010254,63.64358605297851,40.05835648010254Q63.58335705297851,40.07033648010254,63.522244052978515,40.07635648010254Q63.461131652978516,40.08237648010254,63.399723052978516,40.08237648010254Q63.338314452978516,40.08237648010254,63.27720205297852,40.07635648010254Q63.21608905297852,40.07033648010254,63.15586005297852,40.05835648010254Q63.095632052978516,40.04637648010254,63.036867052978515,40.02855648010254Q62.97810305297852,40.01072648010254,62.92136905297851,39.98722648010254Q62.864635052978514,39.96372648010254,62.81047705297851,39.93477648010254Q62.756320052978516,39.90582648010254,62.70526005297852,39.87171648010254Q62.654201052978514,39.83759648010254,62.60673105297852,39.79863948010254Q62.55926205297852,39.75968248010254,62.51584005297852,39.716259480102536Q62.472417052978514,39.67283748010254,62.43346005297852,39.62536848010254Q62.394503052978514,39.57789848010254,62.36038305297851,39.52683948010254Q62.326273052978514,39.47577948010254,62.29732305297851,39.42162248010254Q62.26837305297852,39.36746448010254,62.24487305297851,39.31073048010254Q62.221373052978514,39.253996480102536,62.20354305297852,39.19523248010254Q62.18572305297852,39.13646748010254,62.173743052978516,39.07623948010254Q62.161763052978515,39.01601048010254,62.155743052978515,38.95489748010254Q62.149723052978516,38.89378508010254,62.149723052978516,38.83237648010254Q62.149723052978516,38.77096788010254,62.155743052978515,38.70985548010254Q62.161763052978515,38.64874248010254,62.173743052978516,38.58851348010254Q62.18572305297852,38.52828548010254,62.20354305297852,38.46952048010254Q62.221373052978514,38.41075648010254,62.24487305297851,38.354022480102536Q62.26837305297852,38.29728848010254,62.29732305297851,38.243130480102536Q62.326273052978514,38.18897348010254,62.36038305297851,38.13791348010254Q62.394503052978514,38.08685448010254,62.43346005297852,38.03938448010254Q62.472417052978514,37.99191548010254,62.51584005297852,37.94849348010254Q62.55926205297852,37.90507048010254,62.60673105297852,37.86611348010254Q62.654201052978514,37.82715648010254,62.70526005297852,37.793036480102536Q62.756320052978516,37.75892648010254,62.81047705297851,37.729976480102536Q62.864635052978514,37.70102648010254,62.92136905297851,37.677526480102536Q62.97810305297852,37.65402648010254,63.036867052978515,37.63619648010254Q63.095632052978516,37.61837648010254,63.15586005297852,37.60639648010254Q63.21608905297852,37.59441648010254,63.27720205297852,37.58839648010254Q63.338314452978516,37.58237648010254,63.399723052978516,37.58237648010254Q63.461131652978516,37.58237648010254,63.522244052978515,37.58839648010254Q63.58335705297851,37.59441648010254,63.64358605297851,37.60639648010254Q63.703814052978515,37.61837648010254,63.762579052978516,37.63619648010254Q63.82134305297851,37.65402648010254,63.87807705297852,37.677526480102536Q63.93481105297852,37.70102648010254,63.98896905297852,37.729976480102536Q64.04312605297852,37.75892648010254,64.09418605297851,37.793036480102536Q64.14524505297851,37.82715648010254,64.19271505297851,37.86611348010254Q64.24018405297852,37.90507048010254,64.28360605297851,37.94849348010254Q64.32702905297852,37.99191548010254,64.36598605297851,38.03938448010254Q64.40494305297851,38.08685448010254,64.43906305297851,38.13791348010254Q64.47317305297851,38.18897348010254,64.50212305297852,38.243130480102536Q64.53107305297851,38.29728848010254,64.55457305297851,38.354022480102536Q64.57807305297851,38.41075648010254,64.59590305297851,38.46952048010254Q64.61372305297851,38.52828548010254,64.62570305297852,38.58851348010254Q64.63768305297852,38.64874248010254,64.64370305297851,38.70985548010254Q64.64972305297852,38.77096788010254,64.64972305297852,38.83237648010254Z" fill="#000000" fill-opacity="1"/></g><g style="mix-blend-mode:passthrough"><path d="M69.7677603501892,49.15498880023193L77.13381035018921,46.97292680023193L77.84389035018921,49.369966800231936L70.47784035018921,51.552026800231936L69.7677603501892,49.15498880023193ZM71.37280035018921,50.35350680023193Q71.37280035018921,50.414916800231936,71.3667803501892,50.476026800231935Q71.36076035018921,50.537136800231934,71.34878035018922,50.59736680023193Q71.33680035018921,50.657596800231936,71.31898035018921,50.71636680023193Q71.3011503501892,50.77512680023193,71.2776503501892,50.83185680023193Q71.2541503501892,50.88859680023194,71.22520035018921,50.94275680023193Q71.1962503501892,50.99690680023193,71.1621403501892,51.04796680023193Q71.1280203501892,51.09902680023193,71.0890633501892,51.14649680023194Q71.05010635018921,51.193966800231934,71.0066833501892,51.23738680023193Q70.96326135018921,51.28081680023193,70.91579235018921,51.31976680023193Q70.8683223501892,51.358726800231935,70.81726335018921,51.392846800231936Q70.76620335018922,51.426956800231935,70.71204635018921,51.455906800231936Q70.65788835018921,51.48485680023193,70.6011543501892,51.50835680023194Q70.54442035018921,51.531856800231935,70.4856563501892,51.54968680023193Q70.42689135018921,51.56750680023193,70.36666335018921,51.57948680023193Q70.3064343501892,51.591466800231935,70.24532135018922,51.597486800231934Q70.1842089501892,51.60350680023193,70.12280035018921,51.60350680023193Q70.06139175018922,51.60350680023193,70.0002793501892,51.597486800231934Q69.93916635018921,51.591466800231935,69.8789373501892,51.57948680023193Q69.81870935018921,51.56750680023193,69.75994435018922,51.54968680023193Q69.7011803501892,51.531856800231935,69.64444635018921,51.50835680023194Q69.58771235018921,51.48485680023193,69.5335543501892,51.455906800231936Q69.4793973501892,51.426956800231935,69.42833735018921,51.392846800231936Q69.37727835018921,51.358726800231935,69.32980835018921,51.31976680023193Q69.2823393501892,51.28081680023193,69.23891735018921,51.23738680023193Q69.19549435018921,51.193966800231934,69.15653735018921,51.14649680023194Q69.11758035018921,51.09902680023193,69.08346035018921,51.04796680023193Q69.04935035018921,50.99690680023193,69.0204003501892,50.94275680023193Q68.99145035018921,50.88859680023194,68.96795035018921,50.83185680023193Q68.94445035018921,50.77512680023193,68.92662035018921,50.71636680023193Q68.90880035018921,50.657596800231936,68.8968203501892,50.59736680023193Q68.88484035018921,50.537136800231934,68.87882035018922,50.476026800231935Q68.87280035018921,50.414916800231936,68.87280035018921,50.35350680023193Q68.87280035018921,50.29209680023193,68.87882035018922,50.23098680023193Q68.88484035018921,50.16987680023193,68.8968203501892,50.109646800231936Q68.90880035018921,50.04941680023193,68.92662035018921,49.990646800231936Q68.94445035018921,49.931886800231936,68.96795035018921,49.875156800231935Q68.99145035018921,49.81841680023194,69.0204003501892,49.764256800231934Q69.04935035018921,49.710106800231934,69.08346035018921,49.659046800231934Q69.11758035018921,49.607986800231934,69.15653735018921,49.56051680023193Q69.19549435018921,49.51304680023193,69.23891735018921,49.469626800231936Q69.2823393501892,49.426196800231935,69.32980835018921,49.387246800231935Q69.37727835018921,49.34828680023193,69.42833735018921,49.31416680023193Q69.4793973501892,49.28005680023193,69.5335543501892,49.25110680023193Q69.58771235018921,49.222156800231936,69.64444635018921,49.19865680023193Q69.7011803501892,49.17515680023193,69.75994435018922,49.15733180023194Q69.81870935018921,49.13950580023193,69.8789373501892,49.127525800231936Q69.93916635018921,49.115545800231935,70.0002793501892,49.10952680023193Q70.06139175018922,49.10350780023193,70.12280035018921,49.10350680023193Q70.1842089501892,49.10350780023193,70.24532135018922,49.10952680023193Q70.3064343501892,49.115545800231935,70.36666335018921,49.127525800231936Q70.42689135018921,49.13950580023193,70.4856563501892,49.15733180023194Q70.54442035018921,49.17515680023193,70.6011543501892,49.19865680023193Q70.65788835018921,49.222156800231936,70.71204635018921,49.25110680023193Q70.76620335018922,49.28005680023193,70.81726335018921,49.31416680023193Q70.8683223501892,49.34828680023193,70.91579235018921,49.387246800231935Q70.96326135018921,49.426196800231935,71.0066833501892,49.469626800231936Q71.05010635018921,49.51304680023193,71.0890633501892,49.56051680023193Q71.1280203501892,49.607986800231934,71.1621403501892,49.659046800231934Q71.1962503501892,49.710106800231934,71.22520035018921,49.764256800231934Q71.2541503501892,49.81841680023194,71.2776503501892,49.875156800231935Q71.3011503501892,49.931886800231936,71.31898035018921,49.990646800231936Q71.33680035018921,50.04941680023193,71.34878035018922,50.109646800231936Q71.36076035018921,50.16987680023193,71.3667803501892,50.23098680023193Q71.37280035018921,50.29209680023193,71.37280035018921,50.35350680023193ZM78.73885035018921,48.171446800231934Q78.73885035018921,48.232855400231934,78.7328303501892,48.29396780023193Q78.72681035018921,48.35508080023193,78.7148303501892,48.41530980023193Q78.70285035018921,48.47553780023193,78.68503035018921,48.534302800231934Q78.6672003501892,48.59306680023193,78.6437003501892,48.64980080023194Q78.62020035018921,48.706534800231935,78.59125035018921,48.760692800231936Q78.5623003501892,48.81484980023193,78.5281903501892,48.86590980023193Q78.4940703501892,48.916968800231935,78.45511035018922,48.96443880023193Q78.41616035018922,49.01190780023193,78.37273035018922,49.05532980023193Q78.3293103501892,49.098752800231935,78.28184035018921,49.13770980023193Q78.23437035018921,49.176666800231935,78.1833103501892,49.210786800231936Q78.13225035018921,49.244896800231935,78.0781003501892,49.27384680023194Q78.0239403501892,49.30279680023193,77.96720035018922,49.32629680023194Q77.91047035018921,49.349796800231935,77.85171035018921,49.36762680023193Q77.79294035018921,49.38544680023193,77.73271035018921,49.39742680023193Q77.67249035018921,49.409406800231935,77.6113703501892,49.415426800231934Q77.5502603501892,49.421446800231934,77.48885035018921,49.421446800231934Q77.42744035018922,49.421446800231934,77.3663303501892,49.415426800231934Q77.3052203501892,49.409406800231935,77.24499035018921,49.39742680023193Q77.18476035018921,49.38544680023193,77.12599035018921,49.36762680023193Q77.0672303501892,49.349796800231935,77.0105003501892,49.32629680023194Q76.95376035018921,49.30279680023193,76.8996003501892,49.27384680023194Q76.84545035018921,49.244896800231935,76.7943903501892,49.210786800231936Q76.74333035018921,49.176666800231935,76.69586035018921,49.13770980023193Q76.6483903501892,49.098752800231935,76.6049703501892,49.05532980023193Q76.56155035018921,49.01190780023193,76.5225903501892,48.96443880023193Q76.4836303501892,48.916968800231935,76.44951035018921,48.86590980023193Q76.4154003501892,48.81484980023193,76.38645035018921,48.760692800231936Q76.35750035018921,48.706534800231935,76.33400035018921,48.64980080023194Q76.31050035018922,48.59306680023193,76.29268035018922,48.534302800231934Q76.27485035018921,48.47553780023193,76.2628703501892,48.41530980023193Q76.25089035018921,48.35508080023193,76.2448703501892,48.29396780023193Q76.23885035018921,48.232855400231934,76.23885035018921,48.171446800231934Q76.23885035018921,48.110038200231934,76.2448703501892,48.048925800231935Q76.25089035018921,47.987812800231936,76.2628703501892,47.927583800231936Q76.27485035018921,47.867355800231934,76.29268035018922,47.80859080023193Q76.31050035018922,47.749826800231936,76.33400035018921,47.69309280023193Q76.35750035018921,47.63635880023193,76.38645035018921,47.58220080023193Q76.4154003501892,47.528043800231934,76.44951035018921,47.476983800231935Q76.4836303501892,47.42592480023193,76.5225903501892,47.378454800231935Q76.56155035018921,47.330985800231936,76.6049703501892,47.287563800231936Q76.6483903501892,47.24414080023193,76.69586035018921,47.205183800231936Q76.74333035018921,47.16622680023193,76.7943903501892,47.13210680023193Q76.84545035018921,47.09799680023193,76.8996003501892,47.06904680023193Q76.95376035018921,47.040096800231936,77.0105003501892,47.01659680023193Q77.0672303501892,46.99309680023193,77.1260003501892,46.975266800231935Q77.18476035018921,46.957446800231935,77.24499035018921,46.945466800231934Q77.3052203501892,46.93348680023193,77.3663303501892,46.92746680023193Q77.42744035018922,46.921446800231934,77.48885035018921,46.921446800231934Q77.5502603501892,46.921446800231934,77.6113703501892,46.92746680023193Q77.67249035018921,46.93348680023193,77.73271035018921,46.945466800231934Q77.79294035018921,46.957446800231935,77.85171035018921,46.975266800231935Q77.91047035018921,46.99309680023193,77.96720035018922,47.01659680023193Q78.0239403501892,47.040096800231936,78.0781003501892,47.06904680023193Q78.13225035018921,47.09799680023193,78.1833103501892,47.13210680023193Q78.23437035018921,47.16622680023193,78.28184035018921,47.205183800231936Q78.3293103501892,47.24414080023193,78.37273035018922,47.287563800231936Q78.41616035018922,47.330985800231936,78.45511035018922,47.378454800231935Q78.4940703501892,47.42592480023193,78.5281903501892,47.476983800231935Q78.5623003501892,47.528043800231934,78.59125035018921,47.58220080023193Q78.62020035018921,47.63635880023193,78.6437003501892,47.69309280023193Q78.6672003501892,47.749826800231936,78.68503035018921,47.80859080023193Q78.70285035018921,47.867355800231934,78.7148303501892,47.927583800231936Q78.72681035018921,47.987812800231936,78.7328303501892,48.048925800231935Q78.73885035018921,48.110038200231934,78.73885035018921,48.171446800231934Z" fill="#000000" fill-opacity="1"/></g></g></g></g></svg>