<svg xmlns="http://www.w3.org/2000/svg" xmlns:xlink="http://www.w3.org/1999/xlink" fill="none" version="1.1" width="88" height="88" viewBox="0 0 88 88"><g style="mix-blend-mode:passthrough"><g style="mix-blend-mode:passthrough"><ellipse cx="44" cy="44" rx="44" ry="44" fill="#FFFDFC" fill-opacity="1"/></g><g style="mix-blend-mode:passthrough"><g style="mix-blend-mode:passthrough"><rect x="26.83203125" y="51.37144470214844" width="4.759071350097656" height="12.150521278381348" rx="-0.25" fill-opacity="0" stroke-opacity="1" stroke="#000000" fill="none" stroke-width="2.5"/></g><g style="mix-blend-mode:passthrough"><path d="M43.16600036621094,44.39237191101074L43.182918466210936,40.04916191101074L48.627220366210935,40.04916191101074L48.627220366210935,47.29812191101074L46.627220366210935,46.233981911010744L43.16600036621094,44.39237191101074ZM46.627220366210935,43.96850191101074L46.627220366210935,42.04916191101074L45.17514036621094,42.04916191101074L45.170690366210934,43.19352191101074L46.627220366210935,43.96850191101074Z" fill-rule="evenodd" fill="#000000" fill-opacity="1"/></g><g style="mix-blend-mode:passthrough"><rect x="44.182918548583984" y="66.68757247924805" width="3.444303512573242" height="3.4939451217651367" rx="0" fill-opacity="0" stroke-opacity="1" stroke="#000000" fill="none" stroke-width="2"/></g><g style="mix-blend-mode:passthrough"><ellipse cx="45.90509605407715" cy="29.061270713806152" rx="11.453374862670898" ry="11.569205284118652" fill-opacity="0" stroke-opacity="1" stroke="#EF814E" fill="none" stroke-width="2.5"/></g><g style="mix-blend-mode:passthrough"><path d="M44.3681640625,21.7249755859375L44.3681640625,23.1580755859375C43.6049040625,23.3595155859375,43.0198940625,23.7072255859375,42.6130840625,24.2011655859375C42.0792930625,24.8507155859375,41.8108280625,25.5817955859375,41.8108280625,26.3930455859375C41.8108280625,27.0110955859375,41.9610490625,27.5547555859375,42.2598810625,28.0212055859375C42.5587140625,28.4862355859375,42.9486440625,28.8481955859375,43.4280640625,29.105735585937502C43.907484062500004,29.3660855859375,44.5739440625,29.6265355859375,45.4257040625,29.8911655859375C46.3732940625,30.191605585937502,46.9854040625,30.439175585937498,47.2602840625,30.6351255859375C47.5351740625,30.8296855859375,47.6725840625,31.1173455859375,47.6725840625,31.4964655859375C47.6725840625,31.8627755859375,47.5351740625,32.1746755859375,47.2602840625,32.433575585937504C46.9854040625,32.6925755859375,46.5538840625,32.8213755859375,45.9706140625,32.8213755859375C44.7225540625,32.8213755859375,43.9874440625,32.217575585937496,43.7652640625,31.008605585937502L41.3681640625,31.5680055859375C41.7881180625,33.2356755859375,42.7874140625,34.2511755859375,44.3681640625,34.6126755859375L44.3681640625,36.3981755859375L47.2648940625,36.3981755859375L47.2648940625,34.6455755859375C48.2009340625,34.476575585937496,48.9376940625,34.1221755859375,49.4752140625,33.5824755859375C50.1191640625,32.937175585937496,50.442004062500004,32.1302755859375,50.442004062500004,31.161675585937502C50.442004062500004,30.5307855859375,50.2853940625,29.9799355859375,49.9737540625,29.5077655859375C49.6605540625,29.0371155859375,49.2434540625,28.6665255859375,48.7193040625,28.3989855859375C48.1967340625,28.1314455859375,47.4744140625,27.8467655859375,46.5539340625,27.5462755859375C45.7165640625,27.270155585937502,45.1684340625,27.0398455859375,44.914334062500004,26.8537955859375C44.6586540625,26.6663755859375,44.5307940625,26.3988155859375,44.5307940625,26.0497155859375C44.5307940625,25.707755585937498,44.6634040625,25.4158855859375,44.9287240625,25.1755355859375C45.1923540625,24.9351855859375,45.5439240625,24.8149955859375,45.9818640625,24.8149955859375C46.8543540625,24.8149955859375,47.4968040625,25.3529355859375,47.9139040625,26.4288355859375L50.0488740625,25.6447955859375C49.598434062500004,24.2579455859375,48.6700740625,23.4117855859375,47.2648940625,23.1052955859375L47.2648940625,21.7249755859375L44.3681640625,21.7249755859375Z" fill-rule="evenodd" fill="#EF814E" fill-opacity="1"/></g><g transform="matrix(0.09755188226699829,0.9952304363250732,-0.9951156377792358,0.09871526807546616,91.27428009665289,-19.608068214296807)"><path d="M64.51067890808105,66.8663981414795C64.11628890808106,66.8663981414795,63.763408908081054,66.7020981414795,63.514308908081055,66.4144981414795C63.493558908081056,66.3938981414795,61.604608908081055,64.17519814147948,59.217478908081056,61.73039814147949C58.22110890808106,60.70319814147949,56.97565090808106,59.42949814147949,56.51898250808105,57.02579814147949C56.06231390808105,54.622198141479494,57.37004590808105,51.41729814147949,58.44944890808105,50.595498141479496C58.94762890808106,50.22574814147949,59.528838908081056,50.143578141479495,60.04778890808105,50.39009814147949C60.11005890808106,50.431188141479495,60.172328908081056,50.451738141479495,60.234598908081054,50.49282814147949C60.130818908081054,50.20520814147949,60.02702890808106,49.91758814147949,59.90247890808106,49.60942814147949C59.84020890808105,49.445068141479496,59.777938908081055,49.28071814147949,59.694908908081054,49.13691814147949C59.134448908081055,47.82208814147949,58.51171890808106,46.342918141479494,59.009898908081055,44.55558814147949C59.59111890808106,42.50117814147949,61.10642890808106,41.22744614147949,63.202948908081055,41.08363814147949C64.05400890808106,41.022006141479494,65.09189890808105,41.20690214147949,65.96371890808105,41.57669814147949C66.39962890808106,41.186358141479495,67.06385890808106,40.87819714147949,67.95645890808106,40.693301141479495C69.47175890808106,40.38514014147949,71.58905890808106,40.54949251147949,72.93825890808105,41.47397514147949C74.26675890808106,41.00146214147949,76.21795890808106,41.55614814147949,77.48425890808106,42.43954814147949C78.18995890808105,42.93260814147949,78.68815890808105,43.52837814147949,78.95805890808106,44.165248141479495C80.41105890808106,44.45286814147949,82.44525890808106,45.932038141479495,82.81895890808106,47.329038141479494C83.37935890808106,49.403988141479495,82.32075890808105,54.14969814147949,81.84335890808106,55.32069814147949C80.80545890808105,58.21739814147949,79.85915890808106,62.228598141479495,79.15345890808106,65.22809814147949C79.15345890808106,65.24859814147949,79.13245890808105,65.2692981414795,79.13245890808105,65.2897981414795C78.67585890808105,66.8305981414795,77.24355890808106,67.8993981414795,75.62445890808105,67.8993981414795L64.51067890808105,66.8663981414795ZM65.11264890808106,64.2983981414795L75.66585890808105,65.33209814147949C76.12255890808106,65.33209814147949,76.53785890808106,65.02339814147949,76.68315890808105,64.5919981414795C77.43035890808105,61.510298141479495,78.37675890808106,57.395598141479496,79.45615890808105,54.41669814147949C79.45615890808105,54.396198141479495,79.47695890808106,54.355098141479495,79.49765890808105,54.33459814147949C79.93365890808106,53.34839814147949,80.68085890808106,49.23963814147949,80.36955890808105,48.00698814147949C80.18275890808106,47.616648141479494,79.22785890808106,46.91814814147949,78.68815890808105,46.733258141479496C78.35605890808105,46.97978814147949,77.89935890808106,47.061958141479494,77.48425890808106,46.918158141479495C76.88225890808106,46.71271814147949,76.50855890808106,46.07584814147949,76.63315890808106,45.459528141479495C76.69545890808105,45.19244814147949,76.44635890808105,44.904838141479495,76.21795890808106,44.71993814147949C75.55375890808105,44.14470814147949,74.64045890808106,43.89817814147949,74.14225890808106,43.877638141479494C73.99695890808106,44.329598141479494,73.60255890808105,44.67884814147949,73.10435890808105,44.76102814147949C72.41935890808105,44.86374814147949,71.77585890808106,44.432328141479495,71.63055890808106,43.77491814147949C71.60975890808106,43.71327814147949,71.38145890808106,43.46674814147949,70.75875890808105,43.30239814147949C69.55475890808106,42.973698141479495,68.18475890808105,43.199678141479495,67.76965890808106,43.46674814147949C67.76965890808106,44.02143814147949,67.43745890808106,44.51449814147949,66.89775890808106,44.69939814147949C66.33734890808105,44.884288141479495,65.71461890808105,44.67884814147949,65.40325890808106,44.185798141479495C65.15416890808106,43.98035814147949,64.19930890808105,43.59001814147949,63.41051890808105,43.65164814147949C62.414158908081056,43.71327814147949,61.81217890808105,44.24742814147949,61.521578908081054,45.25408814147949C61.27248890808106,46.13747814147949,61.58384890808105,46.918158141479495,62.10278890808105,48.15079814147949C62.16505890808106,48.31515814147949,62.248098908081055,48.47950814147949,62.31036890808105,48.664398141479495C62.642488908081056,49.486168141479496,62.89157890808106,50.22574814147949,63.119918908081054,50.903698141479495C63.32748890808105,51.51999814147949,63.493558908081056,52.05419814147949,63.70112890808105,52.465098141479494C64.03324890808105,53.204598141479494,63.84642890808105,54.06749814147949,63.223698908081055,54.622198141479494C62.60097890808105,55.156298141479496,61.70839890808105,55.21799814147949,61.00263890808105,54.78649814147949C60.878088908081054,54.704398141479494,60.753538908081055,54.622198141479494,60.62899890808106,54.56059814147949C60.27611890808105,54.355098141479495,60.006268908081054,54.02639814147949,59.59111890808106,53.53329814147949C59.238228908081055,54.37569814147949,58.90610890808105,55.62879814147949,59.092928908081056,56.59439814147949C59.38353890808106,58.114698141479494,60.04777890808106,58.89529814147949,61.106418908081054,59.984198141479496C62.912338908081054,61.79209814147949,64.42764890808105,63.51779814147949,65.11264890808106,64.2983981414795Z" fill="#000000" fill-opacity="1"/></g></g></g></svg>