<?xml version="1.0" encoding="UTF-8"?>
<svg width="155px" height="150px" viewBox="0 0 155 150" version="1.1" xmlns="http://www.w3.org/2000/svg" xmlns:xlink="http://www.w3.org/1999/xlink">
    <title>ph 34@3x</title>
    <g id="ph" stroke="none" stroke-width="1" fill="none" fill-rule="evenodd">
        <g id="ph" transform="translate(-409.000000, -902.000000)">
            <g id="ph-9" transform="translate(226.000000, 914.000000)">
                <g id="ph-34" transform="translate(183.000000, -12.000000)">
                    <path d="M87.4563374,4.54482081 L146.310785,34.4530396 C148.772577,35.7040551 149.754106,38.7138805 148.50309,41.1756728 C148.028984,42.108636 147.274089,42.8693209 146.344775,43.3505416 L86.696617,74.2377734 C80.9292246,77.2242661 74.0707754,77.2242661 68.303383,74.2377734 L8.7680077,43.4089433 C6.3158454,42.1391554 5.35734151,39.1219187 6.62712934,36.6697564 C7.11657968,35.7245499 7.89489898,34.9602046 8.84881681,34.4879571 L69.5223013,4.45088384 C75.1800878,1.64993466 81.8282028,1.68475692 87.4563374,4.54482081 Z" id="ph" fill="#FDF2ED"></path>
                    <path d="M12,77.5 L69.3456736,106.388422 C75.0931179,109.283751 81.882669,109.236507 87.5892654,106.261477 L142.758505,77.5 L142.758505,77.5" id="ph-4" stroke="#FEFAF9" stroke-width="12" stroke-linecap="round"></path>
                    <path d="M12,112.5 L69.362988,141.397144 C75.1007552,144.287598 81.8777846,144.245647 87.579328,141.28438 L143,112.5 L143,112.5" id="ph-4" stroke="#FEFAF9" stroke-width="12" stroke-linecap="round"></path>
                </g>
            </g>
        </g>
    </g>
</svg>