<svg xmlns="http://www.w3.org/2000/svg" xmlns:xlink="http://www.w3.org/1999/xlink" fill="none" version="1.1" width="68" height="68" viewBox="0 0 68 68"><g style="mix-blend-mode:passthrough"><g style="opacity:0.5;mix-blend-mode:passthrough"><ellipse cx="34" cy="34" rx="33.5" ry="33.5" fill-opacity="0" stroke-opacity="0.5" stroke="#4582DE" fill="none" stroke-width="1"/></g><g style="mix-blend-mode:passthrough"><ellipse cx="34" cy="34" rx="26" ry="26" fill="#4582DE" fill-opacity="1"/></g><g style="mix-blend-mode:passthrough"><g><g><path d="M48.2354,38.48879778289795C47.8825,38.48879778289795,45.470600000000005,39.82959778289795,45.2941,38.95519778289795C45.823499999999996,37.90579778289795,46,36.68159778289795,46,35.45739778289795C46,32.83407778289795,44.941199999999995,30.56053778289795,43.176500000000004,28.636767782897948C41.4118,26.88788778289795,38.941199999999995,25.83856778289795,36.2941,25.83856778289795L30.647100000000002,25.83856778289795C29.4118,24.96412778289795,27.29412,23.91479778289795,25.176470000000002,23.91479778289795C24.64706,23.91479778289795,24.29412,24.08968578289795,24.11765,24.43946178289795C23.76471,24.61434978289795,23.23529,25.488787782897948,23.76471,29.16143778289795C23.05882,30.03587778289795,22.35294,31.08519778289795,22,32.30941778289795L21.823529999999998,32.30941778289795C20.23529,32.30941778289795,19,33.53362778289795,19,35.10759778289795L19,37.90579778289795C19,39.47979778289795,20.23529,40.70399778289795,21.823529999999998,40.70399778289795L23.23529,40.70399778289795C24.11765,42.10309778289795,25.35294,43.15249778289795,26.94118,43.85199778289795L26.94118,44.37669778289795C26.94118,45.77579778289795,28.176470000000002,46.99999778289795,29.5882,46.99999778289795L30.8235,46.99999778289795C32.0588,46.99999778289795,33.117599999999996,46.12559778289795,33.4706,44.90129778289795L35.941199999999995,44.90129778289795C36.117599999999996,46.12559778289795,37.176500000000004,46.99999778289795,38.5882,46.99999778289795L39.823499999999996,46.99999778289795C41.235299999999995,46.99999778289795,42.470600000000005,45.77579778289795,42.470600000000005,44.37669778289795L42.470600000000005,42.977597782897945C43.176500000000004,42.45289778289795,43.882400000000004,41.75339778289795,44.4118,41.053797782897945C46.647099999999995,41.40359778289795,47.823499999999996,40.82059778289795,48.4118,40.23769778289795C49,39.65469778289795,49,39.36319778289795,49,39.07169778289795C49,38.78029778289795,48.7648,38.48879778289795,48.2354,38.48879778289795ZM40.882400000000004,41.75339778289795C40.7059,41.92829778289795,40.529399999999995,42.10309778289795,40.529399999999995,42.45289778289795L40.529399999999995,44.37669778289795C40.529399999999995,44.90129778289795,40.176500000000004,45.25109778289795,39.647099999999995,45.25109778289795L38.4118,45.25109778289795C37.882400000000004,45.25109778289795,37.529399999999995,44.90129778289795,37.529399999999995,44.37669778289795L37.529399999999995,44.02689778289795C37.529399999999995,43.85199778289795,37.352900000000005,43.50219778289795,37.176500000000004,43.32739778289795C37,43.15249778289795,36.823499999999996,43.15249778289795,36.647099999999995,43.15249778289795L32.5882,43.15249778289795C32.0588,43.15249778289795,31.7059,43.50219778289795,31.7059,44.02689778289795L31.7059,44.37669778289795C31.7059,44.90129778289795,31.352899999999998,45.25109778289795,30.8235,45.25109778289795L29.5882,45.25109778289795C29.058799999999998,45.25109778289795,28.70588,44.90129778289795,28.70588,44.37669778289795L28.70588,43.677097782897945L28.70588,43.50219778289795C28.70588,43.15249778289795,28.52941,42.80269778289795,28.176470000000002,42.62779778289795C26.58824,41.92829778289795,25.35294,40.87889778289795,24.47059,39.47979778289795C24.29412,39.129997782897945,23.76471,38.95519778289795,23.41177,39.129997782897945L21.823529999999998,39.129997782897945C21.29412,39.129997782897945,20.76471,38.60539778289795,20.76471,38.08069778289795L20.76471,35.10759778289795C20.76471,34.40809778289795,21.29412,34.05829778289795,21.823529999999998,34.05829778289795L22.52941,34.05829778289795C22.88235,34.05829778289795,23.23529,33.70851778289795,23.41177,33.35874778289795C23.76471,32.13452778289795,24.47059,30.91031778289795,25.35294,30.03587778289795C25.52941,29.86098778289795,25.70588,29.511207782897948,25.52941,29.33631778289795C25.176470000000002,27.06277778289795,25.176470000000002,26.01344778289795,25.35294,25.66367778289795C27.117649999999998,25.66367778289795,28.882350000000002,26.71300778289795,30.1176,27.58744778289795C30.2941,27.76232778289795,30.470599999999997,27.76232778289795,30.647100000000002,27.76232778289795L36.470600000000005,27.76232778289795C38.5882,27.76232778289795,40.529399999999995,28.636767782897948,41.941199999999995,30.03587778289795C43.352900000000005,31.43497778289795,44.235299999999995,33.53362778289795,44.235299999999995,35.45739778289795C44.235299999999995,37.90579778289795,43,40.354297782897945,40.882400000000004,41.75339778289795Z" fill="#FFFFFF" fill-opacity="1"/></g></g><g style="mix-blend-mode:passthrough"><path d="M40,23C40,25.76142,37.76142,28,35,28C32.23858,28,30,25.76142,30,23C30,20.23858,32.23858,18,35,18C37.76142,18,40,20.23858,40,23Z" fill="#4582DE" fill-opacity="1"/><path d="M35,17.2Q37.40244,17.2,39.10122,18.898781Q40.8,20.59756,40.8,23Q40.8,25.40244,39.10122,27.101219999999998Q37.40244,28.8,35,28.8Q32.59756,28.8,30.898781,27.101219999999998Q29.2,25.40244,29.2,23Q29.2,20.59756,30.898781,18.898781Q32.59756,17.2,35,17.2L35,17.2ZM35,18.8Q33.2603,18.8,32.03015,20.03015Q30.8,21.2603,30.8,23Q30.8,24.7397,32.03015,25.96985Q33.2603,27.2,35,27.2Q36.7397,27.2,37.96985,25.96985Q39.2,24.7397,39.2,23Q39.2,21.2603,37.96985,20.03015Q36.7397,18.8,35,18.8L35,18.8Z" fill="#FFFFFF" fill-opacity="1"/></g><g><path d="M33.45849609375,24.689939453125L33.49999999375,24.725099453125C33.82996009375,25.005959453125,34.30419109375,25.209549453125,34.74413609375,25.262209453125L34.74413609375,25.950439453125L35.31298609375,25.950439453125L35.31298609375,25.248289453125C36.02221609375,25.135949453125,36.45849609375,24.665559453125,36.45849609375,24.009029453125C36.45849609375,23.162919453125,35.80999609375,22.871369453125,35.23730609375,22.611569453125C34.78218609375,22.407949453125,34.38769509375,22.228979453125,34.38769509375,21.814699453125C34.38769509375,21.449569453125,34.65691609375,21.214359453125,35.07031609375,21.214359453125C35.44578609375,21.214359453125,35.65454609375,21.337249453125,35.92382609375,21.583009453125L35.97314609375,21.624999453125L36.38281609375,21.207279453125L36.34081609375,21.165279453125C36.10946609375,20.940590453125,35.80982609375,20.705377453125,35.31298609375,20.638671453125L35.31298609375,19.950439453125L34.74413609375,19.950439453125L34.74413609375,20.652587453125C34.08421709375,20.764934453125,33.66308609375,21.224959453125,33.66308609375,21.839359453125C33.66308609375,22.576629453125,34.26992109375,22.860989453125,34.80468609375,23.113769453125002C35.28255609375,23.338459453125,35.73388609375,23.549009453125,35.73388609375,24.040529453125C35.73388609375,24.458319453125,35.46119609375,24.686519453125,34.96435609375,24.686519453125C34.59646609375,24.686519453125,34.23984409375,24.546039453125,33.86816409375,24.254639453125L33.81494109375,24.212649453125L33.45849609375,24.689939453125Z" fill="#FFFFFF" fill-opacity="1"/><path d="M36.16664609375,21.344619453125Q35.76148609375,20.951129453125,35.27972609375,20.886448453125L35.06298609375,20.857350453125L35.06298609375,19.950439453125L35.31298609375,19.950439453125L35.31298609375,20.200439453125L34.74413609375,20.200439453125L34.74413609375,19.950439453125L34.99413609375,19.950439453125L34.99413609375,20.863624453125L34.78609609375,20.899042453125Q33.91308609375,21.047669453125,33.91308609375,21.839359453125Q33.91308609375,22.215049453125,34.19790709375,22.470029453125Q34.38821509375,22.640389453125,34.90615609375,22.885209453125L34.91152609375,22.887749453125L34.91586609375,22.889789453125Q35.41361609375,23.123819453125,35.60955609375,23.285869453125Q35.98388609375,23.595459453125,35.98388609375,24.040529453125Q35.98388609375,24.936519453125,34.96435609375,24.936519453125Q34.33271709375,24.936519453125,33.71391709375,24.451379453125L33.66008909375,24.408909453125L33.81494109375,24.212649453125L34.01524809375,24.362239453125L33.65880309375,24.839529453125L33.45849609375,24.689939453125L33.62008209375,24.499179453125L33.66158609375,24.534339453125Q34.13526909375,24.937539453124998,34.77385609375,25.013979453125L34.99413609375,25.040349453125L34.99413609375,25.950439453125L34.74413609375,25.950439453125L34.74413609375,25.700439453125L35.31298609375,25.700439453125L35.31298609375,25.950439453125L35.06298609375,25.950439453125L35.06298609375,25.034779453125L35.27387609375,25.001369453125Q36.20849609375,24.853319453125,36.20849609375,24.009029453125Q36.20849609375,23.560229453125,35.89687609375,23.277579453125Q35.69333609375,23.092969453125,35.13935609375,22.841659453125L35.13402609375,22.839239453125Q34.66904609375,22.631209453125,34.48753609375,22.488839453125Q34.13769509375,22.214429453125,34.13769509375,21.814699453125Q34.13769509375,21.427929453125,34.40905109375,21.189729453125Q34.66578609375,20.964359453125,35.07031609375,20.964359453125Q35.61682609375,20.964359453125,36.09235609375,21.398349453125L35.92382609375,21.583009453125L36.08590609375,21.392659453125L36.13521609375,21.434659453125L35.97314609375,21.624999453125L35.79465609375,21.449949453125L36.20432609375,21.032229453125L36.38281609375,21.207279453125L36.20603609375,21.384049453125L36.16404609375,21.342059453125L36.16664609375,21.344619453125ZM36.51759609375,20.988509453125L36.73465609375,21.205559453125L35.98847609375,21.966409453125L35.75847609375,21.770569453125L35.75529609375,21.767669453125Q35.42295609375,21.464359453125,35.07031609375,21.464359453125Q34.63769609375,21.464359453125,34.63769609375,21.814699453125Q34.63769609375,22.069419453125,35.34058609375,22.383899453125L35.34590609375,22.386319453125Q35.97123609375,22.669989453124998,36.23278609375,22.907229453124998Q36.70849609375,23.338709453125,36.70849609375,24.009029453125Q36.70849609375,24.599049453124998,36.33520609375,25.002509453125Q35.96989609375,25.397349453125,35.35210609375,25.495209453125L35.31298609375,25.248289453125L35.56298609375,25.248289453125L35.56298609375,26.200439453125L34.49413609375,26.200439453125L34.49413609375,25.262209453125L34.74413609375,25.262209453125L34.71442609375,25.510439453125Q33.92605309375,25.416069453125,33.33841409375,24.915859453125L33.11750409375,24.728739453125L33.76824809375,23.857359453125L34.02241109375,24.057899453125Q34.50535609375,24.436519453125,34.96435609375,24.436519453125Q35.48388609375,24.436519453125,35.48388609375,24.040529453125Q35.48388609375,23.709369453125,34.70312609375,23.342269453125L34.69784609375,23.339789453125Q34.69475609375,23.338329453125,34.69248609375,23.337259453125Q34.10885409375,23.061389453125,33.86441009375,22.842559453125Q33.41308589375,22.438519453125,33.41308589375,21.839359453125Q33.41308589375,21.282079453125,33.77144209375,20.889222453125Q34.12201409375,20.504903453125,34.70218609375,20.406133453125L34.74413609375,20.652587453125L34.49413609375,20.652587453125L34.49413609375,19.700439453125L35.56298609375,19.700439453125L35.56298609375,20.638671453125L35.31298609375,20.638671453125L35.34625609375,20.390895453125Q35.99150609375,20.477527453125,36.51499609375,20.985939453125L36.51759609375,20.988509453125Z" fill="#FFFFFF" fill-opacity="1"/></g></g><g style="mix-blend-mode:passthrough"><path d="M37.87503,30.54234452758789Q34.54029,29.589636527587892,31.128572,30.18329452758789L30.871428,28.70550052758789Q34.62182,28.05291452758789,38.28708,29.10005452758789L37.87503,30.54234452758789ZM38.83105,29.821201527587892Q38.83105,29.89506952758789,38.81664,29.96751952758789Q38.80223,30.03996852758789,38.77396,30.10821352758789Q38.7457,30.17645952758789,38.70466,30.23787452758789Q38.66362,30.29929452758789,38.61138,30.35153452758789Q38.55915,30.403764527587892,38.49773,30.44480452758789Q38.43631,30.48584452758789,38.36807,30.51411452758789Q38.29982,30.542374527587892,38.22737,30.55679452758789Q38.15492,30.57120452758789,38.08105,30.57120452758789Q38.00719,30.57120452758789,37.93474,30.55679452758789Q37.86229,30.542374527587892,37.79404,30.51411452758789Q37.7258,30.48584452758789,37.66438,30.44480452758789Q37.60296,30.403764527587892,37.55072,30.35153452758789Q37.498490000000004,30.29929452758789,37.45745,30.23787452758789Q37.41641,30.17645952758789,37.38814,30.10821352758789Q37.359880000000004,30.03996852758789,37.34547,29.96751852758789Q37.33105,29.89506952758789,37.33105,29.821201527587892Q37.33105,29.74733252758789,37.34547,29.67488352758789Q37.359880000000004,29.602434527587892,37.38814,29.53418852758789Q37.41641,29.46594352758789,37.45745,29.40452352758789Q37.498490000000004,29.34310452758789,37.55072,29.29087122758789Q37.60296,29.23863822758789,37.66438,29.19759910758789Q37.7258,29.156559927587892,37.79404,29.128291627587892Q37.86229,29.10002352758789,37.93474,29.08561252758789Q38.00719,29.071201527587892,38.08105,29.071201527587892Q38.15492,29.071201527587892,38.22737,29.08561252758789Q38.29982,29.10002352758789,38.36807,29.12829172758789Q38.43631,29.156559927587892,38.49773,29.19759910758789Q38.55915,29.23863822758789,38.61138,29.29087122758789Q38.66362,29.34310452758789,38.70466,29.40452352758789Q38.7457,29.46594352758789,38.77396,29.53418852758789Q38.80223,29.602434527587892,38.81664,29.67488352758789Q38.83105,29.74733252758789,38.83105,29.821201527587892ZM31.75,29.444397527587892Q31.75,29.51826652758789,31.735589,29.59071552758789Q31.721178,29.66316452758789,31.69291,29.73140952758789Q31.664641,29.79965552758789,31.623601999999998,29.86107552758789Q31.582563,29.92249452758789,31.53033,29.97472752758789Q31.478096999999998,30.02696052758789,31.416678,30.06799952758789Q31.355258,30.10903852758789,31.287013,30.137306527587892Q31.218767,30.16557552758789,31.146318,30.17998652758789Q31.0738685,30.194397527587892,31,30.194397527587892Q30.9261315,30.194397527587892,30.853682,30.17998652758789Q30.781233,30.16557552758789,30.712987,30.137306527587892Q30.644742,30.10903852758789,30.583322,30.06799952758789Q30.521903000000002,30.02696052758789,30.46967,29.97472752758789Q30.417437,29.92249452758789,30.376398000000002,29.86107552758789Q30.335359,29.79965552758789,30.30709,29.73140952758789Q30.278822,29.66316452758789,30.264411,29.59071552758789Q30.25,29.51826652758789,30.25,29.444397527587892Q30.25,29.37052852758789,30.264411,29.29807972758789Q30.278822,29.22563062758789,30.30709,29.15738492758789Q30.335359,29.08913952758789,30.376398000000002,29.02771952758789Q30.417437,28.96630052758789,30.46967,28.91406752758789Q30.521903000000002,28.86183452758789,30.583322,28.82079552758789Q30.644742,28.779756527587892,30.712987,28.75148752758789Q30.781233,28.72321952758789,30.853682,28.70880852758789Q30.9261315,28.694397527587892,31,28.694397527587892Q31.0738685,28.694397527587892,31.146318,28.70880852758789Q31.218767,28.72321952758789,31.287013,28.75148752758789Q31.355258,28.779756527587892,31.416678,28.82079552758789Q31.478096999999998,28.86183452758789,31.53033,28.91406752758789Q31.582563,28.96630052758789,31.623601999999998,29.02771952758789Q31.664641,29.08913952758789,31.69291,29.15738492758789Q31.721178,29.22563062758789,31.735589,29.29807972758789Q31.75,29.37052852758789,31.75,29.444397527587892Z" fill="#FFFFFF" fill-opacity="1"/></g><g><path d="M25,34C25,34.55131,25.448692,35,26,35C26.55131,35,27,34.55131,27,34C27,33.448692,26.55131,33,26,33C25.448692,33,25,33.448692,25,34Z" fill="#FFFFFF" fill-opacity="1"/></g></g></svg>