<?xml version="1.0" encoding="UTF-8"?>
<svg width="78px" height="78px" viewBox="0 0 78 78" version="1.1" xmlns="http://www.w3.org/2000/svg" xmlns:xlink="http://www.w3.org/1999/xlink">
    <title>ph 25</title>
    <g id="ph-1" stroke="none" stroke-width="1" fill="none" fill-rule="evenodd">
        <g id="ph" transform="translate(-552.000000, -1032.000000)">
            <g id="ph-23" transform="translate(485.000000, 1042.000000)">
                <g id="ph-25" transform="translate(67.000000, -10.000000)">
                    <rect id="ph" fill-opacity="0" fill="#AEAEAE" x="0" y="-2.84217094e-14" width="78" height="78"></rect>
                    <g id="ph-2" transform="translate(0.091418, 3.216363)" fill-rule="nonzero">
                        <path d="M53.8597916,25.539401 C54.8939554,26.5632879 56.559793,26.5632879 57.5939568,25.539401 L57.6690318,25.464326 C58.6953471,24.4349826 58.6953471,22.7692966 57.6690318,21.7399532 L36.6415036,0.767915123 C35.6073398,-0.255971708 33.9415022,-0.255971708 32.9073384,0.767915123 L32.8322634,0.839726047 C31.8037766,1.86944549 31.8037766,3.53764355 32.8322634,4.567363 L53.8597916,25.539401 Z" id="ph" fill="#FDF2ED"></path>
                        <path d="M24.9839338,57.3209208 L25.0590088,57.24911 C26.0874956,56.2193905 26.0874956,54.5511925 25.0590088,53.521473 L7.06562717,35.8002011 C6.03146338,34.7763143 4.36562579,34.7763143 3.331462,35.8002011 L3.256387,35.872012 C2.22790015,36.9017314 2.22790015,38.5699295 3.256387,39.599649 L21.2497686,57.3209208 C22.2839324,58.3448076 23.94977,58.3448076 24.9839338,57.3209208 Z" id="ph" fill="#FDF2ED"></path>
                        <path d="M44.6691065,37.9842753 L50.1395043,30.1918577 C51.8075747,27.8096064 51.2288613,24.5275601 48.8454764,22.8530607 L32.3903557,11.35642 C29.9963515,9.69480448 26.710379,10.2742101 25.0290569,12.6544156 L9.45246526,34.8437574 C7.78643382,37.2283516 8.36535651,40.5115853 10.7464932,42.1825545 L27.201614,53.6791951 C29.5956181,55.3408106 32.8815906,54.761405 34.5629127,52.3811995 L40.0300961,44.5893487 L67.4969494,61.6898662 C69.2922815,62.9341116 71.7548128,62.4999009 73.0163162,60.7166529 C74.3549343,58.7968601 73.9218912,56.3409508 72.1359598,55.0847928 L44.6691065,37.9842753 Z" id="ph" fill="#FDF2ED" transform="translate(41.150165, 36.404029) rotate(10.000000) translate(-41.150165, -36.404029) "></path>
                        <path d="M53.1375,69.4111073 C53.1375,70.5620421 52.1241299,71.5105884 50.8339809,71.5672736 L2.30351906,71.5672736 C1.01337011,71.5105884 0,70.5620421 0,69.4111073 C0,68.2601724 1.01337011,67.3116261 2.30351906,67.2549409 C2.94609835,67.2556362 3.5626692,67.0288598 4.0175928,66.6245001 C4.4725164,66.2201404 4.72852772,65.6713205 4.72930708,65.0987746 C4.72930708,63.9093463 5.81723621,63.3772736 7.1550951,63.3772736 L45.9794645,63.3772736 C47.3202637,63.3772736 48.4081929,63.9093464 48.4081929,65.0987746 C48.4081929,66.2908228 49.4961221,67.2549409 50.8339809,67.2549409 C52.1241299,67.3116261 53.1375,68.2601724 53.1375,69.4111073 Z" id="ph" fill="#FEFAF9"></path>
                    </g>
                </g>
            </g>
        </g>
    </g>
</svg>